<svg xmlns="http://www.w3.org/2000/svg" xmlns:xlink="http://www.w3.org/1999/xlink" width="430" zoomAndPan="magnify" viewBox="0 0 322.5 698.999979" height="932" preserveAspectRatio="xMidYMid meet" version="1.2"><defs><clipPath id="6056ca4c3f"><path d="M 27.613281 15.71875 L 36.800781 15.71875 L 36.800781 52.464844 L 27.613281 52.464844 Z M 27.613281 15.71875 "/></clipPath><clipPath id="ac40aa39dd"><path d="M 27.613281 57.097656 L 36.800781 57.097656 L 36.800781 93.84375 L 27.613281 93.84375 Z M 27.613281 57.097656 "/></clipPath><clipPath id="4c29361bc1"><path d="M 272.125 591.171875 L 308.875 591.171875 L 308.875 600.355469 L 272.125 600.355469 Z M 272.125 591.171875 "/></clipPath><clipPath id="1dc7f0eb60"><path d="M 230.746094 591.171875 L 267.496094 591.171875 L 267.496094 600.355469 L 230.746094 600.355469 Z M 230.746094 591.171875 "/></clipPath><clipPath id="903036e011"><path d="M 291 206 L 308.910156 206 L 308.910156 220.6875 L 291 220.6875 Z M 291 206 "/></clipPath><clipPath id="150e0eba72"><path d="M 292 191 L 308.910156 191 L 308.910156 206 L 292 206 Z M 292 191 "/></clipPath><clipPath id="d7f6b939c3"><path d="M 292 176 L 308.910156 176 L 308.910156 191 L 292 191 Z M 292 176 "/></clipPath><clipPath id="c938a74e5e"><path d="M 287.195312 203 L 306 203 L 306 220 L 287.195312 220 Z M 287.195312 203 "/></clipPath><clipPath id="7221311f09"><path d="M 287.195312 188 L 306 188 L 306 205 L 287.195312 205 Z M 287.195312 188 "/></clipPath><clipPath id="dc567cb2ab"><path d="M 287.195312 173.511719 L 306 173.511719 L 306 190 L 287.195312 190 Z M 287.195312 173.511719 "/></clipPath><clipPath id="9c5971e5dd"><path d="M 4.445312 622.914062 L 8 622.914062 L 8 626 L 4.445312 626 Z M 4.445312 622.914062 "/></clipPath><clipPath id="40c28ea987"><path d="M 13 622.914062 L 17 622.914062 L 17 626 L 13 626 Z M 13 622.914062 "/></clipPath><clipPath id="f9beddd081"><path d="M 21 622.914062 L 26 622.914062 L 26 626 L 21 626 Z M 21 622.914062 "/></clipPath><clipPath id="8ba13dc40b"><path d="M 30 622.914062 L 34 622.914062 L 34 626 L 30 626 Z M 30 622.914062 "/></clipPath><clipPath id="151d600cd6"><path d="M 39 622.914062 L 43 622.914062 L 43 626 L 39 626 Z M 39 622.914062 "/></clipPath><clipPath id="d1eee0cb2f"><path d="M 4.445312 631 L 8 631 L 8 635 L 4.445312 635 Z M 4.445312 631 "/></clipPath><clipPath id="8c01a86360"><path d="M 4.445312 640 L 8 640 L 8 644 L 4.445312 644 Z M 4.445312 640 "/></clipPath><clipPath id="3506ae4f98"><path d="M 4.445312 649 L 8 649 L 8 653 L 4.445312 653 Z M 4.445312 649 "/></clipPath><clipPath id="c5962de08a"><path d="M 65 649 L 68.84375 649 L 68.84375 653 L 65 653 Z M 65 649 "/></clipPath><clipPath id="4d34f8bfa6"><path d="M 4.445312 657 L 8 657 L 8 662 L 4.445312 662 Z M 4.445312 657 "/></clipPath><clipPath id="e6185d997e"><path d="M 65 657 L 68.84375 657 L 68.84375 662 L 65 662 Z M 65 657 "/></clipPath><clipPath id="fdfeee9e38"><path d="M 65 666 L 68.84375 666 L 68.84375 670 L 65 670 Z M 65 666 "/></clipPath><clipPath id="e7d6360112"><path d="M 65 675 L 68.84375 675 L 68.84375 679 L 65 679 Z M 65 675 "/></clipPath><clipPath id="78cee9d03b"><path d="M 30 684 L 34 684 L 34 687.3125 L 30 687.3125 Z M 30 684 "/></clipPath><clipPath id="24e335dc8d"><path d="M 39 684 L 43 684 L 43 687.3125 L 39 687.3125 Z M 39 684 "/></clipPath><clipPath id="d896057e00"><path d="M 48 684 L 52 684 L 52 687.3125 L 48 687.3125 Z M 48 684 "/></clipPath><clipPath id="2834e898fc"><path d="M 57 684 L 61 684 L 61 687.3125 L 57 687.3125 Z M 57 684 "/></clipPath><clipPath id="7370cd9a32"><path d="M 65 684 L 68.84375 684 L 68.84375 687.3125 L 65 687.3125 Z M 65 684 "/></clipPath></defs><g id="bf4a70db5e"><g clip-rule="nonzero" clip-path="url(#6056ca4c3f)"><path style=" stroke:none;fill-rule:nonzero;fill:#000000;fill-opacity:1;" d="M 36.800781 20.3125 C 36.800781 17.777344 34.746094 15.71875 32.207031 15.71875 C 29.671875 15.71875 27.613281 17.777344 27.613281 20.3125 C 27.613281 22.851562 29.671875 24.90625 32.207031 24.90625 C 34.746094 24.90625 36.800781 22.851562 36.800781 20.3125 Z M 36.800781 47.871094 C 36.800781 45.332031 34.746094 43.277344 32.207031 43.277344 C 29.671875 43.277344 27.613281 45.332031 27.613281 47.871094 C 27.613281 50.410156 29.671875 52.464844 32.207031 52.464844 C 34.746094 52.464844 36.800781 50.410156 36.800781 47.871094 Z M 36.800781 34.09375 C 36.800781 31.554688 34.746094 29.5 32.207031 29.5 C 29.671875 29.5 27.613281 31.554688 27.613281 34.09375 C 27.613281 36.628906 29.671875 38.683594 32.207031 38.683594 C 34.746094 38.683594 36.800781 36.628906 36.800781 34.09375 Z M 36.800781 34.09375 "/></g><g clip-rule="nonzero" clip-path="url(#ac40aa39dd)"><path style=" stroke:none;fill-rule:nonzero;fill:#9b18d4;fill-opacity:1;" d="M 36.800781 61.691406 C 36.800781 59.15625 34.746094 57.101562 32.207031 57.101562 C 29.671875 57.101562 27.617188 59.15625 27.617188 61.691406 C 27.617188 64.230469 29.671875 66.285156 32.207031 66.285156 C 34.746094 66.285156 36.800781 64.230469 36.800781 61.691406 Z M 36.800781 89.25 C 36.800781 86.710938 34.746094 84.65625 32.207031 84.65625 C 29.671875 84.65625 27.617188 86.710938 27.617188 89.25 C 27.617188 91.789062 29.671875 93.84375 32.207031 93.84375 C 34.746094 93.84375 36.800781 91.789062 36.800781 89.25 Z M 36.800781 75.472656 C 36.800781 72.933594 34.746094 70.878906 32.207031 70.878906 C 29.671875 70.878906 27.617188 72.933594 27.617188 75.472656 C 27.617188 78.007812 29.671875 80.0625 32.207031 80.0625 C 34.746094 80.0625 36.800781 78.007812 36.800781 75.472656 Z M 36.800781 75.472656 "/></g><g clip-rule="nonzero" clip-path="url(#4c29361bc1)"><path style=" stroke:none;fill-rule:nonzero;fill:#9b18d4;fill-opacity:1;" d="M 304.277344 600.355469 C 306.816406 600.355469 308.871094 598.300781 308.871094 595.765625 C 308.871094 593.226562 306.816406 591.171875 304.277344 591.171875 C 301.742188 591.171875 299.683594 593.226562 299.683594 595.765625 C 299.683594 598.300781 301.742188 600.355469 304.277344 600.355469 Z M 276.722656 600.355469 C 279.257812 600.355469 281.3125 598.300781 281.3125 595.765625 C 281.3125 593.226562 279.257812 591.171875 276.722656 591.171875 C 274.183594 591.171875 272.128906 593.226562 272.128906 595.765625 C 272.128906 598.300781 274.183594 600.355469 276.722656 600.355469 Z M 290.5 600.355469 C 293.039062 600.355469 295.09375 598.300781 295.09375 595.765625 C 295.09375 593.226562 293.039062 591.171875 290.5 591.171875 C 287.960938 591.171875 285.90625 593.226562 285.90625 595.765625 C 285.90625 598.300781 287.960938 600.355469 290.5 600.355469 Z M 290.5 600.355469 "/></g><g clip-rule="nonzero" clip-path="url(#1dc7f0eb60)"><path style=" stroke:none;fill-rule:nonzero;fill:#000000;fill-opacity:1;" d="M 262.898438 600.355469 C 265.4375 600.355469 267.492188 598.300781 267.492188 595.765625 C 267.492188 593.226562 265.4375 591.171875 262.898438 591.171875 C 260.363281 591.171875 258.304688 593.226562 258.304688 595.765625 C 258.304688 598.300781 260.363281 600.355469 262.898438 600.355469 Z M 235.339844 600.355469 C 237.878906 600.355469 239.933594 598.300781 239.933594 595.765625 C 239.933594 593.226562 237.878906 591.171875 235.339844 591.171875 C 232.804688 591.171875 230.75 593.226562 230.75 595.765625 C 230.75 598.300781 232.804688 600.355469 235.339844 600.355469 Z M 249.121094 600.355469 C 251.65625 600.355469 253.714844 598.300781 253.714844 595.765625 C 253.714844 593.226562 251.65625 591.171875 249.121094 591.171875 C 246.582031 591.171875 244.527344 593.226562 244.527344 595.765625 C 244.527344 598.300781 246.582031 600.355469 249.121094 600.355469 Z M 249.121094 600.355469 "/></g><g clip-rule="nonzero" clip-path="url(#903036e011)"><path style=" stroke:none;fill-rule:nonzero;fill:#9b18d4;fill-opacity:1;" d="M 300.257812 206.339844 L 308.566406 220.6875 L 291.953125 220.6875 Z M 300.257812 206.339844 "/></g><g clip-rule="nonzero" clip-path="url(#150e0eba72)"><path style=" stroke:none;fill-rule:nonzero;fill:#9b18d4;fill-opacity:1;" d="M 300.566406 191.382812 L 308.871094 205.730469 L 292.253906 205.730469 Z M 300.566406 191.382812 "/></g><g clip-rule="nonzero" clip-path="url(#d7f6b939c3)"><path style=" stroke:none;fill-rule:nonzero;fill:#9b18d4;fill-opacity:1;" d="M 300.566406 176.582031 L 308.871094 190.933594 L 292.253906 190.933594 Z M 300.566406 176.582031 "/></g><g clip-rule="nonzero" clip-path="url(#c938a74e5e)"><path style=" stroke:none;fill-rule:nonzero;fill:#000000;fill-opacity:1;" d="M 305.398438 219.019531 L 287.203125 219.019531 L 296.300781 203.304688 Z M 288.785156 218.109375 L 303.816406 218.109375 L 296.300781 205.125 Z M 288.785156 218.109375 "/></g><g clip-rule="nonzero" clip-path="url(#7221311f09)"><path style=" stroke:none;fill-rule:nonzero;fill:#000000;fill-opacity:1;" d="M 305.703125 204.0625 L 287.503906 204.0625 L 296.605469 188.347656 Z M 289.089844 203.152344 L 304.125 203.152344 L 296.605469 190.167969 Z M 289.089844 203.152344 "/></g><g clip-rule="nonzero" clip-path="url(#dc567cb2ab)"><path style=" stroke:none;fill-rule:nonzero;fill:#000000;fill-opacity:1;" d="M 305.703125 189.261719 L 287.503906 189.261719 L 296.605469 173.546875 Z M 289.089844 188.351562 L 304.125 188.351562 L 296.605469 175.367188 Z M 289.089844 188.351562 "/></g><g clip-rule="nonzero" clip-path="url(#9c5971e5dd)"><path style=" stroke:none;fill-rule:nonzero;fill:#9b18d4;fill-opacity:1;" d="M 7.476562 624.425781 C 7.476562 624.628906 7.441406 624.820312 7.363281 625.007812 C 7.285156 625.191406 7.175781 625.355469 7.035156 625.5 C 6.890625 625.640625 6.730469 625.75 6.542969 625.828125 C 6.355469 625.902344 6.164062 625.941406 5.964844 625.941406 C 5.761719 625.941406 5.570312 625.902344 5.382812 625.828125 C 5.199219 625.75 5.035156 625.640625 4.890625 625.5 C 4.75 625.355469 4.640625 625.191406 4.5625 625.007812 C 4.488281 624.820312 4.449219 624.628906 4.449219 624.425781 C 4.449219 624.226562 4.488281 624.03125 4.5625 623.847656 C 4.640625 623.660156 4.75 623.496094 4.890625 623.355469 C 5.035156 623.214844 5.199219 623.105469 5.382812 623.027344 C 5.570312 622.949219 5.761719 622.914062 5.964844 622.914062 C 6.164062 622.914062 6.355469 622.949219 6.542969 623.027344 C 6.730469 623.105469 6.890625 623.214844 7.035156 623.355469 C 7.175781 623.496094 7.285156 623.660156 7.363281 623.847656 C 7.441406 624.03125 7.476562 624.226562 7.476562 624.425781 Z M 7.476562 624.425781 "/></g><g clip-rule="nonzero" clip-path="url(#40c28ea987)"><path style=" stroke:none;fill-rule:nonzero;fill:#9b18d4;fill-opacity:1;" d="M 16.246094 624.425781 C 16.246094 624.628906 16.207031 624.820312 16.128906 625.007812 C 16.050781 625.191406 15.941406 625.355469 15.800781 625.5 C 15.660156 625.640625 15.496094 625.75 15.308594 625.828125 C 15.125 625.902344 14.929688 625.941406 14.730469 625.941406 C 14.527344 625.941406 14.335938 625.902344 14.148438 625.828125 C 13.964844 625.75 13.800781 625.640625 13.660156 625.5 C 13.515625 625.355469 13.40625 625.191406 13.332031 625.007812 C 13.253906 624.820312 13.214844 624.628906 13.214844 624.425781 C 13.214844 624.226562 13.253906 624.03125 13.332031 623.847656 C 13.40625 623.660156 13.515625 623.496094 13.660156 623.355469 C 13.800781 623.214844 13.964844 623.105469 14.148438 623.027344 C 14.335938 622.949219 14.527344 622.914062 14.730469 622.914062 C 14.929688 622.914062 15.125 622.949219 15.308594 623.027344 C 15.496094 623.105469 15.660156 623.214844 15.800781 623.355469 C 15.941406 623.496094 16.050781 623.660156 16.128906 623.847656 C 16.207031 624.03125 16.246094 624.226562 16.246094 624.425781 Z M 16.246094 624.425781 "/></g><g clip-rule="nonzero" clip-path="url(#f9beddd081)"><path style=" stroke:none;fill-rule:nonzero;fill:#9b18d4;fill-opacity:1;" d="M 25.011719 624.425781 C 25.011719 624.628906 24.972656 624.820312 24.894531 625.007812 C 24.820312 625.191406 24.710938 625.355469 24.566406 625.5 C 24.425781 625.640625 24.261719 625.75 24.078125 625.828125 C 23.890625 625.902344 23.699219 625.941406 23.496094 625.941406 C 23.296875 625.941406 23.101562 625.902344 22.917969 625.828125 C 22.730469 625.75 22.566406 625.640625 22.425781 625.5 C 22.285156 625.355469 22.175781 625.191406 22.097656 625.007812 C 22.019531 624.820312 21.980469 624.628906 21.980469 624.425781 C 21.980469 624.226562 22.019531 624.03125 22.097656 623.847656 C 22.175781 623.660156 22.285156 623.496094 22.425781 623.355469 C 22.566406 623.214844 22.730469 623.105469 22.917969 623.027344 C 23.101562 622.949219 23.296875 622.914062 23.496094 622.914062 C 23.699219 622.914062 23.890625 622.949219 24.078125 623.027344 C 24.261719 623.105469 24.425781 623.214844 24.566406 623.355469 C 24.710938 623.496094 24.820312 623.660156 24.894531 623.847656 C 24.972656 624.03125 25.011719 624.226562 25.011719 624.425781 Z M 25.011719 624.425781 "/></g><g clip-rule="nonzero" clip-path="url(#8ba13dc40b)"><path style=" stroke:none;fill-rule:nonzero;fill:#9b18d4;fill-opacity:1;" d="M 33.777344 624.425781 C 33.777344 624.628906 33.738281 624.820312 33.664062 625.007812 C 33.585938 625.191406 33.476562 625.355469 33.335938 625.5 C 33.191406 625.640625 33.027344 625.75 32.84375 625.828125 C 32.65625 625.902344 32.464844 625.941406 32.261719 625.941406 C 32.0625 625.941406 31.871094 625.902344 31.683594 625.828125 C 31.496094 625.75 31.335938 625.640625 31.191406 625.5 C 31.050781 625.355469 30.941406 625.191406 30.863281 625.007812 C 30.785156 624.820312 30.75 624.628906 30.75 624.425781 C 30.75 624.226562 30.785156 624.03125 30.863281 623.847656 C 30.941406 623.660156 31.050781 623.496094 31.191406 623.355469 C 31.335938 623.214844 31.496094 623.105469 31.683594 623.027344 C 31.871094 622.949219 32.0625 622.914062 32.261719 622.914062 C 32.464844 622.914062 32.65625 622.949219 32.84375 623.027344 C 33.027344 623.105469 33.191406 623.214844 33.335938 623.355469 C 33.476562 623.496094 33.585938 623.660156 33.664062 623.847656 C 33.738281 624.03125 33.777344 624.226562 33.777344 624.425781 Z M 33.777344 624.425781 "/></g><g clip-rule="nonzero" clip-path="url(#151d600cd6)"><path style=" stroke:none;fill-rule:nonzero;fill:#9b18d4;fill-opacity:1;" d="M 42.542969 624.425781 C 42.542969 624.628906 42.507812 624.820312 42.429688 625.007812 C 42.351562 625.191406 42.242188 625.355469 42.101562 625.5 C 41.960938 625.640625 41.796875 625.75 41.609375 625.828125 C 41.425781 625.902344 41.230469 625.941406 41.03125 625.941406 C 40.828125 625.941406 40.636719 625.902344 40.449219 625.828125 C 40.265625 625.75 40.101562 625.640625 39.957031 625.5 C 39.816406 625.355469 39.707031 625.191406 39.628906 625.007812 C 39.554688 624.820312 39.515625 624.628906 39.515625 624.425781 C 39.515625 624.226562 39.554688 624.03125 39.628906 623.847656 C 39.707031 623.660156 39.816406 623.496094 39.957031 623.355469 C 40.101562 623.214844 40.265625 623.105469 40.449219 623.027344 C 40.636719 622.949219 40.828125 622.914062 41.03125 622.914062 C 41.230469 622.914062 41.425781 622.949219 41.609375 623.027344 C 41.796875 623.105469 41.960938 623.214844 42.101562 623.355469 C 42.242188 623.496094 42.351562 623.660156 42.429688 623.847656 C 42.507812 624.03125 42.542969 624.226562 42.542969 624.425781 Z M 42.542969 624.425781 "/></g><g clip-rule="nonzero" clip-path="url(#d1eee0cb2f)"><path style=" stroke:none;fill-rule:nonzero;fill:#9b18d4;fill-opacity:1;" d="M 7.476562 633.195312 C 7.476562 633.394531 7.441406 633.585938 7.363281 633.773438 C 7.285156 633.960938 7.175781 634.121094 7.035156 634.265625 C 6.890625 634.40625 6.730469 634.515625 6.542969 634.59375 C 6.355469 634.671875 6.164062 634.707031 5.964844 634.707031 C 5.761719 634.707031 5.570312 634.671875 5.382812 634.59375 C 5.199219 634.515625 5.035156 634.40625 4.890625 634.265625 C 4.75 634.121094 4.640625 633.960938 4.5625 633.773438 C 4.488281 633.585938 4.449219 633.394531 4.449219 633.195312 C 4.449219 632.992188 4.488281 632.800781 4.5625 632.613281 C 4.640625 632.429688 4.75 632.265625 4.890625 632.121094 C 5.035156 631.980469 5.199219 631.871094 5.382812 631.792969 C 5.570312 631.71875 5.761719 631.679688 5.964844 631.679688 C 6.164062 631.679688 6.355469 631.71875 6.542969 631.792969 C 6.730469 631.871094 6.890625 631.980469 7.035156 632.121094 C 7.175781 632.265625 7.285156 632.429688 7.363281 632.613281 C 7.441406 632.800781 7.476562 632.992188 7.476562 633.195312 Z M 7.476562 633.195312 "/></g><path style=" stroke:none;fill-rule:nonzero;fill:#9b18d4;fill-opacity:1;" d="M 16.246094 633.195312 C 16.246094 633.394531 16.207031 633.585938 16.128906 633.773438 C 16.050781 633.960938 15.941406 634.121094 15.800781 634.265625 C 15.660156 634.40625 15.496094 634.515625 15.308594 634.59375 C 15.125 634.671875 14.929688 634.707031 14.730469 634.707031 C 14.527344 634.707031 14.335938 634.671875 14.148438 634.59375 C 13.964844 634.515625 13.800781 634.40625 13.660156 634.265625 C 13.515625 634.121094 13.40625 633.960938 13.332031 633.773438 C 13.253906 633.585938 13.214844 633.394531 13.214844 633.195312 C 13.214844 632.992188 13.253906 632.800781 13.332031 632.613281 C 13.40625 632.429688 13.515625 632.265625 13.660156 632.121094 C 13.800781 631.980469 13.964844 631.871094 14.148438 631.792969 C 14.335938 631.71875 14.527344 631.679688 14.730469 631.679688 C 14.929688 631.679688 15.125 631.71875 15.308594 631.792969 C 15.496094 631.871094 15.660156 631.980469 15.800781 632.121094 C 15.941406 632.265625 16.050781 632.429688 16.128906 632.613281 C 16.207031 632.800781 16.246094 632.992188 16.246094 633.195312 Z M 16.246094 633.195312 "/><path style=" stroke:none;fill-rule:nonzero;fill:#9b18d4;fill-opacity:1;" d="M 25.011719 633.195312 C 25.011719 633.394531 24.972656 633.585938 24.894531 633.773438 C 24.820312 633.960938 24.710938 634.121094 24.566406 634.265625 C 24.425781 634.40625 24.261719 634.515625 24.078125 634.59375 C 23.890625 634.671875 23.699219 634.707031 23.496094 634.707031 C 23.296875 634.707031 23.101562 634.671875 22.917969 634.59375 C 22.730469 634.515625 22.566406 634.40625 22.425781 634.265625 C 22.285156 634.121094 22.175781 633.960938 22.097656 633.773438 C 22.019531 633.585938 21.980469 633.394531 21.980469 633.195312 C 21.980469 632.992188 22.019531 632.800781 22.097656 632.613281 C 22.175781 632.429688 22.285156 632.265625 22.425781 632.121094 C 22.566406 631.980469 22.730469 631.871094 22.917969 631.792969 C 23.101562 631.71875 23.296875 631.679688 23.496094 631.679688 C 23.699219 631.679688 23.890625 631.71875 24.078125 631.792969 C 24.261719 631.871094 24.425781 631.980469 24.566406 632.121094 C 24.710938 632.265625 24.820312 632.429688 24.894531 632.613281 C 24.972656 632.800781 25.011719 632.992188 25.011719 633.195312 Z M 25.011719 633.195312 "/><path style=" stroke:none;fill-rule:nonzero;fill:#9b18d4;fill-opacity:1;" d="M 33.777344 633.195312 C 33.777344 633.394531 33.738281 633.585938 33.664062 633.773438 C 33.585938 633.960938 33.476562 634.121094 33.335938 634.265625 C 33.191406 634.40625 33.027344 634.515625 32.84375 634.59375 C 32.65625 634.671875 32.464844 634.707031 32.261719 634.707031 C 32.0625 634.707031 31.871094 634.671875 31.683594 634.59375 C 31.496094 634.515625 31.335938 634.40625 31.191406 634.265625 C 31.050781 634.121094 30.941406 633.960938 30.863281 633.773438 C 30.785156 633.585938 30.75 633.394531 30.75 633.195312 C 30.75 632.992188 30.785156 632.800781 30.863281 632.613281 C 30.941406 632.429688 31.050781 632.265625 31.191406 632.121094 C 31.335938 631.980469 31.496094 631.871094 31.683594 631.792969 C 31.871094 631.71875 32.0625 631.679688 32.261719 631.679688 C 32.464844 631.679688 32.65625 631.71875 32.84375 631.792969 C 33.027344 631.871094 33.191406 631.980469 33.335938 632.121094 C 33.476562 632.265625 33.585938 632.429688 33.664062 632.613281 C 33.738281 632.800781 33.777344 632.992188 33.777344 633.195312 Z M 33.777344 633.195312 "/><path style=" stroke:none;fill-rule:nonzero;fill:#9b18d4;fill-opacity:1;" d="M 42.542969 633.195312 C 42.542969 633.394531 42.507812 633.585938 42.429688 633.773438 C 42.351562 633.960938 42.242188 634.121094 42.101562 634.265625 C 41.960938 634.40625 41.796875 634.515625 41.609375 634.59375 C 41.425781 634.671875 41.230469 634.707031 41.03125 634.707031 C 40.828125 634.707031 40.636719 634.671875 40.449219 634.59375 C 40.265625 634.515625 40.101562 634.40625 39.957031 634.265625 C 39.816406 634.121094 39.707031 633.960938 39.628906 633.773438 C 39.554688 633.585938 39.515625 633.394531 39.515625 633.195312 C 39.515625 632.992188 39.554688 632.800781 39.628906 632.613281 C 39.707031 632.429688 39.816406 632.265625 39.957031 632.121094 C 40.101562 631.980469 40.265625 631.871094 40.449219 631.792969 C 40.636719 631.71875 40.828125 631.679688 41.03125 631.679688 C 41.230469 631.679688 41.425781 631.71875 41.609375 631.792969 C 41.796875 631.871094 41.960938 631.980469 42.101562 632.121094 C 42.242188 632.265625 42.351562 632.429688 42.429688 632.613281 C 42.507812 632.800781 42.542969 632.992188 42.542969 633.195312 Z M 42.542969 633.195312 "/><g clip-rule="nonzero" clip-path="url(#8c01a86360)"><path style=" stroke:none;fill-rule:nonzero;fill:#9b18d4;fill-opacity:1;" d="M 7.476562 641.960938 C 7.476562 642.160156 7.441406 642.355469 7.363281 642.539062 C 7.285156 642.726562 7.175781 642.890625 7.035156 643.03125 C 6.890625 643.171875 6.730469 643.28125 6.542969 643.359375 C 6.355469 643.4375 6.164062 643.476562 5.964844 643.476562 C 5.761719 643.476562 5.570312 643.4375 5.382812 643.359375 C 5.199219 643.28125 5.035156 643.171875 4.890625 643.03125 C 4.75 642.890625 4.640625 642.726562 4.5625 642.539062 C 4.488281 642.355469 4.449219 642.160156 4.449219 641.960938 C 4.449219 641.757812 4.488281 641.566406 4.5625 641.378906 C 4.640625 641.195312 4.75 641.03125 4.890625 640.890625 C 5.035156 640.746094 5.199219 640.636719 5.382812 640.5625 C 5.570312 640.484375 5.761719 640.445312 5.964844 640.445312 C 6.164062 640.445312 6.355469 640.484375 6.542969 640.5625 C 6.730469 640.636719 6.890625 640.746094 7.035156 640.890625 C 7.175781 641.03125 7.285156 641.195312 7.363281 641.378906 C 7.441406 641.566406 7.476562 641.757812 7.476562 641.960938 Z M 7.476562 641.960938 "/></g><path style=" stroke:none;fill-rule:nonzero;fill:#9b18d4;fill-opacity:1;" d="M 16.246094 641.960938 C 16.246094 642.160156 16.207031 642.355469 16.128906 642.539062 C 16.050781 642.726562 15.941406 642.890625 15.800781 643.03125 C 15.660156 643.171875 15.496094 643.28125 15.308594 643.359375 C 15.125 643.4375 14.929688 643.476562 14.730469 643.476562 C 14.527344 643.476562 14.335938 643.4375 14.148438 643.359375 C 13.964844 643.28125 13.800781 643.171875 13.660156 643.03125 C 13.515625 642.890625 13.40625 642.726562 13.332031 642.539062 C 13.253906 642.355469 13.214844 642.160156 13.214844 641.960938 C 13.214844 641.757812 13.253906 641.566406 13.332031 641.378906 C 13.40625 641.195312 13.515625 641.03125 13.660156 640.890625 C 13.800781 640.746094 13.964844 640.636719 14.148438 640.5625 C 14.335938 640.484375 14.527344 640.445312 14.730469 640.445312 C 14.929688 640.445312 15.125 640.484375 15.308594 640.5625 C 15.496094 640.636719 15.660156 640.746094 15.800781 640.890625 C 15.941406 641.03125 16.050781 641.195312 16.128906 641.378906 C 16.207031 641.566406 16.246094 641.757812 16.246094 641.960938 Z M 16.246094 641.960938 "/><path style=" stroke:none;fill-rule:nonzero;fill:#9b18d4;fill-opacity:1;" d="M 25.011719 641.960938 C 25.011719 642.160156 24.972656 642.355469 24.894531 642.539062 C 24.820312 642.726562 24.710938 642.890625 24.566406 643.03125 C 24.425781 643.171875 24.261719 643.28125 24.078125 643.359375 C 23.890625 643.4375 23.699219 643.476562 23.496094 643.476562 C 23.296875 643.476562 23.101562 643.4375 22.917969 643.359375 C 22.730469 643.28125 22.566406 643.171875 22.425781 643.03125 C 22.285156 642.890625 22.175781 642.726562 22.097656 642.539062 C 22.019531 642.355469 21.980469 642.160156 21.980469 641.960938 C 21.980469 641.757812 22.019531 641.566406 22.097656 641.378906 C 22.175781 641.195312 22.285156 641.03125 22.425781 640.890625 C 22.566406 640.746094 22.730469 640.636719 22.917969 640.5625 C 23.101562 640.484375 23.296875 640.445312 23.496094 640.445312 C 23.699219 640.445312 23.890625 640.484375 24.078125 640.5625 C 24.261719 640.636719 24.425781 640.746094 24.566406 640.890625 C 24.710938 641.03125 24.820312 641.195312 24.894531 641.378906 C 24.972656 641.566406 25.011719 641.757812 25.011719 641.960938 Z M 25.011719 641.960938 "/><path style=" stroke:none;fill-rule:nonzero;fill:#9b18d4;fill-opacity:1;" d="M 33.777344 641.960938 C 33.777344 642.160156 33.738281 642.355469 33.664062 642.539062 C 33.585938 642.726562 33.476562 642.890625 33.335938 643.03125 C 33.191406 643.171875 33.027344 643.28125 32.84375 643.359375 C 32.65625 643.4375 32.464844 643.476562 32.261719 643.476562 C 32.0625 643.476562 31.871094 643.4375 31.683594 643.359375 C 31.496094 643.28125 31.335938 643.171875 31.191406 643.03125 C 31.050781 642.890625 30.941406 642.726562 30.863281 642.539062 C 30.785156 642.355469 30.75 642.160156 30.75 641.960938 C 30.75 641.757812 30.785156 641.566406 30.863281 641.378906 C 30.941406 641.195312 31.050781 641.03125 31.191406 640.890625 C 31.335938 640.746094 31.496094 640.636719 31.683594 640.5625 C 31.871094 640.484375 32.0625 640.445312 32.261719 640.445312 C 32.464844 640.445312 32.65625 640.484375 32.84375 640.5625 C 33.027344 640.636719 33.191406 640.746094 33.335938 640.890625 C 33.476562 641.03125 33.585938 641.195312 33.664062 641.378906 C 33.738281 641.566406 33.777344 641.757812 33.777344 641.960938 Z M 33.777344 641.960938 "/><path style=" stroke:none;fill-rule:nonzero;fill:#9b18d4;fill-opacity:1;" d="M 42.542969 641.960938 C 42.542969 642.160156 42.507812 642.355469 42.429688 642.539062 C 42.351562 642.726562 42.242188 642.890625 42.101562 643.03125 C 41.960938 643.171875 41.796875 643.28125 41.609375 643.359375 C 41.425781 643.4375 41.230469 643.476562 41.03125 643.476562 C 40.828125 643.476562 40.636719 643.4375 40.449219 643.359375 C 40.265625 643.28125 40.101562 643.171875 39.957031 643.03125 C 39.816406 642.890625 39.707031 642.726562 39.628906 642.539062 C 39.554688 642.355469 39.515625 642.160156 39.515625 641.960938 C 39.515625 641.757812 39.554688 641.566406 39.628906 641.378906 C 39.707031 641.195312 39.816406 641.03125 39.957031 640.890625 C 40.101562 640.746094 40.265625 640.636719 40.449219 640.5625 C 40.636719 640.484375 40.828125 640.445312 41.03125 640.445312 C 41.230469 640.445312 41.425781 640.484375 41.609375 640.5625 C 41.796875 640.636719 41.960938 640.746094 42.101562 640.890625 C 42.242188 641.03125 42.351562 641.195312 42.429688 641.378906 C 42.507812 641.566406 42.542969 641.757812 42.542969 641.960938 Z M 42.542969 641.960938 "/><g clip-rule="nonzero" clip-path="url(#3506ae4f98)"><path style=" stroke:none;fill-rule:nonzero;fill:#9b18d4;fill-opacity:1;" d="M 7.476562 650.726562 C 7.476562 650.929688 7.441406 651.121094 7.363281 651.308594 C 7.285156 651.492188 7.175781 651.65625 7.035156 651.796875 C 6.890625 651.941406 6.730469 652.050781 6.542969 652.125 C 6.355469 652.203125 6.164062 652.242188 5.964844 652.242188 C 5.761719 652.242188 5.570312 652.203125 5.382812 652.125 C 5.199219 652.050781 5.035156 651.941406 4.890625 651.796875 C 4.75 651.65625 4.640625 651.492188 4.5625 651.308594 C 4.488281 651.121094 4.449219 650.929688 4.449219 650.726562 C 4.449219 650.527344 4.488281 650.332031 4.5625 650.148438 C 4.640625 649.960938 4.75 649.796875 4.890625 649.65625 C 5.035156 649.515625 5.199219 649.40625 5.382812 649.328125 C 5.570312 649.25 5.761719 649.210938 5.964844 649.210938 C 6.164062 649.210938 6.355469 649.25 6.542969 649.328125 C 6.730469 649.40625 6.890625 649.515625 7.035156 649.65625 C 7.175781 649.796875 7.285156 649.960938 7.363281 650.148438 C 7.441406 650.332031 7.476562 650.527344 7.476562 650.726562 Z M 7.476562 650.726562 "/></g><path style=" stroke:none;fill-rule:nonzero;fill:#9b18d4;fill-opacity:1;" d="M 16.246094 650.726562 C 16.246094 650.929688 16.207031 651.121094 16.128906 651.308594 C 16.050781 651.492188 15.941406 651.65625 15.800781 651.796875 C 15.660156 651.941406 15.496094 652.050781 15.308594 652.125 C 15.125 652.203125 14.929688 652.242188 14.730469 652.242188 C 14.527344 652.242188 14.335938 652.203125 14.148438 652.125 C 13.964844 652.050781 13.800781 651.941406 13.660156 651.796875 C 13.515625 651.65625 13.40625 651.492188 13.332031 651.308594 C 13.253906 651.121094 13.214844 650.929688 13.214844 650.726562 C 13.214844 650.527344 13.253906 650.332031 13.332031 650.148438 C 13.40625 649.960938 13.515625 649.796875 13.660156 649.65625 C 13.800781 649.515625 13.964844 649.40625 14.148438 649.328125 C 14.335938 649.25 14.527344 649.210938 14.730469 649.210938 C 14.929688 649.210938 15.125 649.25 15.308594 649.328125 C 15.496094 649.40625 15.660156 649.515625 15.800781 649.65625 C 15.941406 649.796875 16.050781 649.960938 16.128906 650.148438 C 16.207031 650.332031 16.246094 650.527344 16.246094 650.726562 Z M 16.246094 650.726562 "/><path style=" stroke:none;fill-rule:nonzero;fill:#9b18d4;fill-opacity:1;" d="M 25.011719 650.726562 C 25.011719 650.929688 24.972656 651.121094 24.894531 651.308594 C 24.820312 651.492188 24.710938 651.65625 24.566406 651.796875 C 24.425781 651.941406 24.261719 652.050781 24.078125 652.125 C 23.890625 652.203125 23.699219 652.242188 23.496094 652.242188 C 23.296875 652.242188 23.101562 652.203125 22.917969 652.125 C 22.730469 652.050781 22.566406 651.941406 22.425781 651.796875 C 22.285156 651.65625 22.175781 651.492188 22.097656 651.308594 C 22.019531 651.121094 21.980469 650.929688 21.980469 650.726562 C 21.980469 650.527344 22.019531 650.332031 22.097656 650.148438 C 22.175781 649.960938 22.285156 649.796875 22.425781 649.65625 C 22.566406 649.515625 22.730469 649.40625 22.917969 649.328125 C 23.101562 649.25 23.296875 649.210938 23.496094 649.210938 C 23.699219 649.210938 23.890625 649.25 24.078125 649.328125 C 24.261719 649.40625 24.425781 649.515625 24.566406 649.65625 C 24.710938 649.796875 24.820312 649.960938 24.894531 650.148438 C 24.972656 650.332031 25.011719 650.527344 25.011719 650.726562 Z M 25.011719 650.726562 "/><path style=" stroke:none;fill-rule:nonzero;fill:#9b18d4;fill-opacity:1;" d="M 33.777344 650.726562 C 33.777344 650.929688 33.738281 651.121094 33.664062 651.308594 C 33.585938 651.492188 33.476562 651.65625 33.335938 651.796875 C 33.191406 651.941406 33.027344 652.050781 32.84375 652.125 C 32.65625 652.203125 32.464844 652.242188 32.261719 652.242188 C 32.0625 652.242188 31.871094 652.203125 31.683594 652.125 C 31.496094 652.050781 31.335938 651.941406 31.191406 651.796875 C 31.050781 651.65625 30.941406 651.492188 30.863281 651.308594 C 30.785156 651.121094 30.75 650.929688 30.75 650.726562 C 30.75 650.527344 30.785156 650.332031 30.863281 650.148438 C 30.941406 649.960938 31.050781 649.796875 31.191406 649.65625 C 31.335938 649.515625 31.496094 649.40625 31.683594 649.328125 C 31.871094 649.25 32.0625 649.210938 32.261719 649.210938 C 32.464844 649.210938 32.65625 649.25 32.84375 649.328125 C 33.027344 649.40625 33.191406 649.515625 33.335938 649.65625 C 33.476562 649.796875 33.585938 649.960938 33.664062 650.148438 C 33.738281 650.332031 33.777344 650.527344 33.777344 650.726562 Z M 33.777344 650.726562 "/><path style=" stroke:none;fill-rule:nonzero;fill:#9b18d4;fill-opacity:1;" d="M 42.542969 650.726562 C 42.542969 650.929688 42.507812 651.121094 42.429688 651.308594 C 42.351562 651.492188 42.242188 651.65625 42.101562 651.796875 C 41.960938 651.941406 41.796875 652.050781 41.609375 652.125 C 41.425781 652.203125 41.230469 652.242188 41.03125 652.242188 C 40.828125 652.242188 40.636719 652.203125 40.449219 652.125 C 40.265625 652.050781 40.101562 651.941406 39.957031 651.796875 C 39.816406 651.65625 39.707031 651.492188 39.628906 651.308594 C 39.554688 651.121094 39.515625 650.929688 39.515625 650.726562 C 39.515625 650.527344 39.554688 650.332031 39.628906 650.148438 C 39.707031 649.960938 39.816406 649.796875 39.957031 649.65625 C 40.101562 649.515625 40.265625 649.40625 40.449219 649.328125 C 40.636719 649.25 40.828125 649.210938 41.03125 649.210938 C 41.230469 649.210938 41.425781 649.25 41.609375 649.328125 C 41.796875 649.40625 41.960938 649.515625 42.101562 649.65625 C 42.242188 649.796875 42.351562 649.960938 42.429688 650.148438 C 42.507812 650.332031 42.542969 650.527344 42.542969 650.726562 Z M 42.542969 650.726562 "/><path style=" stroke:none;fill-rule:nonzero;fill:#9b18d4;fill-opacity:1;" d="M 51.3125 650.726562 C 51.3125 650.929688 51.273438 651.121094 51.195312 651.308594 C 51.121094 651.492188 51.011719 651.65625 50.867188 651.796875 C 50.726562 651.941406 50.5625 652.050781 50.375 652.125 C 50.191406 652.203125 49.996094 652.242188 49.796875 652.242188 C 49.597656 652.242188 49.402344 652.203125 49.21875 652.125 C 49.03125 652.050781 48.867188 651.941406 48.726562 651.796875 C 48.582031 651.65625 48.472656 651.492188 48.398438 651.308594 C 48.320312 651.121094 48.28125 650.929688 48.28125 650.726562 C 48.28125 650.527344 48.320312 650.332031 48.398438 650.148438 C 48.472656 649.960938 48.582031 649.796875 48.726562 649.65625 C 48.867188 649.515625 49.03125 649.40625 49.21875 649.328125 C 49.402344 649.25 49.597656 649.210938 49.796875 649.210938 C 49.996094 649.210938 50.191406 649.25 50.375 649.328125 C 50.5625 649.40625 50.726562 649.515625 50.867188 649.65625 C 51.011719 649.796875 51.121094 649.960938 51.195312 650.148438 C 51.273438 650.332031 51.3125 650.527344 51.3125 650.726562 Z M 51.3125 650.726562 "/><path style=" stroke:none;fill-rule:nonzero;fill:#9b18d4;fill-opacity:1;" d="M 60.078125 650.726562 C 60.078125 650.929688 60.039062 651.121094 59.964844 651.308594 C 59.886719 651.492188 59.777344 651.65625 59.632812 651.796875 C 59.492188 651.941406 59.328125 652.050781 59.144531 652.125 C 58.957031 652.203125 58.765625 652.242188 58.5625 652.242188 C 58.363281 652.242188 58.167969 652.203125 57.984375 652.125 C 57.796875 652.050781 57.632812 651.941406 57.492188 651.796875 C 57.351562 651.65625 57.242188 651.492188 57.164062 651.308594 C 57.085938 651.121094 57.046875 650.929688 57.046875 650.726562 C 57.046875 650.527344 57.085938 650.332031 57.164062 650.148438 C 57.242188 649.960938 57.351562 649.796875 57.492188 649.65625 C 57.632812 649.515625 57.796875 649.40625 57.984375 649.328125 C 58.167969 649.25 58.363281 649.210938 58.5625 649.210938 C 58.765625 649.210938 58.957031 649.25 59.144531 649.328125 C 59.328125 649.40625 59.492188 649.515625 59.632812 649.65625 C 59.777344 649.796875 59.886719 649.960938 59.964844 650.148438 C 60.039062 650.332031 60.078125 650.527344 60.078125 650.726562 Z M 60.078125 650.726562 "/><g clip-rule="nonzero" clip-path="url(#c5962de08a)"><path style=" stroke:none;fill-rule:nonzero;fill:#9b18d4;fill-opacity:1;" d="M 68.84375 650.726562 C 68.84375 650.929688 68.804688 651.121094 68.730469 651.308594 C 68.652344 651.492188 68.542969 651.65625 68.402344 651.796875 C 68.257812 651.941406 68.09375 652.050781 67.910156 652.125 C 67.722656 652.203125 67.53125 652.242188 67.332031 652.242188 C 67.128906 652.242188 66.9375 652.203125 66.75 652.125 C 66.566406 652.050781 66.402344 651.941406 66.257812 651.796875 C 66.117188 651.65625 66.007812 651.492188 65.929688 651.308594 C 65.855469 651.121094 65.816406 650.929688 65.816406 650.726562 C 65.816406 650.527344 65.855469 650.332031 65.929688 650.148438 C 66.007812 649.960938 66.117188 649.796875 66.257812 649.65625 C 66.402344 649.515625 66.566406 649.40625 66.75 649.328125 C 66.9375 649.25 67.128906 649.210938 67.332031 649.210938 C 67.53125 649.210938 67.722656 649.25 67.910156 649.328125 C 68.09375 649.40625 68.257812 649.515625 68.402344 649.65625 C 68.542969 649.796875 68.652344 649.960938 68.730469 650.148438 C 68.804688 650.332031 68.84375 650.527344 68.84375 650.726562 Z M 68.84375 650.726562 "/></g><g clip-rule="nonzero" clip-path="url(#4d34f8bfa6)"><path style=" stroke:none;fill-rule:nonzero;fill:#9b18d4;fill-opacity:1;" d="M 7.476562 659.492188 C 7.476562 659.695312 7.441406 659.886719 7.363281 660.074219 C 7.285156 660.257812 7.175781 660.421875 7.035156 660.566406 C 6.890625 660.707031 6.730469 660.816406 6.542969 660.894531 C 6.355469 660.96875 6.164062 661.007812 5.964844 661.007812 C 5.761719 661.007812 5.570312 660.96875 5.382812 660.894531 C 5.199219 660.816406 5.035156 660.707031 4.890625 660.566406 C 4.75 660.421875 4.640625 660.257812 4.5625 660.074219 C 4.488281 659.886719 4.449219 659.695312 4.449219 659.492188 C 4.449219 659.292969 4.488281 659.101562 4.5625 658.914062 C 4.640625 658.726562 4.75 658.566406 4.890625 658.421875 C 5.035156 658.28125 5.199219 658.171875 5.382812 658.09375 C 5.570312 658.015625 5.761719 657.980469 5.964844 657.980469 C 6.164062 657.980469 6.355469 658.015625 6.542969 658.09375 C 6.730469 658.171875 6.890625 658.28125 7.035156 658.421875 C 7.175781 658.566406 7.285156 658.726562 7.363281 658.914062 C 7.441406 659.101562 7.476562 659.292969 7.476562 659.492188 Z M 7.476562 659.492188 "/></g><path style=" stroke:none;fill-rule:nonzero;fill:#9b18d4;fill-opacity:1;" d="M 16.246094 659.492188 C 16.246094 659.695312 16.207031 659.886719 16.128906 660.074219 C 16.050781 660.257812 15.941406 660.421875 15.800781 660.566406 C 15.660156 660.707031 15.496094 660.816406 15.308594 660.894531 C 15.125 660.96875 14.929688 661.007812 14.730469 661.007812 C 14.527344 661.007812 14.335938 660.96875 14.148438 660.894531 C 13.964844 660.816406 13.800781 660.707031 13.660156 660.566406 C 13.515625 660.421875 13.40625 660.257812 13.332031 660.074219 C 13.253906 659.886719 13.214844 659.695312 13.214844 659.492188 C 13.214844 659.292969 13.253906 659.101562 13.332031 658.914062 C 13.40625 658.726562 13.515625 658.566406 13.660156 658.421875 C 13.800781 658.28125 13.964844 658.171875 14.148438 658.09375 C 14.335938 658.015625 14.527344 657.980469 14.730469 657.980469 C 14.929688 657.980469 15.125 658.015625 15.308594 658.09375 C 15.496094 658.171875 15.660156 658.28125 15.800781 658.421875 C 15.941406 658.566406 16.050781 658.726562 16.128906 658.914062 C 16.207031 659.101562 16.246094 659.292969 16.246094 659.492188 Z M 16.246094 659.492188 "/><path style=" stroke:none;fill-rule:nonzero;fill:#9b18d4;fill-opacity:1;" d="M 25.011719 659.492188 C 25.011719 659.695312 24.972656 659.886719 24.894531 660.074219 C 24.820312 660.257812 24.710938 660.421875 24.566406 660.566406 C 24.425781 660.707031 24.261719 660.816406 24.078125 660.894531 C 23.890625 660.96875 23.699219 661.007812 23.496094 661.007812 C 23.296875 661.007812 23.101562 660.96875 22.917969 660.894531 C 22.730469 660.816406 22.566406 660.707031 22.425781 660.566406 C 22.285156 660.421875 22.175781 660.257812 22.097656 660.074219 C 22.019531 659.886719 21.980469 659.695312 21.980469 659.492188 C 21.980469 659.292969 22.019531 659.101562 22.097656 658.914062 C 22.175781 658.726562 22.285156 658.566406 22.425781 658.421875 C 22.566406 658.28125 22.730469 658.171875 22.917969 658.09375 C 23.101562 658.015625 23.296875 657.980469 23.496094 657.980469 C 23.699219 657.980469 23.890625 658.015625 24.078125 658.09375 C 24.261719 658.171875 24.425781 658.28125 24.566406 658.421875 C 24.710938 658.566406 24.820312 658.726562 24.894531 658.914062 C 24.972656 659.101562 25.011719 659.292969 25.011719 659.492188 Z M 25.011719 659.492188 "/><path style=" stroke:none;fill-rule:nonzero;fill:#9b18d4;fill-opacity:1;" d="M 33.777344 659.492188 C 33.777344 659.695312 33.738281 659.886719 33.664062 660.074219 C 33.585938 660.257812 33.476562 660.421875 33.335938 660.566406 C 33.191406 660.707031 33.027344 660.816406 32.84375 660.894531 C 32.65625 660.96875 32.464844 661.007812 32.261719 661.007812 C 32.0625 661.007812 31.871094 660.96875 31.683594 660.894531 C 31.496094 660.816406 31.335938 660.707031 31.191406 660.566406 C 31.050781 660.421875 30.941406 660.257812 30.863281 660.074219 C 30.785156 659.886719 30.75 659.695312 30.75 659.492188 C 30.75 659.292969 30.785156 659.101562 30.863281 658.914062 C 30.941406 658.726562 31.050781 658.566406 31.191406 658.421875 C 31.335938 658.28125 31.496094 658.171875 31.683594 658.09375 C 31.871094 658.015625 32.0625 657.980469 32.261719 657.980469 C 32.464844 657.980469 32.65625 658.015625 32.84375 658.09375 C 33.027344 658.171875 33.191406 658.28125 33.335938 658.421875 C 33.476562 658.566406 33.585938 658.726562 33.664062 658.914062 C 33.738281 659.101562 33.777344 659.292969 33.777344 659.492188 Z M 33.777344 659.492188 "/><path style=" stroke:none;fill-rule:nonzero;fill:#9b18d4;fill-opacity:1;" d="M 42.542969 659.492188 C 42.542969 659.695312 42.507812 659.886719 42.429688 660.074219 C 42.351562 660.257812 42.242188 660.421875 42.101562 660.566406 C 41.960938 660.707031 41.796875 660.816406 41.609375 660.894531 C 41.425781 660.96875 41.230469 661.007812 41.03125 661.007812 C 40.828125 661.007812 40.636719 660.96875 40.449219 660.894531 C 40.265625 660.816406 40.101562 660.707031 39.957031 660.566406 C 39.816406 660.421875 39.707031 660.257812 39.628906 660.074219 C 39.554688 659.886719 39.515625 659.695312 39.515625 659.492188 C 39.515625 659.292969 39.554688 659.101562 39.628906 658.914062 C 39.707031 658.726562 39.816406 658.566406 39.957031 658.421875 C 40.101562 658.28125 40.265625 658.171875 40.449219 658.09375 C 40.636719 658.015625 40.828125 657.980469 41.03125 657.980469 C 41.230469 657.980469 41.425781 658.015625 41.609375 658.09375 C 41.796875 658.171875 41.960938 658.28125 42.101562 658.421875 C 42.242188 658.566406 42.351562 658.726562 42.429688 658.914062 C 42.507812 659.101562 42.542969 659.292969 42.542969 659.492188 Z M 42.542969 659.492188 "/><path style=" stroke:none;fill-rule:nonzero;fill:#9b18d4;fill-opacity:1;" d="M 51.3125 659.492188 C 51.3125 659.695312 51.273438 659.886719 51.195312 660.074219 C 51.121094 660.257812 51.011719 660.421875 50.867188 660.566406 C 50.726562 660.707031 50.5625 660.816406 50.375 660.894531 C 50.191406 660.96875 49.996094 661.007812 49.796875 661.007812 C 49.597656 661.007812 49.402344 660.96875 49.21875 660.894531 C 49.03125 660.816406 48.867188 660.707031 48.726562 660.566406 C 48.582031 660.421875 48.472656 660.257812 48.398438 660.074219 C 48.320312 659.886719 48.28125 659.695312 48.28125 659.492188 C 48.28125 659.292969 48.320312 659.101562 48.398438 658.914062 C 48.472656 658.726562 48.582031 658.566406 48.726562 658.421875 C 48.867188 658.28125 49.03125 658.171875 49.21875 658.09375 C 49.402344 658.015625 49.597656 657.980469 49.796875 657.980469 C 49.996094 657.980469 50.191406 658.015625 50.375 658.09375 C 50.5625 658.171875 50.726562 658.28125 50.867188 658.421875 C 51.011719 658.566406 51.121094 658.726562 51.195312 658.914062 C 51.273438 659.101562 51.3125 659.292969 51.3125 659.492188 Z M 51.3125 659.492188 "/><path style=" stroke:none;fill-rule:nonzero;fill:#9b18d4;fill-opacity:1;" d="M 60.078125 659.492188 C 60.078125 659.695312 60.039062 659.886719 59.964844 660.074219 C 59.886719 660.257812 59.777344 660.421875 59.632812 660.566406 C 59.492188 660.707031 59.328125 660.816406 59.144531 660.894531 C 58.957031 660.96875 58.765625 661.007812 58.5625 661.007812 C 58.363281 661.007812 58.167969 660.96875 57.984375 660.894531 C 57.796875 660.816406 57.632812 660.707031 57.492188 660.566406 C 57.351562 660.421875 57.242188 660.257812 57.164062 660.074219 C 57.085938 659.886719 57.046875 659.695312 57.046875 659.492188 C 57.046875 659.292969 57.085938 659.101562 57.164062 658.914062 C 57.242188 658.726562 57.351562 658.566406 57.492188 658.421875 C 57.632812 658.28125 57.796875 658.171875 57.984375 658.09375 C 58.167969 658.015625 58.363281 657.980469 58.5625 657.980469 C 58.765625 657.980469 58.957031 658.015625 59.144531 658.09375 C 59.328125 658.171875 59.492188 658.28125 59.632812 658.421875 C 59.777344 658.566406 59.886719 658.726562 59.964844 658.914062 C 60.039062 659.101562 60.078125 659.292969 60.078125 659.492188 Z M 60.078125 659.492188 "/><g clip-rule="nonzero" clip-path="url(#e6185d997e)"><path style=" stroke:none;fill-rule:nonzero;fill:#9b18d4;fill-opacity:1;" d="M 68.84375 659.492188 C 68.84375 659.695312 68.804688 659.886719 68.730469 660.074219 C 68.652344 660.257812 68.542969 660.421875 68.402344 660.566406 C 68.257812 660.707031 68.09375 660.816406 67.910156 660.894531 C 67.722656 660.96875 67.53125 661.007812 67.332031 661.007812 C 67.128906 661.007812 66.9375 660.96875 66.75 660.894531 C 66.566406 660.816406 66.402344 660.707031 66.257812 660.566406 C 66.117188 660.421875 66.007812 660.257812 65.929688 660.074219 C 65.855469 659.886719 65.816406 659.695312 65.816406 659.492188 C 65.816406 659.292969 65.855469 659.101562 65.929688 658.914062 C 66.007812 658.726562 66.117188 658.566406 66.257812 658.421875 C 66.402344 658.28125 66.566406 658.171875 66.75 658.09375 C 66.9375 658.015625 67.128906 657.980469 67.332031 657.980469 C 67.53125 657.980469 67.722656 658.015625 67.910156 658.09375 C 68.09375 658.171875 68.257812 658.28125 68.402344 658.421875 C 68.542969 658.566406 68.652344 658.726562 68.730469 658.914062 C 68.804688 659.101562 68.84375 659.292969 68.84375 659.492188 Z M 68.84375 659.492188 "/></g><path style=" stroke:none;fill-rule:nonzero;fill:#9b18d4;fill-opacity:1;" d="M 33.777344 668.261719 C 33.777344 668.460938 33.738281 668.65625 33.664062 668.839844 C 33.585938 669.027344 33.476562 669.191406 33.335938 669.332031 C 33.191406 669.472656 33.027344 669.582031 32.84375 669.660156 C 32.65625 669.738281 32.464844 669.773438 32.261719 669.773438 C 32.0625 669.773438 31.871094 669.738281 31.683594 669.660156 C 31.496094 669.582031 31.335938 669.472656 31.191406 669.332031 C 31.050781 669.191406 30.941406 669.027344 30.863281 668.839844 C 30.785156 668.65625 30.75 668.460938 30.75 668.261719 C 30.75 668.058594 30.785156 667.867188 30.863281 667.679688 C 30.941406 667.496094 31.050781 667.332031 31.191406 667.1875 C 31.335938 667.046875 31.496094 666.9375 31.683594 666.859375 C 31.871094 666.785156 32.0625 666.746094 32.261719 666.746094 C 32.464844 666.746094 32.65625 666.785156 32.84375 666.859375 C 33.027344 666.9375 33.191406 667.046875 33.335938 667.1875 C 33.476562 667.332031 33.585938 667.496094 33.664062 667.679688 C 33.738281 667.867188 33.777344 668.058594 33.777344 668.261719 Z M 33.777344 668.261719 "/><path style=" stroke:none;fill-rule:nonzero;fill:#9b18d4;fill-opacity:1;" d="M 42.542969 668.261719 C 42.542969 668.460938 42.507812 668.65625 42.429688 668.839844 C 42.351562 669.027344 42.242188 669.191406 42.101562 669.332031 C 41.960938 669.472656 41.796875 669.582031 41.609375 669.660156 C 41.425781 669.738281 41.230469 669.773438 41.03125 669.773438 C 40.828125 669.773438 40.636719 669.738281 40.449219 669.660156 C 40.265625 669.582031 40.101562 669.472656 39.957031 669.332031 C 39.816406 669.191406 39.707031 669.027344 39.628906 668.839844 C 39.554688 668.65625 39.515625 668.460938 39.515625 668.261719 C 39.515625 668.058594 39.554688 667.867188 39.628906 667.679688 C 39.707031 667.496094 39.816406 667.332031 39.957031 667.1875 C 40.101562 667.046875 40.265625 666.9375 40.449219 666.859375 C 40.636719 666.785156 40.828125 666.746094 41.03125 666.746094 C 41.230469 666.746094 41.425781 666.785156 41.609375 666.859375 C 41.796875 666.9375 41.960938 667.046875 42.101562 667.1875 C 42.242188 667.332031 42.351562 667.496094 42.429688 667.679688 C 42.507812 667.867188 42.542969 668.058594 42.542969 668.261719 Z M 42.542969 668.261719 "/><path style=" stroke:none;fill-rule:nonzero;fill:#9b18d4;fill-opacity:1;" d="M 51.3125 668.261719 C 51.3125 668.460938 51.273438 668.65625 51.195312 668.839844 C 51.121094 669.027344 51.011719 669.191406 50.867188 669.332031 C 50.726562 669.472656 50.5625 669.582031 50.375 669.660156 C 50.191406 669.738281 49.996094 669.773438 49.796875 669.773438 C 49.597656 669.773438 49.402344 669.738281 49.21875 669.660156 C 49.03125 669.582031 48.867188 669.472656 48.726562 669.332031 C 48.582031 669.191406 48.472656 669.027344 48.398438 668.839844 C 48.320312 668.65625 48.28125 668.460938 48.28125 668.261719 C 48.28125 668.058594 48.320312 667.867188 48.398438 667.679688 C 48.472656 667.496094 48.582031 667.332031 48.726562 667.1875 C 48.867188 667.046875 49.03125 666.9375 49.21875 666.859375 C 49.402344 666.785156 49.597656 666.746094 49.796875 666.746094 C 49.996094 666.746094 50.191406 666.785156 50.375 666.859375 C 50.5625 666.9375 50.726562 667.046875 50.867188 667.1875 C 51.011719 667.332031 51.121094 667.496094 51.195312 667.679688 C 51.273438 667.867188 51.3125 668.058594 51.3125 668.261719 Z M 51.3125 668.261719 "/><path style=" stroke:none;fill-rule:nonzero;fill:#9b18d4;fill-opacity:1;" d="M 60.078125 668.261719 C 60.078125 668.460938 60.039062 668.65625 59.964844 668.839844 C 59.886719 669.027344 59.777344 669.191406 59.632812 669.332031 C 59.492188 669.472656 59.328125 669.582031 59.144531 669.660156 C 58.957031 669.738281 58.765625 669.773438 58.5625 669.773438 C 58.363281 669.773438 58.167969 669.738281 57.984375 669.660156 C 57.796875 669.582031 57.632812 669.472656 57.492188 669.332031 C 57.351562 669.191406 57.242188 669.027344 57.164062 668.839844 C 57.085938 668.65625 57.046875 668.460938 57.046875 668.261719 C 57.046875 668.058594 57.085938 667.867188 57.164062 667.679688 C 57.242188 667.496094 57.351562 667.332031 57.492188 667.1875 C 57.632812 667.046875 57.796875 666.9375 57.984375 666.859375 C 58.167969 666.785156 58.363281 666.746094 58.5625 666.746094 C 58.765625 666.746094 58.957031 666.785156 59.144531 666.859375 C 59.328125 666.9375 59.492188 667.046875 59.632812 667.1875 C 59.777344 667.332031 59.886719 667.496094 59.964844 667.679688 C 60.039062 667.867188 60.078125 668.058594 60.078125 668.261719 Z M 60.078125 668.261719 "/><g clip-rule="nonzero" clip-path="url(#fdfeee9e38)"><path style=" stroke:none;fill-rule:nonzero;fill:#9b18d4;fill-opacity:1;" d="M 68.84375 668.261719 C 68.84375 668.460938 68.804688 668.65625 68.730469 668.839844 C 68.652344 669.027344 68.542969 669.191406 68.402344 669.332031 C 68.257812 669.472656 68.09375 669.582031 67.910156 669.660156 C 67.722656 669.738281 67.53125 669.773438 67.332031 669.773438 C 67.128906 669.773438 66.9375 669.738281 66.75 669.660156 C 66.566406 669.582031 66.402344 669.472656 66.257812 669.332031 C 66.117188 669.191406 66.007812 669.027344 65.929688 668.839844 C 65.855469 668.65625 65.816406 668.460938 65.816406 668.261719 C 65.816406 668.058594 65.855469 667.867188 65.929688 667.679688 C 66.007812 667.496094 66.117188 667.332031 66.257812 667.1875 C 66.402344 667.046875 66.566406 666.9375 66.75 666.859375 C 66.9375 666.785156 67.128906 666.746094 67.332031 666.746094 C 67.53125 666.746094 67.722656 666.785156 67.910156 666.859375 C 68.09375 666.9375 68.257812 667.046875 68.402344 667.1875 C 68.542969 667.332031 68.652344 667.496094 68.730469 667.679688 C 68.804688 667.867188 68.84375 668.058594 68.84375 668.261719 Z M 68.84375 668.261719 "/></g><path style=" stroke:none;fill-rule:nonzero;fill:#9b18d4;fill-opacity:1;" d="M 33.777344 677.027344 C 33.777344 677.226562 33.738281 677.421875 33.664062 677.605469 C 33.585938 677.792969 33.476562 677.957031 33.335938 678.097656 C 33.191406 678.242188 33.027344 678.351562 32.84375 678.425781 C 32.65625 678.503906 32.464844 678.542969 32.261719 678.542969 C 32.0625 678.542969 31.871094 678.503906 31.683594 678.425781 C 31.496094 678.351562 31.335938 678.242188 31.191406 678.097656 C 31.050781 677.957031 30.941406 677.792969 30.863281 677.605469 C 30.785156 677.421875 30.75 677.226562 30.75 677.027344 C 30.75 676.828125 30.785156 676.632812 30.863281 676.449219 C 30.941406 676.261719 31.050781 676.097656 31.191406 675.957031 C 31.335938 675.8125 31.496094 675.703125 31.683594 675.628906 C 31.871094 675.550781 32.0625 675.511719 32.261719 675.511719 C 32.464844 675.511719 32.65625 675.550781 32.84375 675.628906 C 33.027344 675.703125 33.191406 675.8125 33.335938 675.957031 C 33.476562 676.097656 33.585938 676.261719 33.664062 676.449219 C 33.738281 676.632812 33.777344 676.828125 33.777344 677.027344 Z M 33.777344 677.027344 "/><path style=" stroke:none;fill-rule:nonzero;fill:#9b18d4;fill-opacity:1;" d="M 42.542969 677.027344 C 42.542969 677.226562 42.507812 677.421875 42.429688 677.605469 C 42.351562 677.792969 42.242188 677.957031 42.101562 678.097656 C 41.960938 678.242188 41.796875 678.351562 41.609375 678.425781 C 41.425781 678.503906 41.230469 678.542969 41.03125 678.542969 C 40.828125 678.542969 40.636719 678.503906 40.449219 678.425781 C 40.265625 678.351562 40.101562 678.242188 39.957031 678.097656 C 39.816406 677.957031 39.707031 677.792969 39.628906 677.605469 C 39.554688 677.421875 39.515625 677.226562 39.515625 677.027344 C 39.515625 676.828125 39.554688 676.632812 39.628906 676.449219 C 39.707031 676.261719 39.816406 676.097656 39.957031 675.957031 C 40.101562 675.8125 40.265625 675.703125 40.449219 675.628906 C 40.636719 675.550781 40.828125 675.511719 41.03125 675.511719 C 41.230469 675.511719 41.425781 675.550781 41.609375 675.628906 C 41.796875 675.703125 41.960938 675.8125 42.101562 675.957031 C 42.242188 676.097656 42.351562 676.261719 42.429688 676.449219 C 42.507812 676.632812 42.542969 676.828125 42.542969 677.027344 Z M 42.542969 677.027344 "/><path style=" stroke:none;fill-rule:nonzero;fill:#9b18d4;fill-opacity:1;" d="M 51.3125 677.027344 C 51.3125 677.226562 51.273438 677.421875 51.195312 677.605469 C 51.121094 677.792969 51.011719 677.957031 50.867188 678.097656 C 50.726562 678.242188 50.5625 678.351562 50.375 678.425781 C 50.191406 678.503906 49.996094 678.542969 49.796875 678.542969 C 49.597656 678.542969 49.402344 678.503906 49.21875 678.425781 C 49.03125 678.351562 48.867188 678.242188 48.726562 678.097656 C 48.582031 677.957031 48.472656 677.792969 48.398438 677.605469 C 48.320312 677.421875 48.28125 677.226562 48.28125 677.027344 C 48.28125 676.828125 48.320312 676.632812 48.398438 676.449219 C 48.472656 676.261719 48.582031 676.097656 48.726562 675.957031 C 48.867188 675.8125 49.03125 675.703125 49.21875 675.628906 C 49.402344 675.550781 49.597656 675.511719 49.796875 675.511719 C 49.996094 675.511719 50.191406 675.550781 50.375 675.628906 C 50.5625 675.703125 50.726562 675.8125 50.867188 675.957031 C 51.011719 676.097656 51.121094 676.261719 51.195312 676.449219 C 51.273438 676.632812 51.3125 676.828125 51.3125 677.027344 Z M 51.3125 677.027344 "/><path style=" stroke:none;fill-rule:nonzero;fill:#9b18d4;fill-opacity:1;" d="M 60.078125 677.027344 C 60.078125 677.226562 60.039062 677.421875 59.964844 677.605469 C 59.886719 677.792969 59.777344 677.957031 59.632812 678.097656 C 59.492188 678.242188 59.328125 678.351562 59.144531 678.425781 C 58.957031 678.503906 58.765625 678.542969 58.5625 678.542969 C 58.363281 678.542969 58.167969 678.503906 57.984375 678.425781 C 57.796875 678.351562 57.632812 678.242188 57.492188 678.097656 C 57.351562 677.957031 57.242188 677.792969 57.164062 677.605469 C 57.085938 677.421875 57.046875 677.226562 57.046875 677.027344 C 57.046875 676.828125 57.085938 676.632812 57.164062 676.449219 C 57.242188 676.261719 57.351562 676.097656 57.492188 675.957031 C 57.632812 675.8125 57.796875 675.703125 57.984375 675.628906 C 58.167969 675.550781 58.363281 675.511719 58.5625 675.511719 C 58.765625 675.511719 58.957031 675.550781 59.144531 675.628906 C 59.328125 675.703125 59.492188 675.8125 59.632812 675.957031 C 59.777344 676.097656 59.886719 676.261719 59.964844 676.449219 C 60.039062 676.632812 60.078125 676.828125 60.078125 677.027344 Z M 60.078125 677.027344 "/><g clip-rule="nonzero" clip-path="url(#e7d6360112)"><path style=" stroke:none;fill-rule:nonzero;fill:#9b18d4;fill-opacity:1;" d="M 68.84375 677.027344 C 68.84375 677.226562 68.804688 677.421875 68.730469 677.605469 C 68.652344 677.792969 68.542969 677.957031 68.402344 678.097656 C 68.257812 678.242188 68.09375 678.351562 67.910156 678.425781 C 67.722656 678.503906 67.53125 678.542969 67.332031 678.542969 C 67.128906 678.542969 66.9375 678.503906 66.75 678.425781 C 66.566406 678.351562 66.402344 678.242188 66.257812 678.097656 C 66.117188 677.957031 66.007812 677.792969 65.929688 677.605469 C 65.855469 677.421875 65.816406 677.226562 65.816406 677.027344 C 65.816406 676.828125 65.855469 676.632812 65.929688 676.449219 C 66.007812 676.261719 66.117188 676.097656 66.257812 675.957031 C 66.402344 675.8125 66.566406 675.703125 66.75 675.628906 C 66.9375 675.550781 67.128906 675.511719 67.332031 675.511719 C 67.53125 675.511719 67.722656 675.550781 67.910156 675.628906 C 68.09375 675.703125 68.257812 675.8125 68.402344 675.957031 C 68.542969 676.097656 68.652344 676.261719 68.730469 676.449219 C 68.804688 676.632812 68.84375 676.828125 68.84375 677.027344 Z M 68.84375 677.027344 "/></g><g clip-rule="nonzero" clip-path="url(#78cee9d03b)"><path style=" stroke:none;fill-rule:nonzero;fill:#9b18d4;fill-opacity:1;" d="M 33.777344 685.792969 C 33.777344 685.996094 33.738281 686.1875 33.664062 686.375 C 33.585938 686.558594 33.476562 686.722656 33.335938 686.863281 C 33.191406 687.007812 33.027344 687.117188 32.84375 687.195312 C 32.65625 687.269531 32.464844 687.308594 32.261719 687.308594 C 32.0625 687.308594 31.871094 687.269531 31.683594 687.195312 C 31.496094 687.117188 31.335938 687.007812 31.191406 686.863281 C 31.050781 686.722656 30.941406 686.558594 30.863281 686.375 C 30.785156 686.1875 30.75 685.996094 30.75 685.792969 C 30.75 685.59375 30.785156 685.398438 30.863281 685.214844 C 30.941406 685.027344 31.050781 684.863281 31.191406 684.722656 C 31.335938 684.582031 31.496094 684.472656 31.683594 684.394531 C 31.871094 684.316406 32.0625 684.277344 32.261719 684.277344 C 32.464844 684.277344 32.65625 684.316406 32.84375 684.394531 C 33.027344 684.472656 33.191406 684.582031 33.335938 684.722656 C 33.476562 684.863281 33.585938 685.027344 33.664062 685.214844 C 33.738281 685.398438 33.777344 685.59375 33.777344 685.792969 Z M 33.777344 685.792969 "/></g><g clip-rule="nonzero" clip-path="url(#24e335dc8d)"><path style=" stroke:none;fill-rule:nonzero;fill:#9b18d4;fill-opacity:1;" d="M 42.542969 685.792969 C 42.542969 685.996094 42.507812 686.1875 42.429688 686.375 C 42.351562 686.558594 42.242188 686.722656 42.101562 686.863281 C 41.960938 687.007812 41.796875 687.117188 41.609375 687.195312 C 41.425781 687.269531 41.230469 687.308594 41.03125 687.308594 C 40.828125 687.308594 40.636719 687.269531 40.449219 687.195312 C 40.265625 687.117188 40.101562 687.007812 39.957031 686.863281 C 39.816406 686.722656 39.707031 686.558594 39.628906 686.375 C 39.554688 686.1875 39.515625 685.996094 39.515625 685.792969 C 39.515625 685.59375 39.554688 685.398438 39.628906 685.214844 C 39.707031 685.027344 39.816406 684.863281 39.957031 684.722656 C 40.101562 684.582031 40.265625 684.472656 40.449219 684.394531 C 40.636719 684.316406 40.828125 684.277344 41.03125 684.277344 C 41.230469 684.277344 41.425781 684.316406 41.609375 684.394531 C 41.796875 684.472656 41.960938 684.582031 42.101562 684.722656 C 42.242188 684.863281 42.351562 685.027344 42.429688 685.214844 C 42.507812 685.398438 42.542969 685.59375 42.542969 685.792969 Z M 42.542969 685.792969 "/></g><g clip-rule="nonzero" clip-path="url(#d896057e00)"><path style=" stroke:none;fill-rule:nonzero;fill:#9b18d4;fill-opacity:1;" d="M 51.3125 685.792969 C 51.3125 685.996094 51.273438 686.1875 51.195312 686.375 C 51.121094 686.558594 51.011719 686.722656 50.867188 686.863281 C 50.726562 687.007812 50.5625 687.117188 50.375 687.195312 C 50.191406 687.269531 49.996094 687.308594 49.796875 687.308594 C 49.597656 687.308594 49.402344 687.269531 49.21875 687.195312 C 49.03125 687.117188 48.867188 687.007812 48.726562 686.863281 C 48.582031 686.722656 48.472656 686.558594 48.398438 686.375 C 48.320312 686.1875 48.28125 685.996094 48.28125 685.792969 C 48.28125 685.59375 48.320312 685.398438 48.398438 685.214844 C 48.472656 685.027344 48.582031 684.863281 48.726562 684.722656 C 48.867188 684.582031 49.03125 684.472656 49.21875 684.394531 C 49.402344 684.316406 49.597656 684.277344 49.796875 684.277344 C 49.996094 684.277344 50.191406 684.316406 50.375 684.394531 C 50.5625 684.472656 50.726562 684.582031 50.867188 684.722656 C 51.011719 684.863281 51.121094 685.027344 51.195312 685.214844 C 51.273438 685.398438 51.3125 685.59375 51.3125 685.792969 Z M 51.3125 685.792969 "/></g><g clip-rule="nonzero" clip-path="url(#2834e898fc)"><path style=" stroke:none;fill-rule:nonzero;fill:#9b18d4;fill-opacity:1;" d="M 60.078125 685.792969 C 60.078125 685.996094 60.039062 686.1875 59.964844 686.375 C 59.886719 686.558594 59.777344 686.722656 59.632812 686.863281 C 59.492188 687.007812 59.328125 687.117188 59.144531 687.195312 C 58.957031 687.269531 58.765625 687.308594 58.5625 687.308594 C 58.363281 687.308594 58.167969 687.269531 57.984375 687.195312 C 57.796875 687.117188 57.632812 687.007812 57.492188 686.863281 C 57.351562 686.722656 57.242188 686.558594 57.164062 686.375 C 57.085938 686.1875 57.046875 685.996094 57.046875 685.792969 C 57.046875 685.59375 57.085938 685.398438 57.164062 685.214844 C 57.242188 685.027344 57.351562 684.863281 57.492188 684.722656 C 57.632812 684.582031 57.796875 684.472656 57.984375 684.394531 C 58.167969 684.316406 58.363281 684.277344 58.5625 684.277344 C 58.765625 684.277344 58.957031 684.316406 59.144531 684.394531 C 59.328125 684.472656 59.492188 684.582031 59.632812 684.722656 C 59.777344 684.863281 59.886719 685.027344 59.964844 685.214844 C 60.039062 685.398438 60.078125 685.59375 60.078125 685.792969 Z M 60.078125 685.792969 "/></g><g clip-rule="nonzero" clip-path="url(#7370cd9a32)"><path style=" stroke:none;fill-rule:nonzero;fill:#9b18d4;fill-opacity:1;" d="M 68.84375 685.792969 C 68.84375 685.996094 68.804688 686.1875 68.730469 686.375 C 68.652344 686.558594 68.542969 686.722656 68.402344 686.863281 C 68.257812 687.007812 68.09375 687.117188 67.910156 687.195312 C 67.722656 687.269531 67.53125 687.308594 67.332031 687.308594 C 67.128906 687.308594 66.9375 687.269531 66.75 687.195312 C 66.566406 687.117188 66.402344 687.007812 66.257812 686.863281 C 66.117188 686.722656 66.007812 686.558594 65.929688 686.375 C 65.855469 686.1875 65.816406 685.996094 65.816406 685.792969 C 65.816406 685.59375 65.855469 685.398438 65.929688 685.214844 C 66.007812 685.027344 66.117188 684.863281 66.257812 684.722656 C 66.402344 684.582031 66.566406 684.472656 66.75 684.394531 C 66.9375 684.316406 67.128906 684.277344 67.332031 684.277344 C 67.53125 684.277344 67.722656 684.316406 67.910156 684.394531 C 68.09375 684.472656 68.257812 684.582031 68.402344 684.722656 C 68.542969 684.863281 68.652344 685.027344 68.730469 685.214844 C 68.804688 685.398438 68.84375 685.59375 68.84375 685.792969 Z M 68.84375 685.792969 "/></g></g></svg>