<svg xmlns="http://www.w3.org/2000/svg" xmlns:xlink="http://www.w3.org/1999/xlink" width="1280" zoomAndPan="magnify" viewBox="0 0 960 540.000001" height="720" preserveAspectRatio="xMidYMid meet" version="1.2"><defs><clipPath id="9767e61441"><path d="M 83.097656 44.566406 L 96.796875 44.566406 L 96.796875 99.351562 L 83.097656 99.351562 Z M 83.097656 44.566406 "/></clipPath><clipPath id="957ff68da0"><path d="M 83.097656 106.253906 L 96.796875 106.253906 L 96.796875 161.039062 L 83.097656 161.039062 Z M 83.097656 106.253906 "/></clipPath><clipPath id="a61a30c46b"><path d="M 840.15625 463.96875 L 894.941406 463.96875 L 894.941406 477.664062 L 840.15625 477.664062 Z M 840.15625 463.96875 "/></clipPath><clipPath id="9c102ab8c1"><path d="M 778.46875 463.96875 L 833.253906 463.96875 L 833.253906 477.664062 L 778.46875 477.664062 Z M 778.46875 463.96875 "/></clipPath><clipPath id="1cb67430ba"><path d="M 866 106 L 891 106 L 891 127.363281 L 866 127.363281 Z M 866 106 "/></clipPath><clipPath id="a1b7b8eff9"><path d="M 866 83 L 891.214844 83 L 891.214844 106 L 866 106 Z M 866 83 "/></clipPath><clipPath id="19a4c6b2ce"><path d="M 866 61 L 891.214844 61 L 891.214844 84 L 866 84 Z M 866 61 "/></clipPath><clipPath id="4e61d6a79d"><path d="M 859.023438 101 L 887 101 L 887 125 L 859.023438 125 Z M 859.023438 101 "/></clipPath><clipPath id="08d0adc5af"><path d="M 859.023438 79 L 887 79 L 887 103 L 859.023438 103 Z M 859.023438 79 "/></clipPath><clipPath id="4c3b5229f6"><path d="M 859.023438 57 L 887 57 L 887 81 L 859.023438 81 Z M 859.023438 57 "/></clipPath><clipPath id="373bd53e77"><path d="M 65.054688 430.945312 L 69 430.945312 L 69 434 L 65.054688 434 Z M 65.054688 430.945312 "/></clipPath><clipPath id="97f5bb28a9"><path d="M 73 430.945312 L 77 430.945312 L 77 434 L 73 434 Z M 73 430.945312 "/></clipPath><clipPath id="c5e04d1aa0"><path d="M 82 430.945312 L 86 430.945312 L 86 434 L 82 434 Z M 82 430.945312 "/></clipPath><clipPath id="8dd456da7a"><path d="M 90 430.945312 L 94 430.945312 L 94 434 L 90 434 Z M 90 430.945312 "/></clipPath><clipPath id="9dd5e8bc31"><path d="M 99 430.945312 L 103 430.945312 L 103 434 L 99 434 Z M 99 430.945312 "/></clipPath><clipPath id="e97b0efe7c"><path d="M 65.054688 439 L 69 439 L 69 443 L 65.054688 443 Z M 65.054688 439 "/></clipPath><clipPath id="a8b6cda284"><path d="M 65.054688 448 L 69 448 L 69 452 L 65.054688 452 Z M 65.054688 448 "/></clipPath><clipPath id="8fc6a3b6fd"><path d="M 65.054688 456 L 69 456 L 69 460 L 65.054688 460 Z M 65.054688 456 "/></clipPath><clipPath id="cd6d77e13d"><path d="M 125 456 L 128.683594 456 L 128.683594 460 L 125 460 Z M 125 456 "/></clipPath><clipPath id="0eb0cf323c"><path d="M 65.054688 465 L 69 465 L 69 469 L 65.054688 469 Z M 65.054688 465 "/></clipPath><clipPath id="7b5c39a155"><path d="M 125 465 L 128.683594 465 L 128.683594 469 L 125 469 Z M 125 465 "/></clipPath><clipPath id="d290b401c0"><path d="M 125 474 L 128.683594 474 L 128.683594 478 L 125 478 Z M 125 474 "/></clipPath><clipPath id="9de546bdb0"><path d="M 125 482 L 128.683594 482 L 128.683594 486 L 125 486 Z M 125 482 "/></clipPath><clipPath id="8ba005da2d"><path d="M 90 491 L 94 491 L 94 494.578125 L 90 494.578125 Z M 90 491 "/></clipPath><clipPath id="774c92e0e6"><path d="M 99 491 L 103 491 L 103 494.578125 L 99 494.578125 Z M 99 491 "/></clipPath><clipPath id="a75d4073e7"><path d="M 108 491 L 112 491 L 112 494.578125 L 108 494.578125 Z M 108 491 "/></clipPath><clipPath id="aad7a1def6"><path d="M 116 491 L 120 491 L 120 494.578125 L 116 494.578125 Z M 116 491 "/></clipPath><clipPath id="cb6cfc7242"><path d="M 125 491 L 128.683594 491 L 128.683594 494.578125 L 125 494.578125 Z M 125 491 "/></clipPath></defs><g id="9e14c9784b"><g clip-rule="nonzero" clip-path="url(#9767e61441)"><path style=" stroke:none;fill-rule:nonzero;fill:#000000;fill-opacity:1;" d="M 96.796875 51.417969 C 96.796875 47.632812 93.730469 44.570312 89.949219 44.570312 C 86.164062 44.570312 83.097656 47.632812 83.097656 51.417969 C 83.097656 55.199219 86.164062 58.265625 89.949219 58.265625 C 93.730469 58.265625 96.796875 55.199219 96.796875 51.417969 Z M 96.796875 92.5 C 96.796875 88.714844 93.730469 85.652344 89.949219 85.652344 C 86.164062 85.652344 83.097656 88.714844 83.097656 92.5 C 83.097656 96.28125 86.164062 99.347656 89.949219 99.347656 C 93.730469 99.347656 96.796875 96.28125 96.796875 92.5 Z M 96.796875 71.957031 C 96.796875 68.175781 93.730469 65.109375 89.949219 65.109375 C 86.164062 65.109375 83.097656 68.175781 83.097656 71.957031 C 83.097656 75.742188 86.164062 78.804688 89.949219 78.804688 C 93.730469 78.804688 96.796875 75.742188 96.796875 71.957031 Z M 96.796875 71.957031 "/></g><g clip-rule="nonzero" clip-path="url(#957ff68da0)"><path style=" stroke:none;fill-rule:nonzero;fill:#9b18d4;fill-opacity:1;" d="M 96.796875 113.105469 C 96.796875 109.320312 93.730469 106.257812 89.949219 106.257812 C 86.164062 106.257812 83.101562 109.320312 83.101562 113.105469 C 83.101562 116.886719 86.164062 119.953125 89.949219 119.953125 C 93.730469 119.953125 96.796875 116.886719 96.796875 113.105469 Z M 96.796875 154.1875 C 96.796875 150.40625 93.730469 147.339844 89.949219 147.339844 C 86.164062 147.339844 83.101562 150.40625 83.101562 154.1875 C 83.101562 157.96875 86.164062 161.035156 89.949219 161.035156 C 93.730469 161.035156 96.796875 157.96875 96.796875 154.1875 Z M 96.796875 133.644531 C 96.796875 129.863281 93.730469 126.800781 89.949219 126.800781 C 86.164062 126.800781 83.101562 129.863281 83.101562 133.644531 C 83.101562 137.429688 86.164062 140.492188 89.949219 140.492188 C 93.730469 140.492188 96.796875 137.429688 96.796875 133.644531 Z M 96.796875 133.644531 "/></g><g clip-rule="nonzero" clip-path="url(#a61a30c46b)"><path style=" stroke:none;fill-rule:nonzero;fill:#9b18d4;fill-opacity:1;" d="M 888.089844 477.664062 C 891.875 477.664062 894.9375 474.601562 894.9375 470.816406 C 894.9375 467.035156 891.875 463.96875 888.089844 463.96875 C 884.308594 463.96875 881.242188 467.035156 881.242188 470.816406 C 881.242188 474.601562 884.308594 477.664062 888.089844 477.664062 Z M 847.007812 477.664062 C 850.789062 477.664062 853.855469 474.601562 853.855469 470.816406 C 853.855469 467.035156 850.789062 463.96875 847.007812 463.96875 C 843.226562 463.96875 840.160156 467.035156 840.160156 470.816406 C 840.160156 474.601562 843.226562 477.664062 847.007812 477.664062 Z M 867.550781 477.664062 C 871.332031 477.664062 874.394531 474.601562 874.394531 470.816406 C 874.394531 467.035156 871.332031 463.96875 867.550781 463.96875 C 863.765625 463.96875 860.703125 467.035156 860.703125 470.816406 C 860.703125 474.601562 863.765625 477.664062 867.550781 477.664062 Z M 867.550781 477.664062 "/></g><g clip-rule="nonzero" clip-path="url(#9c102ab8c1)"><path style=" stroke:none;fill-rule:nonzero;fill:#000000;fill-opacity:1;" d="M 826.402344 477.664062 C 830.183594 477.664062 833.25 474.601562 833.25 470.816406 C 833.25 467.035156 830.183594 463.96875 826.402344 463.96875 C 822.617188 463.96875 819.554688 467.035156 819.554688 470.816406 C 819.554688 474.601562 822.617188 477.664062 826.402344 477.664062 Z M 785.320312 477.664062 C 789.101562 477.664062 792.167969 474.601562 792.167969 470.816406 C 792.167969 467.035156 789.101562 463.96875 785.320312 463.96875 C 781.535156 463.96875 778.472656 467.035156 778.472656 470.816406 C 778.472656 474.601562 781.535156 477.664062 785.320312 477.664062 Z M 805.859375 477.664062 C 809.644531 477.664062 812.707031 474.601562 812.707031 470.816406 C 812.707031 467.035156 809.644531 463.96875 805.859375 463.96875 C 802.078125 463.96875 799.015625 467.035156 799.015625 470.816406 C 799.015625 474.601562 802.078125 477.664062 805.859375 477.664062 Z M 805.859375 477.664062 "/></g><g clip-rule="nonzero" clip-path="url(#1cb67430ba)"><path style=" stroke:none;fill-rule:nonzero;fill:#9b18d4;fill-opacity:1;" d="M 878.417969 106.054688 L 890.753906 127.363281 L 866.082031 127.363281 Z M 878.417969 106.054688 "/></g><g clip-rule="nonzero" clip-path="url(#a1b7b8eff9)"><path style=" stroke:none;fill-rule:nonzero;fill:#9b18d4;fill-opacity:1;" d="M 878.875 83.847656 L 891.207031 105.152344 L 866.535156 105.152344 Z M 878.875 83.847656 "/></g><g clip-rule="nonzero" clip-path="url(#19a4c6b2ce)"><path style=" stroke:none;fill-rule:nonzero;fill:#9b18d4;fill-opacity:1;" d="M 878.875 61.875 L 891.207031 83.179688 L 866.535156 83.179688 Z M 878.875 61.875 "/></g><g clip-rule="nonzero" clip-path="url(#4e61d6a79d)"><path style=" stroke:none;fill-rule:nonzero;fill:#000000;fill-opacity:1;" d="M 886.054688 124.882812 L 859.03125 124.882812 L 872.539062 101.546875 Z M 861.382812 123.53125 L 883.703125 123.53125 L 872.539062 104.25 Z M 861.382812 123.53125 "/></g><g clip-rule="nonzero" clip-path="url(#08d0adc5af)"><path style=" stroke:none;fill-rule:nonzero;fill:#000000;fill-opacity:1;" d="M 886.503906 102.671875 L 859.484375 102.671875 L 872.992188 79.339844 Z M 861.835938 101.320312 L 884.160156 101.320312 L 872.996094 82.042969 Z M 861.835938 101.320312 "/></g><g clip-rule="nonzero" clip-path="url(#4c3b5229f6)"><path style=" stroke:none;fill-rule:nonzero;fill:#000000;fill-opacity:1;" d="M 886.503906 80.699219 L 859.484375 80.699219 L 872.992188 57.363281 Z M 861.835938 79.347656 L 884.160156 79.347656 L 872.996094 60.070312 Z M 861.835938 79.347656 "/></g><g clip-rule="nonzero" clip-path="url(#373bd53e77)"><path style=" stroke:none;fill-rule:nonzero;fill:#9b18d4;fill-opacity:1;" d="M 68.042969 432.441406 C 68.042969 432.636719 68.003906 432.828125 67.929688 433.011719 C 67.851562 433.195312 67.746094 433.355469 67.605469 433.496094 C 67.464844 433.636719 67.304688 433.742188 67.121094 433.820312 C 66.9375 433.894531 66.746094 433.933594 66.550781 433.933594 C 66.351562 433.933594 66.160156 433.894531 65.976562 433.820312 C 65.796875 433.742188 65.632812 433.636719 65.492188 433.496094 C 65.355469 433.355469 65.246094 433.195312 65.167969 433.011719 C 65.09375 432.828125 65.054688 432.636719 65.054688 432.441406 C 65.054688 432.242188 65.09375 432.050781 65.167969 431.867188 C 65.246094 431.683594 65.355469 431.523438 65.492188 431.382812 C 65.632812 431.242188 65.796875 431.136719 65.976562 431.058594 C 66.160156 430.984375 66.351562 430.945312 66.550781 430.945312 C 66.746094 430.945312 66.9375 430.984375 67.121094 431.058594 C 67.304688 431.136719 67.464844 431.242188 67.605469 431.382812 C 67.746094 431.523438 67.851562 431.683594 67.929688 431.867188 C 68.003906 432.050781 68.042969 432.242188 68.042969 432.441406 Z M 68.042969 432.441406 "/></g><g clip-rule="nonzero" clip-path="url(#97f5bb28a9)"><path style=" stroke:none;fill-rule:nonzero;fill:#9b18d4;fill-opacity:1;" d="M 76.683594 432.441406 C 76.683594 432.636719 76.644531 432.828125 76.570312 433.011719 C 76.496094 433.195312 76.386719 433.355469 76.246094 433.496094 C 76.105469 433.636719 75.945312 433.742188 75.761719 433.820312 C 75.578125 433.894531 75.390625 433.933594 75.191406 433.933594 C 74.992188 433.933594 74.800781 433.894531 74.621094 433.820312 C 74.4375 433.742188 74.273438 433.636719 74.136719 433.496094 C 73.996094 433.355469 73.886719 433.195312 73.8125 433.011719 C 73.734375 432.828125 73.699219 432.636719 73.699219 432.441406 C 73.699219 432.242188 73.734375 432.050781 73.8125 431.867188 C 73.886719 431.683594 73.996094 431.523438 74.136719 431.382812 C 74.273438 431.242188 74.4375 431.136719 74.621094 431.058594 C 74.800781 430.984375 74.992188 430.945312 75.191406 430.945312 C 75.390625 430.945312 75.578125 430.984375 75.761719 431.058594 C 75.945312 431.136719 76.105469 431.242188 76.246094 431.382812 C 76.386719 431.523438 76.496094 431.683594 76.570312 431.867188 C 76.644531 432.050781 76.683594 432.242188 76.683594 432.441406 Z M 76.683594 432.441406 "/></g><g clip-rule="nonzero" clip-path="url(#c5e04d1aa0)"><path style=" stroke:none;fill-rule:nonzero;fill:#9b18d4;fill-opacity:1;" d="M 85.324219 432.441406 C 85.324219 432.636719 85.289062 432.828125 85.210938 433.011719 C 85.136719 433.195312 85.027344 433.355469 84.886719 433.496094 C 84.75 433.636719 84.585938 433.742188 84.402344 433.820312 C 84.222656 433.894531 84.03125 433.933594 83.832031 433.933594 C 83.632812 433.933594 83.445312 433.894531 83.261719 433.820312 C 83.078125 433.742188 82.917969 433.636719 82.777344 433.496094 C 82.636719 433.355469 82.527344 433.195312 82.453125 433.011719 C 82.378906 432.828125 82.339844 432.636719 82.339844 432.441406 C 82.339844 432.242188 82.378906 432.050781 82.453125 431.867188 C 82.527344 431.683594 82.636719 431.523438 82.777344 431.382812 C 82.917969 431.242188 83.078125 431.136719 83.261719 431.058594 C 83.445312 430.984375 83.632812 430.945312 83.832031 430.945312 C 84.03125 430.945312 84.222656 430.984375 84.402344 431.058594 C 84.585938 431.136719 84.75 431.242188 84.886719 431.382812 C 85.027344 431.523438 85.136719 431.683594 85.210938 431.867188 C 85.289062 432.050781 85.324219 432.242188 85.324219 432.441406 Z M 85.324219 432.441406 "/></g><g clip-rule="nonzero" clip-path="url(#8dd456da7a)"><path style=" stroke:none;fill-rule:nonzero;fill:#9b18d4;fill-opacity:1;" d="M 93.96875 432.441406 C 93.96875 432.636719 93.929688 432.828125 93.851562 433.011719 C 93.777344 433.195312 93.667969 433.355469 93.53125 433.496094 C 93.390625 433.636719 93.226562 433.742188 93.046875 433.820312 C 92.863281 433.894531 92.671875 433.933594 92.472656 433.933594 C 92.277344 433.933594 92.085938 433.894531 91.902344 433.820312 C 91.71875 433.742188 91.558594 433.636719 91.417969 433.496094 C 91.277344 433.355469 91.171875 433.195312 91.09375 433.011719 C 91.019531 432.828125 90.980469 432.636719 90.980469 432.441406 C 90.980469 432.242188 91.019531 432.050781 91.09375 431.867188 C 91.171875 431.683594 91.277344 431.523438 91.417969 431.382812 C 91.558594 431.242188 91.71875 431.136719 91.902344 431.058594 C 92.085938 430.984375 92.277344 430.945312 92.472656 430.945312 C 92.671875 430.945312 92.863281 430.984375 93.046875 431.058594 C 93.226562 431.136719 93.390625 431.242188 93.53125 431.382812 C 93.667969 431.523438 93.777344 431.683594 93.851562 431.867188 C 93.929688 432.050781 93.96875 432.242188 93.96875 432.441406 Z M 93.96875 432.441406 "/></g><g clip-rule="nonzero" clip-path="url(#9dd5e8bc31)"><path style=" stroke:none;fill-rule:nonzero;fill:#9b18d4;fill-opacity:1;" d="M 102.609375 432.441406 C 102.609375 432.636719 102.570312 432.828125 102.496094 433.011719 C 102.417969 433.195312 102.3125 433.355469 102.171875 433.496094 C 102.03125 433.636719 101.871094 433.742188 101.6875 433.820312 C 101.503906 433.894531 101.3125 433.933594 101.117188 433.933594 C 100.917969 433.933594 100.726562 433.894531 100.542969 433.820312 C 100.359375 433.742188 100.199219 433.636719 100.058594 433.496094 C 99.917969 433.355469 99.8125 433.195312 99.734375 433.011719 C 99.660156 432.828125 99.621094 432.636719 99.621094 432.441406 C 99.621094 432.242188 99.660156 432.050781 99.734375 431.867188 C 99.8125 431.683594 99.917969 431.523438 100.058594 431.382812 C 100.199219 431.242188 100.359375 431.136719 100.542969 431.058594 C 100.726562 430.984375 100.917969 430.945312 101.117188 430.945312 C 101.3125 430.945312 101.503906 430.984375 101.6875 431.058594 C 101.871094 431.136719 102.03125 431.242188 102.171875 431.382812 C 102.3125 431.523438 102.417969 431.683594 102.496094 431.867188 C 102.570312 432.050781 102.609375 432.242188 102.609375 432.441406 Z M 102.609375 432.441406 "/></g><g clip-rule="nonzero" clip-path="url(#e97b0efe7c)"><path style=" stroke:none;fill-rule:nonzero;fill:#9b18d4;fill-opacity:1;" d="M 68.042969 441.082031 C 68.042969 441.277344 68.003906 441.46875 67.929688 441.652344 C 67.851562 441.835938 67.746094 441.996094 67.605469 442.136719 C 67.464844 442.277344 67.304688 442.386719 67.121094 442.460938 C 66.9375 442.535156 66.746094 442.574219 66.550781 442.574219 C 66.351562 442.574219 66.160156 442.535156 65.976562 442.460938 C 65.796875 442.386719 65.632812 442.277344 65.492188 442.136719 C 65.355469 441.996094 65.246094 441.835938 65.167969 441.652344 C 65.09375 441.46875 65.054688 441.277344 65.054688 441.082031 C 65.054688 440.882812 65.09375 440.691406 65.167969 440.507812 C 65.246094 440.328125 65.355469 440.164062 65.492188 440.023438 C 65.632812 439.886719 65.796875 439.777344 65.976562 439.703125 C 66.160156 439.625 66.351562 439.589844 66.550781 439.589844 C 66.746094 439.589844 66.9375 439.625 67.121094 439.703125 C 67.304688 439.777344 67.464844 439.886719 67.605469 440.023438 C 67.746094 440.164062 67.851562 440.328125 67.929688 440.507812 C 68.003906 440.691406 68.042969 440.882812 68.042969 441.082031 Z M 68.042969 441.082031 "/></g><path style=" stroke:none;fill-rule:nonzero;fill:#9b18d4;fill-opacity:1;" d="M 76.683594 441.082031 C 76.683594 441.277344 76.644531 441.46875 76.570312 441.652344 C 76.496094 441.835938 76.386719 441.996094 76.246094 442.136719 C 76.105469 442.277344 75.945312 442.386719 75.761719 442.460938 C 75.578125 442.535156 75.390625 442.574219 75.191406 442.574219 C 74.992188 442.574219 74.800781 442.535156 74.621094 442.460938 C 74.4375 442.386719 74.273438 442.277344 74.136719 442.136719 C 73.996094 441.996094 73.886719 441.835938 73.8125 441.652344 C 73.734375 441.46875 73.699219 441.277344 73.699219 441.082031 C 73.699219 440.882812 73.734375 440.691406 73.8125 440.507812 C 73.886719 440.328125 73.996094 440.164062 74.136719 440.023438 C 74.273438 439.886719 74.4375 439.777344 74.621094 439.703125 C 74.800781 439.625 74.992188 439.589844 75.191406 439.589844 C 75.390625 439.589844 75.578125 439.625 75.761719 439.703125 C 75.945312 439.777344 76.105469 439.886719 76.246094 440.023438 C 76.386719 440.164062 76.496094 440.328125 76.570312 440.507812 C 76.644531 440.691406 76.683594 440.882812 76.683594 441.082031 Z M 76.683594 441.082031 "/><path style=" stroke:none;fill-rule:nonzero;fill:#9b18d4;fill-opacity:1;" d="M 85.324219 441.082031 C 85.324219 441.277344 85.289062 441.46875 85.210938 441.652344 C 85.136719 441.835938 85.027344 441.996094 84.886719 442.136719 C 84.75 442.277344 84.585938 442.386719 84.402344 442.460938 C 84.222656 442.535156 84.03125 442.574219 83.832031 442.574219 C 83.632812 442.574219 83.445312 442.535156 83.261719 442.460938 C 83.078125 442.386719 82.917969 442.277344 82.777344 442.136719 C 82.636719 441.996094 82.527344 441.835938 82.453125 441.652344 C 82.378906 441.46875 82.339844 441.277344 82.339844 441.082031 C 82.339844 440.882812 82.378906 440.691406 82.453125 440.507812 C 82.527344 440.328125 82.636719 440.164062 82.777344 440.023438 C 82.917969 439.886719 83.078125 439.777344 83.261719 439.703125 C 83.445312 439.625 83.632812 439.589844 83.832031 439.589844 C 84.03125 439.589844 84.222656 439.625 84.402344 439.703125 C 84.585938 439.777344 84.75 439.886719 84.886719 440.023438 C 85.027344 440.164062 85.136719 440.328125 85.210938 440.507812 C 85.289062 440.691406 85.324219 440.882812 85.324219 441.082031 Z M 85.324219 441.082031 "/><path style=" stroke:none;fill-rule:nonzero;fill:#9b18d4;fill-opacity:1;" d="M 93.96875 441.082031 C 93.96875 441.277344 93.929688 441.46875 93.851562 441.652344 C 93.777344 441.835938 93.667969 441.996094 93.53125 442.136719 C 93.390625 442.277344 93.226562 442.386719 93.046875 442.460938 C 92.863281 442.535156 92.671875 442.574219 92.472656 442.574219 C 92.277344 442.574219 92.085938 442.535156 91.902344 442.460938 C 91.71875 442.386719 91.558594 442.277344 91.417969 442.136719 C 91.277344 441.996094 91.171875 441.835938 91.09375 441.652344 C 91.019531 441.46875 90.980469 441.277344 90.980469 441.082031 C 90.980469 440.882812 91.019531 440.691406 91.09375 440.507812 C 91.171875 440.328125 91.277344 440.164062 91.417969 440.023438 C 91.558594 439.886719 91.71875 439.777344 91.902344 439.703125 C 92.085938 439.625 92.277344 439.589844 92.472656 439.589844 C 92.671875 439.589844 92.863281 439.625 93.046875 439.703125 C 93.226562 439.777344 93.390625 439.886719 93.53125 440.023438 C 93.667969 440.164062 93.777344 440.328125 93.851562 440.507812 C 93.929688 440.691406 93.96875 440.882812 93.96875 441.082031 Z M 93.96875 441.082031 "/><path style=" stroke:none;fill-rule:nonzero;fill:#9b18d4;fill-opacity:1;" d="M 102.609375 441.082031 C 102.609375 441.277344 102.570312 441.46875 102.496094 441.652344 C 102.417969 441.835938 102.3125 441.996094 102.171875 442.136719 C 102.03125 442.277344 101.871094 442.386719 101.6875 442.460938 C 101.503906 442.535156 101.3125 442.574219 101.117188 442.574219 C 100.917969 442.574219 100.726562 442.535156 100.542969 442.460938 C 100.359375 442.386719 100.199219 442.277344 100.058594 442.136719 C 99.917969 441.996094 99.8125 441.835938 99.734375 441.652344 C 99.660156 441.46875 99.621094 441.277344 99.621094 441.082031 C 99.621094 440.882812 99.660156 440.691406 99.734375 440.507812 C 99.8125 440.328125 99.917969 440.164062 100.058594 440.023438 C 100.199219 439.886719 100.359375 439.777344 100.542969 439.703125 C 100.726562 439.625 100.917969 439.589844 101.117188 439.589844 C 101.3125 439.589844 101.503906 439.625 101.6875 439.703125 C 101.871094 439.777344 102.03125 439.886719 102.171875 440.023438 C 102.3125 440.164062 102.417969 440.328125 102.496094 440.507812 C 102.570312 440.691406 102.609375 440.882812 102.609375 441.082031 Z M 102.609375 441.082031 "/><g clip-rule="nonzero" clip-path="url(#a8b6cda284)"><path style=" stroke:none;fill-rule:nonzero;fill:#9b18d4;fill-opacity:1;" d="M 68.042969 449.722656 C 68.042969 449.921875 68.003906 450.109375 67.929688 450.292969 C 67.851562 450.476562 67.746094 450.636719 67.605469 450.777344 C 67.464844 450.917969 67.304688 451.027344 67.121094 451.101562 C 66.9375 451.179688 66.746094 451.214844 66.550781 451.214844 C 66.351562 451.214844 66.160156 451.179688 65.976562 451.101562 C 65.796875 451.027344 65.632812 450.917969 65.492188 450.777344 C 65.355469 450.636719 65.246094 450.476562 65.167969 450.292969 C 65.09375 450.109375 65.054688 449.921875 65.054688 449.722656 C 65.054688 449.523438 65.09375 449.335938 65.167969 449.152344 C 65.246094 448.96875 65.355469 448.808594 65.492188 448.667969 C 65.632812 448.527344 65.796875 448.417969 65.976562 448.34375 C 66.160156 448.265625 66.351562 448.230469 66.550781 448.230469 C 66.746094 448.230469 66.9375 448.265625 67.121094 448.34375 C 67.304688 448.417969 67.464844 448.527344 67.605469 448.667969 C 67.746094 448.808594 67.851562 448.96875 67.929688 449.152344 C 68.003906 449.335938 68.042969 449.523438 68.042969 449.722656 Z M 68.042969 449.722656 "/></g><path style=" stroke:none;fill-rule:nonzero;fill:#9b18d4;fill-opacity:1;" d="M 76.683594 449.722656 C 76.683594 449.921875 76.644531 450.109375 76.570312 450.292969 C 76.496094 450.476562 76.386719 450.636719 76.246094 450.777344 C 76.105469 450.917969 75.945312 451.027344 75.761719 451.101562 C 75.578125 451.179688 75.390625 451.214844 75.191406 451.214844 C 74.992188 451.214844 74.800781 451.179688 74.621094 451.101562 C 74.4375 451.027344 74.273438 450.917969 74.136719 450.777344 C 73.996094 450.636719 73.886719 450.476562 73.8125 450.292969 C 73.734375 450.109375 73.699219 449.921875 73.699219 449.722656 C 73.699219 449.523438 73.734375 449.335938 73.8125 449.152344 C 73.886719 448.96875 73.996094 448.808594 74.136719 448.667969 C 74.273438 448.527344 74.4375 448.417969 74.621094 448.34375 C 74.800781 448.265625 74.992188 448.230469 75.191406 448.230469 C 75.390625 448.230469 75.578125 448.265625 75.761719 448.34375 C 75.945312 448.417969 76.105469 448.527344 76.246094 448.667969 C 76.386719 448.808594 76.496094 448.96875 76.570312 449.152344 C 76.644531 449.335938 76.683594 449.523438 76.683594 449.722656 Z M 76.683594 449.722656 "/><path style=" stroke:none;fill-rule:nonzero;fill:#9b18d4;fill-opacity:1;" d="M 85.324219 449.722656 C 85.324219 449.921875 85.289062 450.109375 85.210938 450.292969 C 85.136719 450.476562 85.027344 450.636719 84.886719 450.777344 C 84.75 450.917969 84.585938 451.027344 84.402344 451.101562 C 84.222656 451.179688 84.03125 451.214844 83.832031 451.214844 C 83.632812 451.214844 83.445312 451.179688 83.261719 451.101562 C 83.078125 451.027344 82.917969 450.917969 82.777344 450.777344 C 82.636719 450.636719 82.527344 450.476562 82.453125 450.292969 C 82.378906 450.109375 82.339844 449.921875 82.339844 449.722656 C 82.339844 449.523438 82.378906 449.335938 82.453125 449.152344 C 82.527344 448.96875 82.636719 448.808594 82.777344 448.667969 C 82.917969 448.527344 83.078125 448.417969 83.261719 448.34375 C 83.445312 448.265625 83.632812 448.230469 83.832031 448.230469 C 84.03125 448.230469 84.222656 448.265625 84.402344 448.34375 C 84.585938 448.417969 84.75 448.527344 84.886719 448.667969 C 85.027344 448.808594 85.136719 448.96875 85.210938 449.152344 C 85.289062 449.335938 85.324219 449.523438 85.324219 449.722656 Z M 85.324219 449.722656 "/><path style=" stroke:none;fill-rule:nonzero;fill:#9b18d4;fill-opacity:1;" d="M 93.96875 449.722656 C 93.96875 449.921875 93.929688 450.109375 93.851562 450.292969 C 93.777344 450.476562 93.667969 450.636719 93.53125 450.777344 C 93.390625 450.917969 93.226562 451.027344 93.046875 451.101562 C 92.863281 451.179688 92.671875 451.214844 92.472656 451.214844 C 92.277344 451.214844 92.085938 451.179688 91.902344 451.101562 C 91.71875 451.027344 91.558594 450.917969 91.417969 450.777344 C 91.277344 450.636719 91.171875 450.476562 91.09375 450.292969 C 91.019531 450.109375 90.980469 449.921875 90.980469 449.722656 C 90.980469 449.523438 91.019531 449.335938 91.09375 449.152344 C 91.171875 448.96875 91.277344 448.808594 91.417969 448.667969 C 91.558594 448.527344 91.71875 448.417969 91.902344 448.34375 C 92.085938 448.265625 92.277344 448.230469 92.472656 448.230469 C 92.671875 448.230469 92.863281 448.265625 93.046875 448.34375 C 93.226562 448.417969 93.390625 448.527344 93.53125 448.667969 C 93.667969 448.808594 93.777344 448.96875 93.851562 449.152344 C 93.929688 449.335938 93.96875 449.523438 93.96875 449.722656 Z M 93.96875 449.722656 "/><path style=" stroke:none;fill-rule:nonzero;fill:#9b18d4;fill-opacity:1;" d="M 102.609375 449.722656 C 102.609375 449.921875 102.570312 450.109375 102.496094 450.292969 C 102.417969 450.476562 102.3125 450.636719 102.171875 450.777344 C 102.03125 450.917969 101.871094 451.027344 101.6875 451.101562 C 101.503906 451.179688 101.3125 451.214844 101.117188 451.214844 C 100.917969 451.214844 100.726562 451.179688 100.542969 451.101562 C 100.359375 451.027344 100.199219 450.917969 100.058594 450.777344 C 99.917969 450.636719 99.8125 450.476562 99.734375 450.292969 C 99.660156 450.109375 99.621094 449.921875 99.621094 449.722656 C 99.621094 449.523438 99.660156 449.335938 99.734375 449.152344 C 99.8125 448.96875 99.917969 448.808594 100.058594 448.667969 C 100.199219 448.527344 100.359375 448.417969 100.542969 448.34375 C 100.726562 448.265625 100.917969 448.230469 101.117188 448.230469 C 101.3125 448.230469 101.503906 448.265625 101.6875 448.34375 C 101.871094 448.417969 102.03125 448.527344 102.171875 448.667969 C 102.3125 448.808594 102.417969 448.96875 102.496094 449.152344 C 102.570312 449.335938 102.609375 449.523438 102.609375 449.722656 Z M 102.609375 449.722656 "/><g clip-rule="nonzero" clip-path="url(#8fc6a3b6fd)"><path style=" stroke:none;fill-rule:nonzero;fill:#9b18d4;fill-opacity:1;" d="M 68.042969 458.363281 C 68.042969 458.5625 68.003906 458.753906 67.929688 458.933594 C 67.851562 459.117188 67.746094 459.28125 67.605469 459.421875 C 67.464844 459.558594 67.304688 459.667969 67.121094 459.742188 C 66.9375 459.820312 66.746094 459.855469 66.550781 459.855469 C 66.351562 459.855469 66.160156 459.820312 65.976562 459.742188 C 65.796875 459.667969 65.632812 459.558594 65.492188 459.421875 C 65.355469 459.28125 65.246094 459.117188 65.167969 458.933594 C 65.09375 458.753906 65.054688 458.5625 65.054688 458.363281 C 65.054688 458.167969 65.09375 457.976562 65.167969 457.792969 C 65.246094 457.609375 65.355469 457.449219 65.492188 457.308594 C 65.632812 457.167969 65.796875 457.058594 65.976562 456.984375 C 66.160156 456.910156 66.351562 456.871094 66.550781 456.871094 C 66.746094 456.871094 66.9375 456.910156 67.121094 456.984375 C 67.304688 457.058594 67.464844 457.167969 67.605469 457.308594 C 67.746094 457.449219 67.851562 457.609375 67.929688 457.792969 C 68.003906 457.976562 68.042969 458.167969 68.042969 458.363281 Z M 68.042969 458.363281 "/></g><path style=" stroke:none;fill-rule:nonzero;fill:#9b18d4;fill-opacity:1;" d="M 76.683594 458.363281 C 76.683594 458.5625 76.644531 458.753906 76.570312 458.933594 C 76.496094 459.117188 76.386719 459.28125 76.246094 459.421875 C 76.105469 459.558594 75.945312 459.667969 75.761719 459.742188 C 75.578125 459.820312 75.390625 459.855469 75.191406 459.855469 C 74.992188 459.855469 74.800781 459.820312 74.621094 459.742188 C 74.4375 459.667969 74.273438 459.558594 74.136719 459.421875 C 73.996094 459.28125 73.886719 459.117188 73.8125 458.933594 C 73.734375 458.753906 73.699219 458.5625 73.699219 458.363281 C 73.699219 458.167969 73.734375 457.976562 73.8125 457.792969 C 73.886719 457.609375 73.996094 457.449219 74.136719 457.308594 C 74.273438 457.167969 74.4375 457.058594 74.621094 456.984375 C 74.800781 456.910156 74.992188 456.871094 75.191406 456.871094 C 75.390625 456.871094 75.578125 456.910156 75.761719 456.984375 C 75.945312 457.058594 76.105469 457.167969 76.246094 457.308594 C 76.386719 457.449219 76.496094 457.609375 76.570312 457.792969 C 76.644531 457.976562 76.683594 458.167969 76.683594 458.363281 Z M 76.683594 458.363281 "/><path style=" stroke:none;fill-rule:nonzero;fill:#9b18d4;fill-opacity:1;" d="M 85.324219 458.363281 C 85.324219 458.5625 85.289062 458.753906 85.210938 458.933594 C 85.136719 459.117188 85.027344 459.28125 84.886719 459.421875 C 84.75 459.558594 84.585938 459.667969 84.402344 459.742188 C 84.222656 459.820312 84.03125 459.855469 83.832031 459.855469 C 83.632812 459.855469 83.445312 459.820312 83.261719 459.742188 C 83.078125 459.667969 82.917969 459.558594 82.777344 459.421875 C 82.636719 459.28125 82.527344 459.117188 82.453125 458.933594 C 82.378906 458.753906 82.339844 458.5625 82.339844 458.363281 C 82.339844 458.167969 82.378906 457.976562 82.453125 457.792969 C 82.527344 457.609375 82.636719 457.449219 82.777344 457.308594 C 82.917969 457.167969 83.078125 457.058594 83.261719 456.984375 C 83.445312 456.910156 83.632812 456.871094 83.832031 456.871094 C 84.03125 456.871094 84.222656 456.910156 84.402344 456.984375 C 84.585938 457.058594 84.75 457.167969 84.886719 457.308594 C 85.027344 457.449219 85.136719 457.609375 85.210938 457.792969 C 85.289062 457.976562 85.324219 458.167969 85.324219 458.363281 Z M 85.324219 458.363281 "/><path style=" stroke:none;fill-rule:nonzero;fill:#9b18d4;fill-opacity:1;" d="M 93.96875 458.363281 C 93.96875 458.5625 93.929688 458.753906 93.851562 458.933594 C 93.777344 459.117188 93.667969 459.28125 93.53125 459.421875 C 93.390625 459.558594 93.226562 459.667969 93.046875 459.742188 C 92.863281 459.820312 92.671875 459.855469 92.472656 459.855469 C 92.277344 459.855469 92.085938 459.820312 91.902344 459.742188 C 91.71875 459.667969 91.558594 459.558594 91.417969 459.421875 C 91.277344 459.28125 91.171875 459.117188 91.09375 458.933594 C 91.019531 458.753906 90.980469 458.5625 90.980469 458.363281 C 90.980469 458.167969 91.019531 457.976562 91.09375 457.792969 C 91.171875 457.609375 91.277344 457.449219 91.417969 457.308594 C 91.558594 457.167969 91.71875 457.058594 91.902344 456.984375 C 92.085938 456.910156 92.277344 456.871094 92.472656 456.871094 C 92.671875 456.871094 92.863281 456.910156 93.046875 456.984375 C 93.226562 457.058594 93.390625 457.167969 93.53125 457.308594 C 93.667969 457.449219 93.777344 457.609375 93.851562 457.792969 C 93.929688 457.976562 93.96875 458.167969 93.96875 458.363281 Z M 93.96875 458.363281 "/><path style=" stroke:none;fill-rule:nonzero;fill:#9b18d4;fill-opacity:1;" d="M 102.609375 458.363281 C 102.609375 458.5625 102.570312 458.753906 102.496094 458.933594 C 102.417969 459.117188 102.3125 459.28125 102.171875 459.421875 C 102.03125 459.558594 101.871094 459.667969 101.6875 459.742188 C 101.503906 459.820312 101.3125 459.855469 101.117188 459.855469 C 100.917969 459.855469 100.726562 459.820312 100.542969 459.742188 C 100.359375 459.667969 100.199219 459.558594 100.058594 459.421875 C 99.917969 459.28125 99.8125 459.117188 99.734375 458.933594 C 99.660156 458.753906 99.621094 458.5625 99.621094 458.363281 C 99.621094 458.167969 99.660156 457.976562 99.734375 457.792969 C 99.8125 457.609375 99.917969 457.449219 100.058594 457.308594 C 100.199219 457.167969 100.359375 457.058594 100.542969 456.984375 C 100.726562 456.910156 100.917969 456.871094 101.117188 456.871094 C 101.3125 456.871094 101.503906 456.910156 101.6875 456.984375 C 101.871094 457.058594 102.03125 457.167969 102.171875 457.308594 C 102.3125 457.449219 102.417969 457.609375 102.496094 457.792969 C 102.570312 457.976562 102.609375 458.167969 102.609375 458.363281 Z M 102.609375 458.363281 "/><path style=" stroke:none;fill-rule:nonzero;fill:#9b18d4;fill-opacity:1;" d="M 111.25 458.363281 C 111.25 458.5625 111.210938 458.753906 111.136719 458.933594 C 111.058594 459.117188 110.953125 459.28125 110.8125 459.421875 C 110.671875 459.558594 110.511719 459.667969 110.328125 459.742188 C 110.144531 459.820312 109.953125 459.855469 109.757812 459.855469 C 109.558594 459.855469 109.367188 459.820312 109.183594 459.742188 C 109.003906 459.667969 108.839844 459.558594 108.699219 459.421875 C 108.5625 459.28125 108.453125 459.117188 108.378906 458.933594 C 108.300781 458.753906 108.261719 458.5625 108.261719 458.363281 C 108.261719 458.167969 108.300781 457.976562 108.378906 457.792969 C 108.453125 457.609375 108.5625 457.449219 108.699219 457.308594 C 108.839844 457.167969 109.003906 457.058594 109.183594 456.984375 C 109.367188 456.910156 109.558594 456.871094 109.757812 456.871094 C 109.953125 456.871094 110.144531 456.910156 110.328125 456.984375 C 110.511719 457.058594 110.671875 457.167969 110.8125 457.308594 C 110.953125 457.449219 111.058594 457.609375 111.136719 457.792969 C 111.210938 457.976562 111.25 458.167969 111.25 458.363281 Z M 111.25 458.363281 "/><path style=" stroke:none;fill-rule:nonzero;fill:#9b18d4;fill-opacity:1;" d="M 119.890625 458.363281 C 119.890625 458.5625 119.851562 458.753906 119.777344 458.933594 C 119.703125 459.117188 119.59375 459.28125 119.453125 459.421875 C 119.3125 459.558594 119.152344 459.667969 118.96875 459.742188 C 118.785156 459.820312 118.597656 459.855469 118.398438 459.855469 C 118.199219 459.855469 118.007812 459.820312 117.828125 459.742188 C 117.644531 459.667969 117.480469 459.558594 117.34375 459.421875 C 117.203125 459.28125 117.09375 459.117188 117.019531 458.933594 C 116.941406 458.753906 116.90625 458.5625 116.90625 458.363281 C 116.90625 458.167969 116.941406 457.976562 117.019531 457.792969 C 117.09375 457.609375 117.203125 457.449219 117.34375 457.308594 C 117.480469 457.167969 117.644531 457.058594 117.828125 456.984375 C 118.007812 456.910156 118.199219 456.871094 118.398438 456.871094 C 118.597656 456.871094 118.785156 456.910156 118.96875 456.984375 C 119.152344 457.058594 119.3125 457.167969 119.453125 457.308594 C 119.59375 457.449219 119.703125 457.609375 119.777344 457.792969 C 119.851562 457.976562 119.890625 458.167969 119.890625 458.363281 Z M 119.890625 458.363281 "/><g clip-rule="nonzero" clip-path="url(#cd6d77e13d)"><path style=" stroke:none;fill-rule:nonzero;fill:#9b18d4;fill-opacity:1;" d="M 128.53125 458.363281 C 128.53125 458.5625 128.496094 458.753906 128.417969 458.933594 C 128.34375 459.117188 128.234375 459.28125 128.09375 459.421875 C 127.957031 459.558594 127.792969 459.667969 127.609375 459.742188 C 127.429688 459.820312 127.238281 459.855469 127.039062 459.855469 C 126.839844 459.855469 126.652344 459.820312 126.46875 459.742188 C 126.285156 459.667969 126.125 459.558594 125.984375 459.421875 C 125.84375 459.28125 125.734375 459.117188 125.660156 458.933594 C 125.585938 458.753906 125.546875 458.5625 125.546875 458.363281 C 125.546875 458.167969 125.585938 457.976562 125.660156 457.792969 C 125.734375 457.609375 125.84375 457.449219 125.984375 457.308594 C 126.125 457.167969 126.285156 457.058594 126.46875 456.984375 C 126.652344 456.910156 126.839844 456.871094 127.039062 456.871094 C 127.238281 456.871094 127.429688 456.910156 127.609375 456.984375 C 127.792969 457.058594 127.957031 457.167969 128.09375 457.308594 C 128.234375 457.449219 128.34375 457.609375 128.417969 457.792969 C 128.496094 457.976562 128.53125 458.167969 128.53125 458.363281 Z M 128.53125 458.363281 "/></g><g clip-rule="nonzero" clip-path="url(#0eb0cf323c)"><path style=" stroke:none;fill-rule:nonzero;fill:#9b18d4;fill-opacity:1;" d="M 68.042969 467.003906 C 68.042969 467.203125 68.003906 467.394531 67.929688 467.578125 C 67.851562 467.761719 67.746094 467.921875 67.605469 468.0625 C 67.464844 468.203125 67.304688 468.308594 67.121094 468.386719 C 66.9375 468.460938 66.746094 468.5 66.550781 468.5 C 66.351562 468.5 66.160156 468.460938 65.976562 468.386719 C 65.796875 468.308594 65.632812 468.203125 65.492188 468.0625 C 65.355469 467.921875 65.246094 467.761719 65.167969 467.578125 C 65.09375 467.394531 65.054688 467.203125 65.054688 467.003906 C 65.054688 466.808594 65.09375 466.617188 65.167969 466.433594 C 65.246094 466.25 65.355469 466.089844 65.492188 465.949219 C 65.632812 465.808594 65.796875 465.703125 65.976562 465.625 C 66.160156 465.550781 66.351562 465.511719 66.550781 465.511719 C 66.746094 465.511719 66.9375 465.550781 67.121094 465.625 C 67.304688 465.703125 67.464844 465.808594 67.605469 465.949219 C 67.746094 466.089844 67.851562 466.25 67.929688 466.433594 C 68.003906 466.617188 68.042969 466.808594 68.042969 467.003906 Z M 68.042969 467.003906 "/></g><path style=" stroke:none;fill-rule:nonzero;fill:#9b18d4;fill-opacity:1;" d="M 76.683594 467.003906 C 76.683594 467.203125 76.644531 467.394531 76.570312 467.578125 C 76.496094 467.761719 76.386719 467.921875 76.246094 468.0625 C 76.105469 468.203125 75.945312 468.308594 75.761719 468.386719 C 75.578125 468.460938 75.390625 468.5 75.191406 468.5 C 74.992188 468.5 74.800781 468.460938 74.621094 468.386719 C 74.4375 468.308594 74.273438 468.203125 74.136719 468.0625 C 73.996094 467.921875 73.886719 467.761719 73.8125 467.578125 C 73.734375 467.394531 73.699219 467.203125 73.699219 467.003906 C 73.699219 466.808594 73.734375 466.617188 73.8125 466.433594 C 73.886719 466.25 73.996094 466.089844 74.136719 465.949219 C 74.273438 465.808594 74.4375 465.703125 74.621094 465.625 C 74.800781 465.550781 74.992188 465.511719 75.191406 465.511719 C 75.390625 465.511719 75.578125 465.550781 75.761719 465.625 C 75.945312 465.703125 76.105469 465.808594 76.246094 465.949219 C 76.386719 466.089844 76.496094 466.25 76.570312 466.433594 C 76.644531 466.617188 76.683594 466.808594 76.683594 467.003906 Z M 76.683594 467.003906 "/><path style=" stroke:none;fill-rule:nonzero;fill:#9b18d4;fill-opacity:1;" d="M 85.324219 467.003906 C 85.324219 467.203125 85.289062 467.394531 85.210938 467.578125 C 85.136719 467.761719 85.027344 467.921875 84.886719 468.0625 C 84.75 468.203125 84.585938 468.308594 84.402344 468.386719 C 84.222656 468.460938 84.03125 468.5 83.832031 468.5 C 83.632812 468.5 83.445312 468.460938 83.261719 468.386719 C 83.078125 468.308594 82.917969 468.203125 82.777344 468.0625 C 82.636719 467.921875 82.527344 467.761719 82.453125 467.578125 C 82.378906 467.394531 82.339844 467.203125 82.339844 467.003906 C 82.339844 466.808594 82.378906 466.617188 82.453125 466.433594 C 82.527344 466.25 82.636719 466.089844 82.777344 465.949219 C 82.917969 465.808594 83.078125 465.703125 83.261719 465.625 C 83.445312 465.550781 83.632812 465.511719 83.832031 465.511719 C 84.03125 465.511719 84.222656 465.550781 84.402344 465.625 C 84.585938 465.703125 84.75 465.808594 84.886719 465.949219 C 85.027344 466.089844 85.136719 466.25 85.210938 466.433594 C 85.289062 466.617188 85.324219 466.808594 85.324219 467.003906 Z M 85.324219 467.003906 "/><path style=" stroke:none;fill-rule:nonzero;fill:#9b18d4;fill-opacity:1;" d="M 93.96875 467.003906 C 93.96875 467.203125 93.929688 467.394531 93.851562 467.578125 C 93.777344 467.761719 93.667969 467.921875 93.53125 468.0625 C 93.390625 468.203125 93.226562 468.308594 93.046875 468.386719 C 92.863281 468.460938 92.671875 468.5 92.472656 468.5 C 92.277344 468.5 92.085938 468.460938 91.902344 468.386719 C 91.71875 468.308594 91.558594 468.203125 91.417969 468.0625 C 91.277344 467.921875 91.171875 467.761719 91.09375 467.578125 C 91.019531 467.394531 90.980469 467.203125 90.980469 467.003906 C 90.980469 466.808594 91.019531 466.617188 91.09375 466.433594 C 91.171875 466.25 91.277344 466.089844 91.417969 465.949219 C 91.558594 465.808594 91.71875 465.703125 91.902344 465.625 C 92.085938 465.550781 92.277344 465.511719 92.472656 465.511719 C 92.671875 465.511719 92.863281 465.550781 93.046875 465.625 C 93.226562 465.703125 93.390625 465.808594 93.53125 465.949219 C 93.667969 466.089844 93.777344 466.25 93.851562 466.433594 C 93.929688 466.617188 93.96875 466.808594 93.96875 467.003906 Z M 93.96875 467.003906 "/><path style=" stroke:none;fill-rule:nonzero;fill:#9b18d4;fill-opacity:1;" d="M 102.609375 467.003906 C 102.609375 467.203125 102.570312 467.394531 102.496094 467.578125 C 102.417969 467.761719 102.3125 467.921875 102.171875 468.0625 C 102.03125 468.203125 101.871094 468.308594 101.6875 468.386719 C 101.503906 468.460938 101.3125 468.5 101.117188 468.5 C 100.917969 468.5 100.726562 468.460938 100.542969 468.386719 C 100.359375 468.308594 100.199219 468.203125 100.058594 468.0625 C 99.917969 467.921875 99.8125 467.761719 99.734375 467.578125 C 99.660156 467.394531 99.621094 467.203125 99.621094 467.003906 C 99.621094 466.808594 99.660156 466.617188 99.734375 466.433594 C 99.8125 466.25 99.917969 466.089844 100.058594 465.949219 C 100.199219 465.808594 100.359375 465.703125 100.542969 465.625 C 100.726562 465.550781 100.917969 465.511719 101.117188 465.511719 C 101.3125 465.511719 101.503906 465.550781 101.6875 465.625 C 101.871094 465.703125 102.03125 465.808594 102.171875 465.949219 C 102.3125 466.089844 102.417969 466.25 102.496094 466.433594 C 102.570312 466.617188 102.609375 466.808594 102.609375 467.003906 Z M 102.609375 467.003906 "/><path style=" stroke:none;fill-rule:nonzero;fill:#9b18d4;fill-opacity:1;" d="M 111.25 467.003906 C 111.25 467.203125 111.210938 467.394531 111.136719 467.578125 C 111.058594 467.761719 110.953125 467.921875 110.8125 468.0625 C 110.671875 468.203125 110.511719 468.308594 110.328125 468.386719 C 110.144531 468.460938 109.953125 468.5 109.757812 468.5 C 109.558594 468.5 109.367188 468.460938 109.183594 468.386719 C 109.003906 468.308594 108.839844 468.203125 108.699219 468.0625 C 108.5625 467.921875 108.453125 467.761719 108.378906 467.578125 C 108.300781 467.394531 108.261719 467.203125 108.261719 467.003906 C 108.261719 466.808594 108.300781 466.617188 108.378906 466.433594 C 108.453125 466.25 108.5625 466.089844 108.699219 465.949219 C 108.839844 465.808594 109.003906 465.703125 109.183594 465.625 C 109.367188 465.550781 109.558594 465.511719 109.757812 465.511719 C 109.953125 465.511719 110.144531 465.550781 110.328125 465.625 C 110.511719 465.703125 110.671875 465.808594 110.8125 465.949219 C 110.953125 466.089844 111.058594 466.25 111.136719 466.433594 C 111.210938 466.617188 111.25 466.808594 111.25 467.003906 Z M 111.25 467.003906 "/><path style=" stroke:none;fill-rule:nonzero;fill:#9b18d4;fill-opacity:1;" d="M 119.890625 467.003906 C 119.890625 467.203125 119.851562 467.394531 119.777344 467.578125 C 119.703125 467.761719 119.59375 467.921875 119.453125 468.0625 C 119.3125 468.203125 119.152344 468.308594 118.96875 468.386719 C 118.785156 468.460938 118.597656 468.5 118.398438 468.5 C 118.199219 468.5 118.007812 468.460938 117.828125 468.386719 C 117.644531 468.308594 117.480469 468.203125 117.34375 468.0625 C 117.203125 467.921875 117.09375 467.761719 117.019531 467.578125 C 116.941406 467.394531 116.90625 467.203125 116.90625 467.003906 C 116.90625 466.808594 116.941406 466.617188 117.019531 466.433594 C 117.09375 466.25 117.203125 466.089844 117.34375 465.949219 C 117.480469 465.808594 117.644531 465.703125 117.828125 465.625 C 118.007812 465.550781 118.199219 465.511719 118.398438 465.511719 C 118.597656 465.511719 118.785156 465.550781 118.96875 465.625 C 119.152344 465.703125 119.3125 465.808594 119.453125 465.949219 C 119.59375 466.089844 119.703125 466.25 119.777344 466.433594 C 119.851562 466.617188 119.890625 466.808594 119.890625 467.003906 Z M 119.890625 467.003906 "/><g clip-rule="nonzero" clip-path="url(#7b5c39a155)"><path style=" stroke:none;fill-rule:nonzero;fill:#9b18d4;fill-opacity:1;" d="M 128.53125 467.003906 C 128.53125 467.203125 128.496094 467.394531 128.417969 467.578125 C 128.34375 467.761719 128.234375 467.921875 128.09375 468.0625 C 127.957031 468.203125 127.792969 468.308594 127.609375 468.386719 C 127.429688 468.460938 127.238281 468.5 127.039062 468.5 C 126.839844 468.5 126.652344 468.460938 126.46875 468.386719 C 126.285156 468.308594 126.125 468.203125 125.984375 468.0625 C 125.84375 467.921875 125.734375 467.761719 125.660156 467.578125 C 125.585938 467.394531 125.546875 467.203125 125.546875 467.003906 C 125.546875 466.808594 125.585938 466.617188 125.660156 466.433594 C 125.734375 466.25 125.84375 466.089844 125.984375 465.949219 C 126.125 465.808594 126.285156 465.703125 126.46875 465.625 C 126.652344 465.550781 126.839844 465.511719 127.039062 465.511719 C 127.238281 465.511719 127.429688 465.550781 127.609375 465.625 C 127.792969 465.703125 127.957031 465.808594 128.09375 465.949219 C 128.234375 466.089844 128.34375 466.25 128.417969 466.433594 C 128.496094 466.617188 128.53125 466.808594 128.53125 467.003906 Z M 128.53125 467.003906 "/></g><path style=" stroke:none;fill-rule:nonzero;fill:#9b18d4;fill-opacity:1;" d="M 93.96875 475.648438 C 93.96875 475.84375 93.929688 476.035156 93.851562 476.21875 C 93.777344 476.402344 93.667969 476.5625 93.53125 476.703125 C 93.390625 476.84375 93.226562 476.949219 93.046875 477.027344 C 92.863281 477.101562 92.671875 477.140625 92.472656 477.140625 C 92.277344 477.140625 92.085938 477.101562 91.902344 477.027344 C 91.71875 476.949219 91.558594 476.84375 91.417969 476.703125 C 91.277344 476.5625 91.171875 476.402344 91.09375 476.21875 C 91.019531 476.035156 90.980469 475.84375 90.980469 475.648438 C 90.980469 475.449219 91.019531 475.257812 91.09375 475.074219 C 91.171875 474.894531 91.277344 474.730469 91.417969 474.589844 C 91.558594 474.449219 91.71875 474.34375 91.902344 474.265625 C 92.085938 474.191406 92.277344 474.152344 92.472656 474.152344 C 92.671875 474.152344 92.863281 474.191406 93.046875 474.265625 C 93.226562 474.34375 93.390625 474.449219 93.53125 474.589844 C 93.667969 474.730469 93.777344 474.894531 93.851562 475.074219 C 93.929688 475.257812 93.96875 475.449219 93.96875 475.648438 Z M 93.96875 475.648438 "/><path style=" stroke:none;fill-rule:nonzero;fill:#9b18d4;fill-opacity:1;" d="M 102.609375 475.648438 C 102.609375 475.84375 102.570312 476.035156 102.496094 476.21875 C 102.417969 476.402344 102.3125 476.5625 102.171875 476.703125 C 102.03125 476.84375 101.871094 476.949219 101.6875 477.027344 C 101.503906 477.101562 101.3125 477.140625 101.117188 477.140625 C 100.917969 477.140625 100.726562 477.101562 100.542969 477.027344 C 100.359375 476.949219 100.199219 476.84375 100.058594 476.703125 C 99.917969 476.5625 99.8125 476.402344 99.734375 476.21875 C 99.660156 476.035156 99.621094 475.84375 99.621094 475.648438 C 99.621094 475.449219 99.660156 475.257812 99.734375 475.074219 C 99.8125 474.894531 99.917969 474.730469 100.058594 474.589844 C 100.199219 474.449219 100.359375 474.34375 100.542969 474.265625 C 100.726562 474.191406 100.917969 474.152344 101.117188 474.152344 C 101.3125 474.152344 101.503906 474.191406 101.6875 474.265625 C 101.871094 474.34375 102.03125 474.449219 102.171875 474.589844 C 102.3125 474.730469 102.417969 474.894531 102.496094 475.074219 C 102.570312 475.257812 102.609375 475.449219 102.609375 475.648438 Z M 102.609375 475.648438 "/><path style=" stroke:none;fill-rule:nonzero;fill:#9b18d4;fill-opacity:1;" d="M 111.25 475.648438 C 111.25 475.84375 111.210938 476.035156 111.136719 476.21875 C 111.058594 476.402344 110.953125 476.5625 110.8125 476.703125 C 110.671875 476.84375 110.511719 476.949219 110.328125 477.027344 C 110.144531 477.101562 109.953125 477.140625 109.757812 477.140625 C 109.558594 477.140625 109.367188 477.101562 109.183594 477.027344 C 109.003906 476.949219 108.839844 476.84375 108.699219 476.703125 C 108.5625 476.5625 108.453125 476.402344 108.378906 476.21875 C 108.300781 476.035156 108.261719 475.84375 108.261719 475.648438 C 108.261719 475.449219 108.300781 475.257812 108.378906 475.074219 C 108.453125 474.894531 108.5625 474.730469 108.699219 474.589844 C 108.839844 474.449219 109.003906 474.34375 109.183594 474.265625 C 109.367188 474.191406 109.558594 474.152344 109.757812 474.152344 C 109.953125 474.152344 110.144531 474.191406 110.328125 474.265625 C 110.511719 474.34375 110.671875 474.449219 110.8125 474.589844 C 110.953125 474.730469 111.058594 474.894531 111.136719 475.074219 C 111.210938 475.257812 111.25 475.449219 111.25 475.648438 Z M 111.25 475.648438 "/><path style=" stroke:none;fill-rule:nonzero;fill:#9b18d4;fill-opacity:1;" d="M 119.890625 475.648438 C 119.890625 475.84375 119.851562 476.035156 119.777344 476.21875 C 119.703125 476.402344 119.59375 476.5625 119.453125 476.703125 C 119.3125 476.84375 119.152344 476.949219 118.96875 477.027344 C 118.785156 477.101562 118.597656 477.140625 118.398438 477.140625 C 118.199219 477.140625 118.007812 477.101562 117.828125 477.027344 C 117.644531 476.949219 117.480469 476.84375 117.34375 476.703125 C 117.203125 476.5625 117.09375 476.402344 117.019531 476.21875 C 116.941406 476.035156 116.90625 475.84375 116.90625 475.648438 C 116.90625 475.449219 116.941406 475.257812 117.019531 475.074219 C 117.09375 474.894531 117.203125 474.730469 117.34375 474.589844 C 117.480469 474.449219 117.644531 474.34375 117.828125 474.265625 C 118.007812 474.191406 118.199219 474.152344 118.398438 474.152344 C 118.597656 474.152344 118.785156 474.191406 118.96875 474.265625 C 119.152344 474.34375 119.3125 474.449219 119.453125 474.589844 C 119.59375 474.730469 119.703125 474.894531 119.777344 475.074219 C 119.851562 475.257812 119.890625 475.449219 119.890625 475.648438 Z M 119.890625 475.648438 "/><g clip-rule="nonzero" clip-path="url(#d290b401c0)"><path style=" stroke:none;fill-rule:nonzero;fill:#9b18d4;fill-opacity:1;" d="M 128.53125 475.648438 C 128.53125 475.84375 128.496094 476.035156 128.417969 476.21875 C 128.34375 476.402344 128.234375 476.5625 128.09375 476.703125 C 127.957031 476.84375 127.792969 476.949219 127.609375 477.027344 C 127.429688 477.101562 127.238281 477.140625 127.039062 477.140625 C 126.839844 477.140625 126.652344 477.101562 126.46875 477.027344 C 126.285156 476.949219 126.125 476.84375 125.984375 476.703125 C 125.84375 476.5625 125.734375 476.402344 125.660156 476.21875 C 125.585938 476.035156 125.546875 475.84375 125.546875 475.648438 C 125.546875 475.449219 125.585938 475.257812 125.660156 475.074219 C 125.734375 474.894531 125.84375 474.730469 125.984375 474.589844 C 126.125 474.449219 126.285156 474.34375 126.46875 474.265625 C 126.652344 474.191406 126.839844 474.152344 127.039062 474.152344 C 127.238281 474.152344 127.429688 474.191406 127.609375 474.265625 C 127.792969 474.34375 127.957031 474.449219 128.09375 474.589844 C 128.234375 474.730469 128.34375 474.894531 128.417969 475.074219 C 128.496094 475.257812 128.53125 475.449219 128.53125 475.648438 Z M 128.53125 475.648438 "/></g><path style=" stroke:none;fill-rule:nonzero;fill:#9b18d4;fill-opacity:1;" d="M 93.96875 484.289062 C 93.96875 484.488281 93.929688 484.675781 93.851562 484.859375 C 93.777344 485.042969 93.667969 485.203125 93.53125 485.34375 C 93.390625 485.484375 93.226562 485.59375 93.046875 485.667969 C 92.863281 485.742188 92.671875 485.78125 92.472656 485.78125 C 92.277344 485.78125 92.085938 485.742188 91.902344 485.667969 C 91.71875 485.59375 91.558594 485.484375 91.417969 485.34375 C 91.277344 485.203125 91.171875 485.042969 91.09375 484.859375 C 91.019531 484.675781 90.980469 484.488281 90.980469 484.289062 C 90.980469 484.089844 91.019531 483.898438 91.09375 483.71875 C 91.171875 483.535156 91.277344 483.371094 91.417969 483.234375 C 91.558594 483.09375 91.71875 482.984375 91.902344 482.910156 C 92.085938 482.832031 92.277344 482.796875 92.472656 482.796875 C 92.671875 482.796875 92.863281 482.832031 93.046875 482.910156 C 93.226562 482.984375 93.390625 483.09375 93.53125 483.234375 C 93.667969 483.371094 93.777344 483.535156 93.851562 483.71875 C 93.929688 483.898438 93.96875 484.089844 93.96875 484.289062 Z M 93.96875 484.289062 "/><path style=" stroke:none;fill-rule:nonzero;fill:#9b18d4;fill-opacity:1;" d="M 102.609375 484.289062 C 102.609375 484.488281 102.570312 484.675781 102.496094 484.859375 C 102.417969 485.042969 102.3125 485.203125 102.171875 485.34375 C 102.03125 485.484375 101.871094 485.59375 101.6875 485.667969 C 101.503906 485.742188 101.3125 485.78125 101.117188 485.78125 C 100.917969 485.78125 100.726562 485.742188 100.542969 485.667969 C 100.359375 485.59375 100.199219 485.484375 100.058594 485.34375 C 99.917969 485.203125 99.8125 485.042969 99.734375 484.859375 C 99.660156 484.675781 99.621094 484.488281 99.621094 484.289062 C 99.621094 484.089844 99.660156 483.898438 99.734375 483.71875 C 99.8125 483.535156 99.917969 483.371094 100.058594 483.234375 C 100.199219 483.09375 100.359375 482.984375 100.542969 482.910156 C 100.726562 482.832031 100.917969 482.796875 101.117188 482.796875 C 101.3125 482.796875 101.503906 482.832031 101.6875 482.910156 C 101.871094 482.984375 102.03125 483.09375 102.171875 483.234375 C 102.3125 483.371094 102.417969 483.535156 102.496094 483.71875 C 102.570312 483.898438 102.609375 484.089844 102.609375 484.289062 Z M 102.609375 484.289062 "/><path style=" stroke:none;fill-rule:nonzero;fill:#9b18d4;fill-opacity:1;" d="M 111.25 484.289062 C 111.25 484.488281 111.210938 484.675781 111.136719 484.859375 C 111.058594 485.042969 110.953125 485.203125 110.8125 485.34375 C 110.671875 485.484375 110.511719 485.59375 110.328125 485.667969 C 110.144531 485.742188 109.953125 485.78125 109.757812 485.78125 C 109.558594 485.78125 109.367188 485.742188 109.183594 485.667969 C 109.003906 485.59375 108.839844 485.484375 108.699219 485.34375 C 108.5625 485.203125 108.453125 485.042969 108.378906 484.859375 C 108.300781 484.675781 108.261719 484.488281 108.261719 484.289062 C 108.261719 484.089844 108.300781 483.898438 108.378906 483.71875 C 108.453125 483.535156 108.5625 483.371094 108.699219 483.234375 C 108.839844 483.09375 109.003906 482.984375 109.183594 482.910156 C 109.367188 482.832031 109.558594 482.796875 109.757812 482.796875 C 109.953125 482.796875 110.144531 482.832031 110.328125 482.910156 C 110.511719 482.984375 110.671875 483.09375 110.8125 483.234375 C 110.953125 483.371094 111.058594 483.535156 111.136719 483.71875 C 111.210938 483.898438 111.25 484.089844 111.25 484.289062 Z M 111.25 484.289062 "/><path style=" stroke:none;fill-rule:nonzero;fill:#9b18d4;fill-opacity:1;" d="M 119.890625 484.289062 C 119.890625 484.488281 119.851562 484.675781 119.777344 484.859375 C 119.703125 485.042969 119.59375 485.203125 119.453125 485.34375 C 119.3125 485.484375 119.152344 485.59375 118.96875 485.667969 C 118.785156 485.742188 118.597656 485.78125 118.398438 485.78125 C 118.199219 485.78125 118.007812 485.742188 117.828125 485.667969 C 117.644531 485.59375 117.480469 485.484375 117.34375 485.34375 C 117.203125 485.203125 117.09375 485.042969 117.019531 484.859375 C 116.941406 484.675781 116.90625 484.488281 116.90625 484.289062 C 116.90625 484.089844 116.941406 483.898438 117.019531 483.71875 C 117.09375 483.535156 117.203125 483.371094 117.34375 483.234375 C 117.480469 483.09375 117.644531 482.984375 117.828125 482.910156 C 118.007812 482.832031 118.199219 482.796875 118.398438 482.796875 C 118.597656 482.796875 118.785156 482.832031 118.96875 482.910156 C 119.152344 482.984375 119.3125 483.09375 119.453125 483.234375 C 119.59375 483.371094 119.703125 483.535156 119.777344 483.71875 C 119.851562 483.898438 119.890625 484.089844 119.890625 484.289062 Z M 119.890625 484.289062 "/><g clip-rule="nonzero" clip-path="url(#9de546bdb0)"><path style=" stroke:none;fill-rule:nonzero;fill:#9b18d4;fill-opacity:1;" d="M 128.53125 484.289062 C 128.53125 484.488281 128.496094 484.675781 128.417969 484.859375 C 128.34375 485.042969 128.234375 485.203125 128.09375 485.34375 C 127.957031 485.484375 127.792969 485.59375 127.609375 485.667969 C 127.429688 485.742188 127.238281 485.78125 127.039062 485.78125 C 126.839844 485.78125 126.652344 485.742188 126.46875 485.667969 C 126.285156 485.59375 126.125 485.484375 125.984375 485.34375 C 125.84375 485.203125 125.734375 485.042969 125.660156 484.859375 C 125.585938 484.675781 125.546875 484.488281 125.546875 484.289062 C 125.546875 484.089844 125.585938 483.898438 125.660156 483.71875 C 125.734375 483.535156 125.84375 483.371094 125.984375 483.234375 C 126.125 483.09375 126.285156 482.984375 126.46875 482.910156 C 126.652344 482.832031 126.839844 482.796875 127.039062 482.796875 C 127.238281 482.796875 127.429688 482.832031 127.609375 482.910156 C 127.792969 482.984375 127.957031 483.09375 128.09375 483.234375 C 128.234375 483.371094 128.34375 483.535156 128.417969 483.71875 C 128.496094 483.898438 128.53125 484.089844 128.53125 484.289062 Z M 128.53125 484.289062 "/></g><g clip-rule="nonzero" clip-path="url(#8ba005da2d)"><path style=" stroke:none;fill-rule:nonzero;fill:#9b18d4;fill-opacity:1;" d="M 93.96875 492.929688 C 93.96875 493.128906 93.929688 493.320312 93.851562 493.5 C 93.777344 493.683594 93.667969 493.847656 93.53125 493.984375 C 93.390625 494.125 93.226562 494.234375 93.046875 494.308594 C 92.863281 494.386719 92.671875 494.421875 92.472656 494.421875 C 92.277344 494.421875 92.085938 494.386719 91.902344 494.308594 C 91.71875 494.234375 91.558594 494.125 91.417969 493.984375 C 91.277344 493.847656 91.171875 493.683594 91.09375 493.5 C 91.019531 493.320312 90.980469 493.128906 90.980469 492.929688 C 90.980469 492.730469 91.019531 492.542969 91.09375 492.359375 C 91.171875 492.175781 91.277344 492.015625 91.417969 491.875 C 91.558594 491.734375 91.71875 491.625 91.902344 491.550781 C 92.085938 491.472656 92.277344 491.4375 92.472656 491.4375 C 92.671875 491.4375 92.863281 491.472656 93.046875 491.550781 C 93.226562 491.625 93.390625 491.734375 93.53125 491.875 C 93.667969 492.015625 93.777344 492.175781 93.851562 492.359375 C 93.929688 492.542969 93.96875 492.730469 93.96875 492.929688 Z M 93.96875 492.929688 "/></g><g clip-rule="nonzero" clip-path="url(#774c92e0e6)"><path style=" stroke:none;fill-rule:nonzero;fill:#9b18d4;fill-opacity:1;" d="M 102.609375 492.929688 C 102.609375 493.128906 102.570312 493.320312 102.496094 493.5 C 102.417969 493.683594 102.3125 493.847656 102.171875 493.984375 C 102.03125 494.125 101.871094 494.234375 101.6875 494.308594 C 101.503906 494.386719 101.3125 494.421875 101.117188 494.421875 C 100.917969 494.421875 100.726562 494.386719 100.542969 494.308594 C 100.359375 494.234375 100.199219 494.125 100.058594 493.984375 C 99.917969 493.847656 99.8125 493.683594 99.734375 493.5 C 99.660156 493.320312 99.621094 493.128906 99.621094 492.929688 C 99.621094 492.730469 99.660156 492.542969 99.734375 492.359375 C 99.8125 492.175781 99.917969 492.015625 100.058594 491.875 C 100.199219 491.734375 100.359375 491.625 100.542969 491.550781 C 100.726562 491.472656 100.917969 491.4375 101.117188 491.4375 C 101.3125 491.4375 101.503906 491.472656 101.6875 491.550781 C 101.871094 491.625 102.03125 491.734375 102.171875 491.875 C 102.3125 492.015625 102.417969 492.175781 102.496094 492.359375 C 102.570312 492.542969 102.609375 492.730469 102.609375 492.929688 Z M 102.609375 492.929688 "/></g><g clip-rule="nonzero" clip-path="url(#a75d4073e7)"><path style=" stroke:none;fill-rule:nonzero;fill:#9b18d4;fill-opacity:1;" d="M 111.25 492.929688 C 111.25 493.128906 111.210938 493.320312 111.136719 493.5 C 111.058594 493.683594 110.953125 493.847656 110.8125 493.984375 C 110.671875 494.125 110.511719 494.234375 110.328125 494.308594 C 110.144531 494.386719 109.953125 494.421875 109.757812 494.421875 C 109.558594 494.421875 109.367188 494.386719 109.183594 494.308594 C 109.003906 494.234375 108.839844 494.125 108.699219 493.984375 C 108.5625 493.847656 108.453125 493.683594 108.378906 493.5 C 108.300781 493.320312 108.261719 493.128906 108.261719 492.929688 C 108.261719 492.730469 108.300781 492.542969 108.378906 492.359375 C 108.453125 492.175781 108.5625 492.015625 108.699219 491.875 C 108.839844 491.734375 109.003906 491.625 109.183594 491.550781 C 109.367188 491.472656 109.558594 491.4375 109.757812 491.4375 C 109.953125 491.4375 110.144531 491.472656 110.328125 491.550781 C 110.511719 491.625 110.671875 491.734375 110.8125 491.875 C 110.953125 492.015625 111.058594 492.175781 111.136719 492.359375 C 111.210938 492.542969 111.25 492.730469 111.25 492.929688 Z M 111.25 492.929688 "/></g><g clip-rule="nonzero" clip-path="url(#aad7a1def6)"><path style=" stroke:none;fill-rule:nonzero;fill:#9b18d4;fill-opacity:1;" d="M 119.890625 492.929688 C 119.890625 493.128906 119.851562 493.320312 119.777344 493.5 C 119.703125 493.683594 119.59375 493.847656 119.453125 493.984375 C 119.3125 494.125 119.152344 494.234375 118.96875 494.308594 C 118.785156 494.386719 118.597656 494.421875 118.398438 494.421875 C 118.199219 494.421875 118.007812 494.386719 117.828125 494.308594 C 117.644531 494.234375 117.480469 494.125 117.34375 493.984375 C 117.203125 493.847656 117.09375 493.683594 117.019531 493.5 C 116.941406 493.320312 116.90625 493.128906 116.90625 492.929688 C 116.90625 492.730469 116.941406 492.542969 117.019531 492.359375 C 117.09375 492.175781 117.203125 492.015625 117.34375 491.875 C 117.480469 491.734375 117.644531 491.625 117.828125 491.550781 C 118.007812 491.472656 118.199219 491.4375 118.398438 491.4375 C 118.597656 491.4375 118.785156 491.472656 118.96875 491.550781 C 119.152344 491.625 119.3125 491.734375 119.453125 491.875 C 119.59375 492.015625 119.703125 492.175781 119.777344 492.359375 C 119.851562 492.542969 119.890625 492.730469 119.890625 492.929688 Z M 119.890625 492.929688 "/></g><g clip-rule="nonzero" clip-path="url(#cb6cfc7242)"><path style=" stroke:none;fill-rule:nonzero;fill:#9b18d4;fill-opacity:1;" d="M 128.53125 492.929688 C 128.53125 493.128906 128.496094 493.320312 128.417969 493.5 C 128.34375 493.683594 128.234375 493.847656 128.09375 493.984375 C 127.957031 494.125 127.792969 494.234375 127.609375 494.308594 C 127.429688 494.386719 127.238281 494.421875 127.039062 494.421875 C 126.839844 494.421875 126.652344 494.386719 126.46875 494.308594 C 126.285156 494.234375 126.125 494.125 125.984375 493.984375 C 125.84375 493.847656 125.734375 493.683594 125.660156 493.5 C 125.585938 493.320312 125.546875 493.128906 125.546875 492.929688 C 125.546875 492.730469 125.585938 492.542969 125.660156 492.359375 C 125.734375 492.175781 125.84375 492.015625 125.984375 491.875 C 126.125 491.734375 126.285156 491.625 126.46875 491.550781 C 126.652344 491.472656 126.839844 491.4375 127.039062 491.4375 C 127.238281 491.4375 127.429688 491.472656 127.609375 491.550781 C 127.792969 491.625 127.957031 491.734375 128.09375 491.875 C 128.234375 492.015625 128.34375 492.175781 128.417969 492.359375 C 128.496094 492.542969 128.53125 492.730469 128.53125 492.929688 Z M 128.53125 492.929688 "/></g></g></svg>