<svg xmlns="http://www.w3.org/2000/svg" xmlns:xlink="http://www.w3.org/1999/xlink" width="1920" zoomAndPan="magnify" viewBox="0 0 1440 809.999993" height="1080" preserveAspectRatio="xMidYMid meet" version="1.2"><defs><clipPath id="7d75cd39de"><path d="M 83.375 60.835938 L 105.433594 60.835938 L 105.433594 149.0625 L 83.375 149.0625 Z M 83.375 60.835938 "/></clipPath><clipPath id="f69717b2d1"><path d="M 83.375 160.183594 L 105.433594 160.183594 L 105.433594 248.410156 L 83.375 248.410156 Z M 83.375 160.183594 "/></clipPath><clipPath id="079d9f7528"><path d="M 1302.59375 736.269531 L 1390.820312 736.269531 L 1390.820312 758.324219 L 1302.59375 758.324219 Z M 1302.59375 736.269531 "/></clipPath><clipPath id="060e6127e2"><path d="M 1203.246094 736.269531 L 1291.472656 736.269531 L 1291.472656 758.324219 L 1203.246094 758.324219 Z M 1203.246094 736.269531 "/></clipPath><clipPath id="3944fb4970"><path d="M 1344 159 L 1384 159 L 1384 194.183594 L 1344 194.183594 Z M 1344 159 "/></clipPath><clipPath id="1a7a33f2ac"><path d="M 1345 123 L 1384.710938 123 L 1384.710938 159 L 1345 159 Z M 1345 123 "/></clipPath><clipPath id="0b451e9098"><path d="M 1345 88 L 1384.710938 88 L 1384.710938 123 L 1345 123 Z M 1345 88 "/></clipPath><clipPath id="859cd25596"><path d="M 1332.960938 152 L 1377 152 L 1377 191 L 1332.960938 191 Z M 1332.960938 152 "/></clipPath><clipPath id="523bc43a3d"><path d="M 1333 80.933594 L 1378 80.933594 L 1378 119 L 1333 119 Z M 1333 80.933594 "/></clipPath><clipPath id="698d4d06c6"><path d="M 54.3125 683.085938 L 60 683.085938 L 60 688 L 54.3125 688 Z M 54.3125 683.085938 "/></clipPath><clipPath id="33bf7cded8"><path d="M 68 683.085938 L 74 683.085938 L 74 688 L 68 688 Z M 68 683.085938 "/></clipPath><clipPath id="3cc0936700"><path d="M 82 683.085938 L 87 683.085938 L 87 688 L 82 688 Z M 82 683.085938 "/></clipPath><clipPath id="bbda331974"><path d="M 95 683.085938 L 101 683.085938 L 101 688 L 95 688 Z M 95 683.085938 "/></clipPath><clipPath id="d41dd44972"><path d="M 109 683.085938 L 115 683.085938 L 115 688 L 109 688 Z M 109 683.085938 "/></clipPath><clipPath id="99bea2fa00"><path d="M 54.3125 696 L 60 696 L 60 702 L 54.3125 702 Z M 54.3125 696 "/></clipPath><clipPath id="401c813c49"><path d="M 54.3125 710 L 60 710 L 60 716 L 54.3125 716 Z M 54.3125 710 "/></clipPath><clipPath id="81a96172c8"><path d="M 54.3125 724 L 60 724 L 60 730 L 54.3125 730 Z M 54.3125 724 "/></clipPath><clipPath id="62e9fc8dc4"><path d="M 151 724 L 156.3125 724 L 156.3125 730 L 151 730 Z M 151 724 "/></clipPath><clipPath id="86f78f54e6"><path d="M 54.3125 738 L 60 738 L 60 744 L 54.3125 744 Z M 54.3125 738 "/></clipPath><clipPath id="d865007be2"><path d="M 151 738 L 156.3125 738 L 156.3125 744 L 151 744 Z M 151 738 "/></clipPath><clipPath id="109b833065"><path d="M 151 752 L 156.3125 752 L 156.3125 758 L 151 758 Z M 151 752 "/></clipPath><clipPath id="0bf55047f7"><path d="M 151 766 L 156.3125 766 L 156.3125 772 L 151 772 Z M 151 766 "/></clipPath><clipPath id="7e09f42dfa"><path d="M 95 780 L 101 780 L 101 785.085938 L 95 785.085938 Z M 95 780 "/></clipPath><clipPath id="c430c1fe7a"><path d="M 109 780 L 115 780 L 115 785.085938 L 109 785.085938 Z M 109 780 "/></clipPath><clipPath id="857ec73c7c"><path d="M 123 780 L 129 780 L 129 785.085938 L 123 785.085938 Z M 123 780 "/></clipPath><clipPath id="82a37dca05"><path d="M 137 780 L 143 780 L 143 785.085938 L 137 785.085938 Z M 137 780 "/></clipPath><clipPath id="6076e830d2"><path d="M 151 780 L 156.3125 780 L 156.3125 785.085938 L 151 785.085938 Z M 151 780 "/></clipPath></defs><g id="c7f2fa88b9"><g clip-rule="nonzero" clip-path="url(#7d75cd39de)"><path style=" stroke:none;fill-rule:nonzero;fill:#000000;fill-opacity:1;" d="M 105.433594 71.867188 C 105.433594 65.777344 100.496094 60.839844 94.40625 60.839844 C 88.3125 60.839844 83.375 65.777344 83.375 71.867188 C 83.375 77.960938 88.3125 82.894531 94.40625 82.894531 C 100.496094 82.894531 105.433594 77.960938 105.433594 71.867188 Z M 105.433594 138.03125 C 105.433594 131.9375 100.496094 127.003906 94.40625 127.003906 C 88.3125 127.003906 83.375 131.9375 83.375 138.03125 C 83.375 144.121094 88.3125 149.058594 94.40625 149.058594 C 100.496094 149.058594 105.433594 144.121094 105.433594 138.03125 Z M 105.433594 104.949219 C 105.433594 98.855469 100.496094 93.921875 94.40625 93.921875 C 88.3125 93.921875 83.375 98.855469 83.375 104.949219 C 83.375 111.042969 88.3125 115.976562 94.40625 115.976562 C 100.496094 115.976562 105.433594 111.042969 105.433594 104.949219 Z M 105.433594 104.949219 "/></g><g clip-rule="nonzero" clip-path="url(#f69717b2d1)"><path style=" stroke:none;fill-rule:nonzero;fill:#9b18d4;fill-opacity:1;" d="M 105.433594 171.214844 C 105.433594 165.121094 100.5 160.1875 94.40625 160.1875 C 88.3125 160.1875 83.378906 165.121094 83.378906 171.214844 C 83.378906 177.304688 88.3125 182.242188 94.40625 182.242188 C 100.5 182.242188 105.433594 177.304688 105.433594 171.214844 Z M 105.433594 237.375 C 105.433594 231.285156 100.5 226.347656 94.40625 226.347656 C 88.3125 226.347656 83.378906 231.285156 83.378906 237.375 C 83.378906 243.46875 88.3125 248.402344 94.40625 248.402344 C 100.5 248.402344 105.433594 243.46875 105.433594 237.375 Z M 105.433594 204.296875 C 105.433594 198.203125 100.5 193.269531 94.40625 193.269531 C 88.3125 193.269531 83.378906 198.203125 83.378906 204.296875 C 83.378906 210.386719 88.3125 215.320312 94.40625 215.320312 C 100.5 215.320312 105.433594 210.386719 105.433594 204.296875 Z M 105.433594 204.296875 "/></g><g clip-rule="nonzero" clip-path="url(#079d9f7528)"><path style=" stroke:none;fill-rule:nonzero;fill:#9b18d4;fill-opacity:1;" d="M 1379.789062 758.324219 C 1385.878906 758.324219 1390.816406 753.390625 1390.816406 747.296875 C 1390.816406 741.207031 1385.878906 736.269531 1379.789062 736.269531 C 1373.695312 736.269531 1368.761719 741.207031 1368.761719 747.296875 C 1368.761719 753.390625 1373.695312 758.324219 1379.789062 758.324219 Z M 1313.625 758.324219 C 1319.71875 758.324219 1324.652344 753.390625 1324.652344 747.296875 C 1324.652344 741.207031 1319.71875 736.269531 1313.625 736.269531 C 1307.535156 736.269531 1302.597656 741.207031 1302.597656 747.296875 C 1302.597656 753.390625 1307.535156 758.324219 1313.625 758.324219 Z M 1346.707031 758.324219 C 1352.800781 758.324219 1357.734375 753.390625 1357.734375 747.296875 C 1357.734375 741.207031 1352.800781 736.269531 1346.707031 736.269531 C 1340.613281 736.269531 1335.679688 741.207031 1335.679688 747.296875 C 1335.679688 753.390625 1340.613281 758.324219 1346.707031 758.324219 Z M 1346.707031 758.324219 "/></g><g clip-rule="nonzero" clip-path="url(#060e6127e2)"><path style=" stroke:none;fill-rule:nonzero;fill:#000000;fill-opacity:1;" d="M 1280.441406 758.324219 C 1286.535156 758.324219 1291.46875 753.390625 1291.46875 747.296875 C 1291.46875 741.203125 1286.535156 736.269531 1280.441406 736.269531 C 1274.347656 736.269531 1269.414062 741.203125 1269.414062 747.296875 C 1269.414062 753.390625 1274.347656 758.324219 1280.441406 758.324219 Z M 1214.28125 758.324219 C 1220.371094 758.324219 1225.304688 753.390625 1225.304688 747.296875 C 1225.304688 741.203125 1220.371094 736.269531 1214.28125 736.269531 C 1208.1875 736.269531 1203.253906 741.203125 1203.253906 747.296875 C 1203.253906 753.390625 1208.1875 758.324219 1214.28125 758.324219 Z M 1247.359375 758.324219 C 1253.453125 758.324219 1258.386719 753.390625 1258.386719 747.296875 C 1258.386719 741.203125 1253.453125 736.269531 1247.359375 736.269531 C 1241.269531 736.269531 1236.332031 741.203125 1236.332031 747.296875 C 1236.332031 753.390625 1241.269531 758.324219 1247.359375 758.324219 Z M 1247.359375 758.324219 "/></g><g clip-rule="nonzero" clip-path="url(#3944fb4970)"><path style=" stroke:none;fill-rule:nonzero;fill:#9b18d4;fill-opacity:1;" d="M 1364.136719 159.710938 L 1383.964844 194.183594 L 1344.316406 194.183594 Z M 1364.136719 159.710938 "/></g><g clip-rule="nonzero" clip-path="url(#1a7a33f2ac)"><path style=" stroke:none;fill-rule:nonzero;fill:#9b18d4;fill-opacity:1;" d="M 1364.871094 123.78125 L 1384.691406 158.253906 L 1345.042969 158.253906 Z M 1364.871094 123.78125 "/></g><g clip-rule="nonzero" clip-path="url(#0b451e9098)"><path style=" stroke:none;fill-rule:nonzero;fill:#9b18d4;fill-opacity:1;" d="M 1364.871094 88.230469 L 1384.691406 122.699219 L 1345.042969 122.699219 Z M 1364.871094 88.230469 "/></g><g clip-rule="nonzero" clip-path="url(#859cd25596)"><path style=" stroke:none;fill-rule:nonzero;fill:#000000;fill-opacity:1;" d="M 1376.410156 190.171875 L 1332.980469 190.171875 L 1354.691406 152.417969 Z M 1336.761719 187.984375 L 1372.632812 187.984375 L 1354.691406 156.792969 Z M 1336.761719 187.984375 "/></g><path style=" stroke:none;fill-rule:nonzero;fill:#000000;fill-opacity:1;" d="M 1377.136719 154.242188 L 1333.707031 154.242188 L 1355.417969 116.484375 Z M 1337.488281 152.050781 L 1373.363281 152.050781 L 1355.425781 120.863281 Z M 1337.488281 152.050781 "/><g clip-rule="nonzero" clip-path="url(#523bc43a3d)"><path style=" stroke:none;fill-rule:nonzero;fill:#000000;fill-opacity:1;" d="M 1377.136719 118.6875 L 1333.707031 118.6875 L 1355.417969 80.933594 Z M 1337.488281 116.5 L 1373.363281 116.5 L 1355.425781 85.3125 Z M 1337.488281 116.5 "/></g><g clip-rule="nonzero" clip-path="url(#698d4d06c6)"><path style=" stroke:none;fill-rule:nonzero;fill:#9b18d4;fill-opacity:1;" d="M 59.117188 685.484375 C 59.117188 685.800781 59.054688 686.109375 58.933594 686.402344 C 58.8125 686.695312 58.640625 686.957031 58.414062 687.179688 C 58.191406 687.40625 57.929688 687.578125 57.636719 687.699219 C 57.34375 687.820312 57.035156 687.882812 56.71875 687.882812 C 56.398438 687.882812 56.09375 687.820312 55.800781 687.699219 C 55.503906 687.578125 55.246094 687.40625 55.019531 687.179688 C 54.796875 686.957031 54.621094 686.695312 54.5 686.402344 C 54.378906 686.109375 54.320312 685.800781 54.320312 685.484375 C 54.320312 685.164062 54.378906 684.859375 54.5 684.566406 C 54.621094 684.273438 54.796875 684.011719 55.019531 683.789062 C 55.246094 683.5625 55.503906 683.390625 55.800781 683.265625 C 56.09375 683.144531 56.398438 683.085938 56.71875 683.085938 C 57.035156 683.085938 57.34375 683.144531 57.636719 683.265625 C 57.929688 683.390625 58.191406 683.5625 58.414062 683.789062 C 58.640625 684.011719 58.8125 684.273438 58.933594 684.566406 C 59.054688 684.859375 59.117188 685.164062 59.117188 685.484375 Z M 59.117188 685.484375 "/></g><g clip-rule="nonzero" clip-path="url(#33bf7cded8)"><path style=" stroke:none;fill-rule:nonzero;fill:#9b18d4;fill-opacity:1;" d="M 73.003906 685.484375 C 73.003906 685.800781 72.941406 686.109375 72.820312 686.402344 C 72.699219 686.695312 72.523438 686.957031 72.300781 687.179688 C 72.074219 687.40625 71.816406 687.578125 71.519531 687.699219 C 71.226562 687.820312 70.921875 687.882812 70.601562 687.882812 C 70.285156 687.882812 69.980469 687.820312 69.683594 687.699219 C 69.390625 687.578125 69.132812 687.40625 68.90625 687.179688 C 68.679688 686.957031 68.507812 686.695312 68.386719 686.402344 C 68.265625 686.109375 68.203125 685.800781 68.203125 685.484375 C 68.203125 685.164062 68.265625 684.859375 68.386719 684.566406 C 68.507812 684.273438 68.679688 684.011719 68.90625 683.789062 C 69.132812 683.5625 69.390625 683.390625 69.683594 683.265625 C 69.980469 683.144531 70.285156 683.085938 70.601562 683.085938 C 70.921875 683.085938 71.226562 683.144531 71.519531 683.265625 C 71.816406 683.390625 72.074219 683.5625 72.300781 683.789062 C 72.523438 684.011719 72.699219 684.273438 72.820312 684.566406 C 72.941406 684.859375 73.003906 685.164062 73.003906 685.484375 Z M 73.003906 685.484375 "/></g><g clip-rule="nonzero" clip-path="url(#3cc0936700)"><path style=" stroke:none;fill-rule:nonzero;fill:#9b18d4;fill-opacity:1;" d="M 86.886719 685.484375 C 86.886719 685.800781 86.828125 686.109375 86.703125 686.402344 C 86.582031 686.695312 86.410156 686.957031 86.183594 687.179688 C 85.960938 687.40625 85.699219 687.578125 85.40625 687.699219 C 85.113281 687.820312 84.804688 687.882812 84.488281 687.882812 C 84.171875 687.882812 83.863281 687.820312 83.570312 687.699219 C 83.277344 687.578125 83.015625 687.40625 82.792969 687.179688 C 82.566406 686.957031 82.394531 686.695312 82.269531 686.402344 C 82.148438 686.109375 82.089844 685.800781 82.089844 685.484375 C 82.089844 685.164062 82.148438 684.859375 82.269531 684.566406 C 82.394531 684.273438 82.566406 684.011719 82.792969 683.789062 C 83.015625 683.5625 83.277344 683.390625 83.570312 683.265625 C 83.863281 683.144531 84.171875 683.085938 84.488281 683.085938 C 84.804688 683.085938 85.113281 683.144531 85.40625 683.265625 C 85.699219 683.390625 85.960938 683.5625 86.183594 683.789062 C 86.410156 684.011719 86.582031 684.273438 86.703125 684.566406 C 86.828125 684.859375 86.886719 685.164062 86.886719 685.484375 Z M 86.886719 685.484375 "/></g><g clip-rule="nonzero" clip-path="url(#bbda331974)"><path style=" stroke:none;fill-rule:nonzero;fill:#9b18d4;fill-opacity:1;" d="M 100.773438 685.484375 C 100.773438 685.800781 100.710938 686.109375 100.589844 686.402344 C 100.46875 686.695312 100.292969 686.957031 100.070312 687.179688 C 99.84375 687.40625 99.585938 687.578125 99.292969 687.699219 C 98.996094 687.820312 98.691406 687.882812 98.375 687.882812 C 98.054688 687.882812 97.75 687.820312 97.453125 687.699219 C 97.160156 687.578125 96.902344 687.40625 96.675781 687.179688 C 96.453125 686.957031 96.277344 686.695312 96.15625 686.402344 C 96.035156 686.109375 95.972656 685.800781 95.972656 685.484375 C 95.972656 685.164062 96.035156 684.859375 96.15625 684.566406 C 96.277344 684.273438 96.453125 684.011719 96.675781 683.789062 C 96.902344 683.5625 97.160156 683.390625 97.453125 683.265625 C 97.75 683.144531 98.054688 683.085938 98.375 683.085938 C 98.691406 683.085938 98.996094 683.144531 99.292969 683.265625 C 99.585938 683.390625 99.84375 683.5625 100.070312 683.789062 C 100.292969 684.011719 100.46875 684.273438 100.589844 684.566406 C 100.710938 684.859375 100.773438 685.164062 100.773438 685.484375 Z M 100.773438 685.484375 "/></g><g clip-rule="nonzero" clip-path="url(#d41dd44972)"><path style=" stroke:none;fill-rule:nonzero;fill:#9b18d4;fill-opacity:1;" d="M 114.65625 685.484375 C 114.65625 685.800781 114.597656 686.109375 114.476562 686.402344 C 114.351562 686.695312 114.179688 686.957031 113.953125 687.179688 C 113.730469 687.40625 113.46875 687.578125 113.175781 687.699219 C 112.882812 687.820312 112.578125 687.882812 112.257812 687.882812 C 111.941406 687.882812 111.632812 687.820312 111.339844 687.699219 C 111.046875 687.578125 110.785156 687.40625 110.5625 687.179688 C 110.335938 686.957031 110.164062 686.695312 110.042969 686.402344 C 109.917969 686.109375 109.859375 685.800781 109.859375 685.484375 C 109.859375 685.164062 109.917969 684.859375 110.042969 684.566406 C 110.164062 684.273438 110.335938 684.011719 110.5625 683.789062 C 110.785156 683.5625 111.046875 683.390625 111.339844 683.265625 C 111.632812 683.144531 111.941406 683.085938 112.257812 683.085938 C 112.578125 683.085938 112.882812 683.144531 113.175781 683.265625 C 113.46875 683.390625 113.730469 683.5625 113.953125 683.789062 C 114.179688 684.011719 114.351562 684.273438 114.476562 684.566406 C 114.597656 684.859375 114.65625 685.164062 114.65625 685.484375 Z M 114.65625 685.484375 "/></g><g clip-rule="nonzero" clip-path="url(#99bea2fa00)"><path style=" stroke:none;fill-rule:nonzero;fill:#9b18d4;fill-opacity:1;" d="M 59.117188 699.367188 C 59.117188 699.6875 59.054688 699.992188 58.933594 700.285156 C 58.8125 700.582031 58.640625 700.839844 58.414062 701.066406 C 58.191406 701.289062 57.929688 701.464844 57.636719 701.585938 C 57.34375 701.707031 57.035156 701.769531 56.71875 701.769531 C 56.398438 701.769531 56.09375 701.707031 55.800781 701.585938 C 55.503906 701.464844 55.246094 701.289062 55.019531 701.066406 C 54.796875 700.839844 54.621094 700.582031 54.5 700.285156 C 54.378906 699.992188 54.320312 699.6875 54.320312 699.367188 C 54.320312 699.050781 54.378906 698.746094 54.5 698.449219 C 54.621094 698.15625 54.796875 697.898438 55.019531 697.671875 C 55.246094 697.445312 55.503906 697.273438 55.800781 697.152344 C 56.09375 697.03125 56.398438 696.96875 56.71875 696.96875 C 57.035156 696.96875 57.34375 697.03125 57.636719 697.152344 C 57.929688 697.273438 58.191406 697.445312 58.414062 697.671875 C 58.640625 697.898438 58.8125 698.15625 58.933594 698.449219 C 59.054688 698.746094 59.117188 699.050781 59.117188 699.367188 Z M 59.117188 699.367188 "/></g><path style=" stroke:none;fill-rule:nonzero;fill:#9b18d4;fill-opacity:1;" d="M 73.003906 699.367188 C 73.003906 699.6875 72.941406 699.992188 72.820312 700.285156 C 72.699219 700.582031 72.523438 700.839844 72.300781 701.066406 C 72.074219 701.289062 71.816406 701.464844 71.519531 701.585938 C 71.226562 701.707031 70.921875 701.769531 70.601562 701.769531 C 70.285156 701.769531 69.980469 701.707031 69.683594 701.585938 C 69.390625 701.464844 69.132812 701.289062 68.90625 701.066406 C 68.679688 700.839844 68.507812 700.582031 68.386719 700.285156 C 68.265625 699.992188 68.203125 699.6875 68.203125 699.367188 C 68.203125 699.050781 68.265625 698.746094 68.386719 698.449219 C 68.507812 698.15625 68.679688 697.898438 68.90625 697.671875 C 69.132812 697.445312 69.390625 697.273438 69.683594 697.152344 C 69.980469 697.03125 70.285156 696.96875 70.601562 696.96875 C 70.921875 696.96875 71.226562 697.03125 71.519531 697.152344 C 71.816406 697.273438 72.074219 697.445312 72.300781 697.671875 C 72.523438 697.898438 72.699219 698.15625 72.820312 698.449219 C 72.941406 698.746094 73.003906 699.050781 73.003906 699.367188 Z M 73.003906 699.367188 "/><path style=" stroke:none;fill-rule:nonzero;fill:#9b18d4;fill-opacity:1;" d="M 86.886719 699.367188 C 86.886719 699.6875 86.828125 699.992188 86.703125 700.285156 C 86.582031 700.582031 86.410156 700.839844 86.183594 701.066406 C 85.960938 701.289062 85.699219 701.464844 85.40625 701.585938 C 85.113281 701.707031 84.804688 701.769531 84.488281 701.769531 C 84.171875 701.769531 83.863281 701.707031 83.570312 701.585938 C 83.277344 701.464844 83.015625 701.289062 82.792969 701.066406 C 82.566406 700.839844 82.394531 700.582031 82.269531 700.285156 C 82.148438 699.992188 82.089844 699.6875 82.089844 699.367188 C 82.089844 699.050781 82.148438 698.746094 82.269531 698.449219 C 82.394531 698.15625 82.566406 697.898438 82.792969 697.671875 C 83.015625 697.445312 83.277344 697.273438 83.570312 697.152344 C 83.863281 697.03125 84.171875 696.96875 84.488281 696.96875 C 84.804688 696.96875 85.113281 697.03125 85.40625 697.152344 C 85.699219 697.273438 85.960938 697.445312 86.183594 697.671875 C 86.410156 697.898438 86.582031 698.15625 86.703125 698.449219 C 86.828125 698.746094 86.886719 699.050781 86.886719 699.367188 Z M 86.886719 699.367188 "/><path style=" stroke:none;fill-rule:nonzero;fill:#9b18d4;fill-opacity:1;" d="M 100.773438 699.367188 C 100.773438 699.6875 100.710938 699.992188 100.589844 700.285156 C 100.46875 700.582031 100.292969 700.839844 100.070312 701.066406 C 99.84375 701.289062 99.585938 701.464844 99.292969 701.585938 C 98.996094 701.707031 98.691406 701.769531 98.375 701.769531 C 98.054688 701.769531 97.75 701.707031 97.453125 701.585938 C 97.160156 701.464844 96.902344 701.289062 96.675781 701.066406 C 96.453125 700.839844 96.277344 700.582031 96.15625 700.285156 C 96.035156 699.992188 95.972656 699.6875 95.972656 699.367188 C 95.972656 699.050781 96.035156 698.746094 96.15625 698.449219 C 96.277344 698.15625 96.453125 697.898438 96.675781 697.671875 C 96.902344 697.445312 97.160156 697.273438 97.453125 697.152344 C 97.75 697.03125 98.054688 696.96875 98.375 696.96875 C 98.691406 696.96875 98.996094 697.03125 99.292969 697.152344 C 99.585938 697.273438 99.84375 697.445312 100.070312 697.671875 C 100.292969 697.898438 100.46875 698.15625 100.589844 698.449219 C 100.710938 698.746094 100.773438 699.050781 100.773438 699.367188 Z M 100.773438 699.367188 "/><path style=" stroke:none;fill-rule:nonzero;fill:#9b18d4;fill-opacity:1;" d="M 114.65625 699.367188 C 114.65625 699.6875 114.597656 699.992188 114.476562 700.285156 C 114.351562 700.582031 114.179688 700.839844 113.953125 701.066406 C 113.730469 701.289062 113.46875 701.464844 113.175781 701.585938 C 112.882812 701.707031 112.578125 701.769531 112.257812 701.769531 C 111.941406 701.769531 111.632812 701.707031 111.339844 701.585938 C 111.046875 701.464844 110.785156 701.289062 110.5625 701.066406 C 110.335938 700.839844 110.164062 700.582031 110.042969 700.285156 C 109.917969 699.992188 109.859375 699.6875 109.859375 699.367188 C 109.859375 699.050781 109.917969 698.746094 110.042969 698.449219 C 110.164062 698.15625 110.335938 697.898438 110.5625 697.671875 C 110.785156 697.445312 111.046875 697.273438 111.339844 697.152344 C 111.632812 697.03125 111.941406 696.96875 112.257812 696.96875 C 112.578125 696.96875 112.882812 697.03125 113.175781 697.152344 C 113.46875 697.273438 113.730469 697.445312 113.953125 697.671875 C 114.179688 697.898438 114.351562 698.15625 114.476562 698.449219 C 114.597656 698.746094 114.65625 699.050781 114.65625 699.367188 Z M 114.65625 699.367188 "/><g clip-rule="nonzero" clip-path="url(#401c813c49)"><path style=" stroke:none;fill-rule:nonzero;fill:#9b18d4;fill-opacity:1;" d="M 59.117188 713.253906 C 59.117188 713.570312 59.054688 713.878906 58.933594 714.171875 C 58.8125 714.464844 58.640625 714.726562 58.414062 714.949219 C 58.191406 715.175781 57.929688 715.347656 57.636719 715.46875 C 57.34375 715.59375 57.035156 715.652344 56.71875 715.652344 C 56.398438 715.652344 56.09375 715.59375 55.800781 715.46875 C 55.503906 715.347656 55.246094 715.175781 55.019531 714.949219 C 54.796875 714.726562 54.621094 714.464844 54.5 714.171875 C 54.378906 713.878906 54.320312 713.570312 54.320312 713.253906 C 54.320312 712.9375 54.378906 712.628906 54.5 712.335938 C 54.621094 712.042969 54.796875 711.78125 55.019531 711.558594 C 55.246094 711.332031 55.503906 711.160156 55.800781 711.039062 C 56.09375 710.914062 56.398438 710.855469 56.71875 710.855469 C 57.035156 710.855469 57.34375 710.914062 57.636719 711.039062 C 57.929688 711.160156 58.191406 711.332031 58.414062 711.558594 C 58.640625 711.78125 58.8125 712.042969 58.933594 712.335938 C 59.054688 712.628906 59.117188 712.9375 59.117188 713.253906 Z M 59.117188 713.253906 "/></g><path style=" stroke:none;fill-rule:nonzero;fill:#9b18d4;fill-opacity:1;" d="M 73.003906 713.253906 C 73.003906 713.570312 72.941406 713.878906 72.820312 714.171875 C 72.699219 714.464844 72.523438 714.726562 72.300781 714.949219 C 72.074219 715.175781 71.816406 715.347656 71.519531 715.46875 C 71.226562 715.59375 70.921875 715.652344 70.601562 715.652344 C 70.285156 715.652344 69.980469 715.59375 69.683594 715.46875 C 69.390625 715.347656 69.132812 715.175781 68.90625 714.949219 C 68.679688 714.726562 68.507812 714.464844 68.386719 714.171875 C 68.265625 713.878906 68.203125 713.570312 68.203125 713.253906 C 68.203125 712.9375 68.265625 712.628906 68.386719 712.335938 C 68.507812 712.042969 68.679688 711.78125 68.90625 711.558594 C 69.132812 711.332031 69.390625 711.160156 69.683594 711.039062 C 69.980469 710.914062 70.285156 710.855469 70.601562 710.855469 C 70.921875 710.855469 71.226562 710.914062 71.519531 711.039062 C 71.816406 711.160156 72.074219 711.332031 72.300781 711.558594 C 72.523438 711.78125 72.699219 712.042969 72.820312 712.335938 C 72.941406 712.628906 73.003906 712.9375 73.003906 713.253906 Z M 73.003906 713.253906 "/><path style=" stroke:none;fill-rule:nonzero;fill:#9b18d4;fill-opacity:1;" d="M 86.886719 713.253906 C 86.886719 713.570312 86.828125 713.878906 86.703125 714.171875 C 86.582031 714.464844 86.410156 714.726562 86.183594 714.949219 C 85.960938 715.175781 85.699219 715.347656 85.40625 715.46875 C 85.113281 715.59375 84.804688 715.652344 84.488281 715.652344 C 84.171875 715.652344 83.863281 715.59375 83.570312 715.46875 C 83.277344 715.347656 83.015625 715.175781 82.792969 714.949219 C 82.566406 714.726562 82.394531 714.464844 82.269531 714.171875 C 82.148438 713.878906 82.089844 713.570312 82.089844 713.253906 C 82.089844 712.9375 82.148438 712.628906 82.269531 712.335938 C 82.394531 712.042969 82.566406 711.78125 82.792969 711.558594 C 83.015625 711.332031 83.277344 711.160156 83.570312 711.039062 C 83.863281 710.914062 84.171875 710.855469 84.488281 710.855469 C 84.804688 710.855469 85.113281 710.914062 85.40625 711.039062 C 85.699219 711.160156 85.960938 711.332031 86.183594 711.558594 C 86.410156 711.78125 86.582031 712.042969 86.703125 712.335938 C 86.828125 712.628906 86.886719 712.9375 86.886719 713.253906 Z M 86.886719 713.253906 "/><path style=" stroke:none;fill-rule:nonzero;fill:#9b18d4;fill-opacity:1;" d="M 100.773438 713.253906 C 100.773438 713.570312 100.710938 713.878906 100.589844 714.171875 C 100.46875 714.464844 100.292969 714.726562 100.070312 714.949219 C 99.84375 715.175781 99.585938 715.347656 99.292969 715.46875 C 98.996094 715.59375 98.691406 715.652344 98.375 715.652344 C 98.054688 715.652344 97.75 715.59375 97.453125 715.46875 C 97.160156 715.347656 96.902344 715.175781 96.675781 714.949219 C 96.453125 714.726562 96.277344 714.464844 96.15625 714.171875 C 96.035156 713.878906 95.972656 713.570312 95.972656 713.253906 C 95.972656 712.9375 96.035156 712.628906 96.15625 712.335938 C 96.277344 712.042969 96.453125 711.78125 96.675781 711.558594 C 96.902344 711.332031 97.160156 711.160156 97.453125 711.039062 C 97.75 710.914062 98.054688 710.855469 98.375 710.855469 C 98.691406 710.855469 98.996094 710.914062 99.292969 711.039062 C 99.585938 711.160156 99.84375 711.332031 100.070312 711.558594 C 100.292969 711.78125 100.46875 712.042969 100.589844 712.335938 C 100.710938 712.628906 100.773438 712.9375 100.773438 713.253906 Z M 100.773438 713.253906 "/><path style=" stroke:none;fill-rule:nonzero;fill:#9b18d4;fill-opacity:1;" d="M 114.65625 713.253906 C 114.65625 713.570312 114.597656 713.878906 114.476562 714.171875 C 114.351562 714.464844 114.179688 714.726562 113.953125 714.949219 C 113.730469 715.175781 113.46875 715.347656 113.175781 715.46875 C 112.882812 715.59375 112.578125 715.652344 112.257812 715.652344 C 111.941406 715.652344 111.632812 715.59375 111.339844 715.46875 C 111.046875 715.347656 110.785156 715.175781 110.5625 714.949219 C 110.335938 714.726562 110.164062 714.464844 110.042969 714.171875 C 109.917969 713.878906 109.859375 713.570312 109.859375 713.253906 C 109.859375 712.9375 109.917969 712.628906 110.042969 712.335938 C 110.164062 712.042969 110.335938 711.78125 110.5625 711.558594 C 110.785156 711.332031 111.046875 711.160156 111.339844 711.039062 C 111.632812 710.914062 111.941406 710.855469 112.257812 710.855469 C 112.578125 710.855469 112.882812 710.914062 113.175781 711.039062 C 113.46875 711.160156 113.730469 711.332031 113.953125 711.558594 C 114.179688 711.78125 114.351562 712.042969 114.476562 712.335938 C 114.597656 712.628906 114.65625 712.9375 114.65625 713.253906 Z M 114.65625 713.253906 "/><g clip-rule="nonzero" clip-path="url(#81a96172c8)"><path style=" stroke:none;fill-rule:nonzero;fill:#9b18d4;fill-opacity:1;" d="M 59.117188 727.140625 C 59.117188 727.457031 59.054688 727.761719 58.933594 728.058594 C 58.8125 728.351562 58.640625 728.609375 58.414062 728.835938 C 58.191406 729.0625 57.929688 729.234375 57.636719 729.355469 C 57.34375 729.476562 57.035156 729.539062 56.71875 729.539062 C 56.398438 729.539062 56.09375 729.476562 55.800781 729.355469 C 55.503906 729.234375 55.246094 729.0625 55.019531 728.835938 C 54.796875 728.609375 54.621094 728.351562 54.5 728.058594 C 54.378906 727.761719 54.320312 727.457031 54.320312 727.140625 C 54.320312 726.820312 54.378906 726.515625 54.5 726.222656 C 54.621094 725.925781 54.796875 725.667969 55.019531 725.441406 C 55.246094 725.21875 55.503906 725.042969 55.800781 724.921875 C 56.09375 724.800781 56.398438 724.738281 56.71875 724.738281 C 57.035156 724.738281 57.34375 724.800781 57.636719 724.921875 C 57.929688 725.042969 58.191406 725.21875 58.414062 725.441406 C 58.640625 725.667969 58.8125 725.925781 58.933594 726.222656 C 59.054688 726.515625 59.117188 726.820312 59.117188 727.140625 Z M 59.117188 727.140625 "/></g><path style=" stroke:none;fill-rule:nonzero;fill:#9b18d4;fill-opacity:1;" d="M 73.003906 727.140625 C 73.003906 727.457031 72.941406 727.761719 72.820312 728.058594 C 72.699219 728.351562 72.523438 728.609375 72.300781 728.835938 C 72.074219 729.0625 71.816406 729.234375 71.519531 729.355469 C 71.226562 729.476562 70.921875 729.539062 70.601562 729.539062 C 70.285156 729.539062 69.980469 729.476562 69.683594 729.355469 C 69.390625 729.234375 69.132812 729.0625 68.90625 728.835938 C 68.679688 728.609375 68.507812 728.351562 68.386719 728.058594 C 68.265625 727.761719 68.203125 727.457031 68.203125 727.140625 C 68.203125 726.820312 68.265625 726.515625 68.386719 726.222656 C 68.507812 725.925781 68.679688 725.667969 68.90625 725.441406 C 69.132812 725.21875 69.390625 725.042969 69.683594 724.921875 C 69.980469 724.800781 70.285156 724.738281 70.601562 724.738281 C 70.921875 724.738281 71.226562 724.800781 71.519531 724.921875 C 71.816406 725.042969 72.074219 725.21875 72.300781 725.441406 C 72.523438 725.667969 72.699219 725.925781 72.820312 726.222656 C 72.941406 726.515625 73.003906 726.820312 73.003906 727.140625 Z M 73.003906 727.140625 "/><path style=" stroke:none;fill-rule:nonzero;fill:#9b18d4;fill-opacity:1;" d="M 86.886719 727.140625 C 86.886719 727.457031 86.828125 727.761719 86.703125 728.058594 C 86.582031 728.351562 86.410156 728.609375 86.183594 728.835938 C 85.960938 729.0625 85.699219 729.234375 85.40625 729.355469 C 85.113281 729.476562 84.804688 729.539062 84.488281 729.539062 C 84.171875 729.539062 83.863281 729.476562 83.570312 729.355469 C 83.277344 729.234375 83.015625 729.0625 82.792969 728.835938 C 82.566406 728.609375 82.394531 728.351562 82.269531 728.058594 C 82.148438 727.761719 82.089844 727.457031 82.089844 727.140625 C 82.089844 726.820312 82.148438 726.515625 82.269531 726.222656 C 82.394531 725.925781 82.566406 725.667969 82.792969 725.441406 C 83.015625 725.21875 83.277344 725.042969 83.570312 724.921875 C 83.863281 724.800781 84.171875 724.738281 84.488281 724.738281 C 84.804688 724.738281 85.113281 724.800781 85.40625 724.921875 C 85.699219 725.042969 85.960938 725.21875 86.183594 725.441406 C 86.410156 725.667969 86.582031 725.925781 86.703125 726.222656 C 86.828125 726.515625 86.886719 726.820312 86.886719 727.140625 Z M 86.886719 727.140625 "/><path style=" stroke:none;fill-rule:nonzero;fill:#9b18d4;fill-opacity:1;" d="M 100.773438 727.140625 C 100.773438 727.457031 100.710938 727.761719 100.589844 728.058594 C 100.46875 728.351562 100.292969 728.609375 100.070312 728.835938 C 99.84375 729.0625 99.585938 729.234375 99.292969 729.355469 C 98.996094 729.476562 98.691406 729.539062 98.375 729.539062 C 98.054688 729.539062 97.75 729.476562 97.453125 729.355469 C 97.160156 729.234375 96.902344 729.0625 96.675781 728.835938 C 96.453125 728.609375 96.277344 728.351562 96.15625 728.058594 C 96.035156 727.761719 95.972656 727.457031 95.972656 727.140625 C 95.972656 726.820312 96.035156 726.515625 96.15625 726.222656 C 96.277344 725.925781 96.453125 725.667969 96.675781 725.441406 C 96.902344 725.21875 97.160156 725.042969 97.453125 724.921875 C 97.75 724.800781 98.054688 724.738281 98.375 724.738281 C 98.691406 724.738281 98.996094 724.800781 99.292969 724.921875 C 99.585938 725.042969 99.84375 725.21875 100.070312 725.441406 C 100.292969 725.667969 100.46875 725.925781 100.589844 726.222656 C 100.710938 726.515625 100.773438 726.820312 100.773438 727.140625 Z M 100.773438 727.140625 "/><path style=" stroke:none;fill-rule:nonzero;fill:#9b18d4;fill-opacity:1;" d="M 114.65625 727.140625 C 114.65625 727.457031 114.597656 727.761719 114.476562 728.058594 C 114.351562 728.351562 114.179688 728.609375 113.953125 728.835938 C 113.730469 729.0625 113.46875 729.234375 113.175781 729.355469 C 112.882812 729.476562 112.578125 729.539062 112.257812 729.539062 C 111.941406 729.539062 111.632812 729.476562 111.339844 729.355469 C 111.046875 729.234375 110.785156 729.0625 110.5625 728.835938 C 110.335938 728.609375 110.164062 728.351562 110.042969 728.058594 C 109.917969 727.761719 109.859375 727.457031 109.859375 727.140625 C 109.859375 726.820312 109.917969 726.515625 110.042969 726.222656 C 110.164062 725.925781 110.335938 725.667969 110.5625 725.441406 C 110.785156 725.21875 111.046875 725.042969 111.339844 724.921875 C 111.632812 724.800781 111.941406 724.738281 112.257812 724.738281 C 112.578125 724.738281 112.882812 724.800781 113.175781 724.921875 C 113.46875 725.042969 113.730469 725.21875 113.953125 725.441406 C 114.179688 725.667969 114.351562 725.925781 114.476562 726.222656 C 114.597656 726.515625 114.65625 726.820312 114.65625 727.140625 Z M 114.65625 727.140625 "/><path style=" stroke:none;fill-rule:nonzero;fill:#9b18d4;fill-opacity:1;" d="M 128.542969 727.140625 C 128.542969 727.457031 128.480469 727.761719 128.359375 728.058594 C 128.238281 728.351562 128.066406 728.609375 127.839844 728.835938 C 127.613281 729.0625 127.355469 729.234375 127.0625 729.355469 C 126.769531 729.476562 126.460938 729.539062 126.144531 729.539062 C 125.824219 729.539062 125.519531 729.476562 125.226562 729.355469 C 124.929688 729.234375 124.671875 729.0625 124.445312 728.835938 C 124.222656 728.609375 124.046875 728.351562 123.925781 728.058594 C 123.804688 727.761719 123.742188 727.457031 123.746094 727.140625 C 123.742188 726.820312 123.804688 726.515625 123.925781 726.222656 C 124.046875 725.925781 124.222656 725.667969 124.445312 725.441406 C 124.671875 725.21875 124.929688 725.042969 125.226562 724.921875 C 125.519531 724.800781 125.824219 724.738281 126.144531 724.738281 C 126.460938 724.738281 126.769531 724.800781 127.0625 724.921875 C 127.355469 725.042969 127.613281 725.21875 127.839844 725.441406 C 128.066406 725.667969 128.238281 725.925781 128.359375 726.222656 C 128.480469 726.515625 128.542969 726.820312 128.542969 727.140625 Z M 128.542969 727.140625 "/><path style=" stroke:none;fill-rule:nonzero;fill:#9b18d4;fill-opacity:1;" d="M 142.429688 727.140625 C 142.429688 727.457031 142.367188 727.761719 142.246094 728.058594 C 142.125 728.351562 141.949219 728.609375 141.726562 728.835938 C 141.5 729.0625 141.242188 729.234375 140.945312 729.355469 C 140.652344 729.476562 140.347656 729.539062 140.027344 729.539062 C 139.710938 729.539062 139.40625 729.476562 139.109375 729.355469 C 138.816406 729.234375 138.558594 729.0625 138.332031 728.835938 C 138.105469 728.609375 137.933594 728.351562 137.8125 728.058594 C 137.691406 727.761719 137.628906 727.457031 137.628906 727.140625 C 137.628906 726.820312 137.691406 726.515625 137.8125 726.222656 C 137.933594 725.925781 138.105469 725.667969 138.332031 725.441406 C 138.558594 725.21875 138.816406 725.042969 139.109375 724.921875 C 139.40625 724.800781 139.710938 724.738281 140.027344 724.738281 C 140.347656 724.738281 140.652344 724.800781 140.945312 724.921875 C 141.242188 725.042969 141.5 725.21875 141.726562 725.441406 C 141.949219 725.667969 142.125 725.925781 142.246094 726.222656 C 142.367188 726.515625 142.429688 726.820312 142.429688 727.140625 Z M 142.429688 727.140625 "/><g clip-rule="nonzero" clip-path="url(#62e9fc8dc4)"><path style=" stroke:none;fill-rule:nonzero;fill:#9b18d4;fill-opacity:1;" d="M 156.3125 727.140625 C 156.3125 727.457031 156.253906 727.761719 156.128906 728.058594 C 156.007812 728.351562 155.835938 728.609375 155.609375 728.835938 C 155.386719 729.0625 155.125 729.234375 154.832031 729.355469 C 154.539062 729.476562 154.230469 729.539062 153.914062 729.539062 C 153.59375 729.539062 153.289062 729.476562 152.996094 729.355469 C 152.703125 729.234375 152.441406 729.0625 152.21875 728.835938 C 151.992188 728.609375 151.820312 728.351562 151.695312 728.058594 C 151.574219 727.761719 151.515625 727.457031 151.515625 727.140625 C 151.515625 726.820312 151.574219 726.515625 151.695312 726.222656 C 151.820312 725.925781 151.992188 725.667969 152.21875 725.441406 C 152.441406 725.21875 152.703125 725.042969 152.996094 724.921875 C 153.289062 724.800781 153.59375 724.738281 153.914062 724.738281 C 154.230469 724.738281 154.539062 724.800781 154.832031 724.921875 C 155.125 725.042969 155.386719 725.21875 155.609375 725.441406 C 155.835938 725.667969 156.007812 725.925781 156.128906 726.222656 C 156.253906 726.515625 156.3125 726.820312 156.3125 727.140625 Z M 156.3125 727.140625 "/></g><g clip-rule="nonzero" clip-path="url(#86f78f54e6)"><path style=" stroke:none;fill-rule:nonzero;fill:#9b18d4;fill-opacity:1;" d="M 59.117188 741.023438 C 59.117188 741.34375 59.054688 741.648438 58.933594 741.941406 C 58.8125 742.234375 58.640625 742.496094 58.414062 742.722656 C 58.191406 742.945312 57.929688 743.117188 57.636719 743.242188 C 57.34375 743.363281 57.035156 743.421875 56.71875 743.421875 C 56.398438 743.421875 56.09375 743.363281 55.800781 743.242188 C 55.503906 743.117188 55.246094 742.945312 55.019531 742.722656 C 54.796875 742.496094 54.621094 742.234375 54.5 741.941406 C 54.378906 741.648438 54.320312 741.34375 54.320312 741.023438 C 54.320312 740.707031 54.378906 740.398438 54.5 740.105469 C 54.621094 739.8125 54.796875 739.550781 55.019531 739.328125 C 55.246094 739.101562 55.503906 738.929688 55.800781 738.808594 C 56.09375 738.6875 56.398438 738.625 56.71875 738.625 C 57.035156 738.625 57.34375 738.6875 57.636719 738.808594 C 57.929688 738.929688 58.191406 739.101562 58.414062 739.328125 C 58.640625 739.550781 58.8125 739.8125 58.933594 740.105469 C 59.054688 740.398438 59.117188 740.707031 59.117188 741.023438 Z M 59.117188 741.023438 "/></g><path style=" stroke:none;fill-rule:nonzero;fill:#9b18d4;fill-opacity:1;" d="M 73.003906 741.023438 C 73.003906 741.34375 72.941406 741.648438 72.820312 741.941406 C 72.699219 742.234375 72.523438 742.496094 72.300781 742.722656 C 72.074219 742.945312 71.816406 743.117188 71.519531 743.242188 C 71.226562 743.363281 70.921875 743.421875 70.601562 743.421875 C 70.285156 743.421875 69.980469 743.363281 69.683594 743.242188 C 69.390625 743.117188 69.132812 742.945312 68.90625 742.722656 C 68.679688 742.496094 68.507812 742.234375 68.386719 741.941406 C 68.265625 741.648438 68.203125 741.34375 68.203125 741.023438 C 68.203125 740.707031 68.265625 740.398438 68.386719 740.105469 C 68.507812 739.8125 68.679688 739.550781 68.90625 739.328125 C 69.132812 739.101562 69.390625 738.929688 69.683594 738.808594 C 69.980469 738.6875 70.285156 738.625 70.601562 738.625 C 70.921875 738.625 71.226562 738.6875 71.519531 738.808594 C 71.816406 738.929688 72.074219 739.101562 72.300781 739.328125 C 72.523438 739.550781 72.699219 739.8125 72.820312 740.105469 C 72.941406 740.398438 73.003906 740.707031 73.003906 741.023438 Z M 73.003906 741.023438 "/><path style=" stroke:none;fill-rule:nonzero;fill:#9b18d4;fill-opacity:1;" d="M 86.886719 741.023438 C 86.886719 741.34375 86.828125 741.648438 86.703125 741.941406 C 86.582031 742.234375 86.410156 742.496094 86.183594 742.722656 C 85.960938 742.945312 85.699219 743.117188 85.40625 743.242188 C 85.113281 743.363281 84.804688 743.421875 84.488281 743.421875 C 84.171875 743.421875 83.863281 743.363281 83.570312 743.242188 C 83.277344 743.117188 83.015625 742.945312 82.792969 742.722656 C 82.566406 742.496094 82.394531 742.234375 82.269531 741.941406 C 82.148438 741.648438 82.089844 741.34375 82.089844 741.023438 C 82.089844 740.707031 82.148438 740.398438 82.269531 740.105469 C 82.394531 739.8125 82.566406 739.550781 82.792969 739.328125 C 83.015625 739.101562 83.277344 738.929688 83.570312 738.808594 C 83.863281 738.6875 84.171875 738.625 84.488281 738.625 C 84.804688 738.625 85.113281 738.6875 85.40625 738.808594 C 85.699219 738.929688 85.960938 739.101562 86.183594 739.328125 C 86.410156 739.550781 86.582031 739.8125 86.703125 740.105469 C 86.828125 740.398438 86.886719 740.707031 86.886719 741.023438 Z M 86.886719 741.023438 "/><path style=" stroke:none;fill-rule:nonzero;fill:#9b18d4;fill-opacity:1;" d="M 100.773438 741.023438 C 100.773438 741.34375 100.710938 741.648438 100.589844 741.941406 C 100.46875 742.234375 100.292969 742.496094 100.070312 742.722656 C 99.84375 742.945312 99.585938 743.117188 99.292969 743.242188 C 98.996094 743.363281 98.691406 743.421875 98.375 743.421875 C 98.054688 743.421875 97.75 743.363281 97.453125 743.242188 C 97.160156 743.117188 96.902344 742.945312 96.675781 742.722656 C 96.453125 742.496094 96.277344 742.234375 96.15625 741.941406 C 96.035156 741.648438 95.972656 741.34375 95.972656 741.023438 C 95.972656 740.707031 96.035156 740.398438 96.15625 740.105469 C 96.277344 739.8125 96.453125 739.550781 96.675781 739.328125 C 96.902344 739.101562 97.160156 738.929688 97.453125 738.808594 C 97.75 738.6875 98.054688 738.625 98.375 738.625 C 98.691406 738.625 98.996094 738.6875 99.292969 738.808594 C 99.585938 738.929688 99.84375 739.101562 100.070312 739.328125 C 100.292969 739.550781 100.46875 739.8125 100.589844 740.105469 C 100.710938 740.398438 100.773438 740.707031 100.773438 741.023438 Z M 100.773438 741.023438 "/><path style=" stroke:none;fill-rule:nonzero;fill:#9b18d4;fill-opacity:1;" d="M 114.65625 741.023438 C 114.65625 741.34375 114.597656 741.648438 114.476562 741.941406 C 114.351562 742.234375 114.179688 742.496094 113.953125 742.722656 C 113.730469 742.945312 113.46875 743.117188 113.175781 743.242188 C 112.882812 743.363281 112.578125 743.421875 112.257812 743.421875 C 111.941406 743.421875 111.632812 743.363281 111.339844 743.242188 C 111.046875 743.117188 110.785156 742.945312 110.5625 742.722656 C 110.335938 742.496094 110.164062 742.234375 110.042969 741.941406 C 109.917969 741.648438 109.859375 741.34375 109.859375 741.023438 C 109.859375 740.707031 109.917969 740.398438 110.042969 740.105469 C 110.164062 739.8125 110.335938 739.550781 110.5625 739.328125 C 110.785156 739.101562 111.046875 738.929688 111.339844 738.808594 C 111.632812 738.6875 111.941406 738.625 112.257812 738.625 C 112.578125 738.625 112.882812 738.6875 113.175781 738.808594 C 113.46875 738.929688 113.730469 739.101562 113.953125 739.328125 C 114.179688 739.550781 114.351562 739.8125 114.476562 740.105469 C 114.597656 740.398438 114.65625 740.707031 114.65625 741.023438 Z M 114.65625 741.023438 "/><path style=" stroke:none;fill-rule:nonzero;fill:#9b18d4;fill-opacity:1;" d="M 128.542969 741.023438 C 128.542969 741.34375 128.480469 741.648438 128.359375 741.941406 C 128.238281 742.234375 128.066406 742.496094 127.839844 742.722656 C 127.613281 742.945312 127.355469 743.117188 127.0625 743.242188 C 126.769531 743.363281 126.460938 743.421875 126.144531 743.421875 C 125.824219 743.421875 125.519531 743.363281 125.226562 743.242188 C 124.929688 743.117188 124.671875 742.945312 124.445312 742.722656 C 124.222656 742.496094 124.046875 742.234375 123.925781 741.941406 C 123.804688 741.648438 123.742188 741.34375 123.746094 741.023438 C 123.742188 740.707031 123.804688 740.398438 123.925781 740.105469 C 124.046875 739.8125 124.222656 739.550781 124.445312 739.328125 C 124.671875 739.101562 124.929688 738.929688 125.226562 738.808594 C 125.519531 738.6875 125.824219 738.625 126.144531 738.625 C 126.460938 738.625 126.769531 738.6875 127.0625 738.808594 C 127.355469 738.929688 127.613281 739.101562 127.839844 739.328125 C 128.066406 739.550781 128.238281 739.8125 128.359375 740.105469 C 128.480469 740.398438 128.542969 740.707031 128.542969 741.023438 Z M 128.542969 741.023438 "/><path style=" stroke:none;fill-rule:nonzero;fill:#9b18d4;fill-opacity:1;" d="M 142.429688 741.023438 C 142.429688 741.34375 142.367188 741.648438 142.246094 741.941406 C 142.125 742.234375 141.949219 742.496094 141.726562 742.722656 C 141.5 742.945312 141.242188 743.117188 140.945312 743.242188 C 140.652344 743.363281 140.347656 743.421875 140.027344 743.421875 C 139.710938 743.421875 139.40625 743.363281 139.109375 743.242188 C 138.816406 743.117188 138.558594 742.945312 138.332031 742.722656 C 138.105469 742.496094 137.933594 742.234375 137.8125 741.941406 C 137.691406 741.648438 137.628906 741.34375 137.628906 741.023438 C 137.628906 740.707031 137.691406 740.398438 137.8125 740.105469 C 137.933594 739.8125 138.105469 739.550781 138.332031 739.328125 C 138.558594 739.101562 138.816406 738.929688 139.109375 738.808594 C 139.40625 738.6875 139.710938 738.625 140.027344 738.625 C 140.347656 738.625 140.652344 738.6875 140.945312 738.808594 C 141.242188 738.929688 141.5 739.101562 141.726562 739.328125 C 141.949219 739.550781 142.125 739.8125 142.246094 740.105469 C 142.367188 740.398438 142.429688 740.707031 142.429688 741.023438 Z M 142.429688 741.023438 "/><g clip-rule="nonzero" clip-path="url(#d865007be2)"><path style=" stroke:none;fill-rule:nonzero;fill:#9b18d4;fill-opacity:1;" d="M 156.3125 741.023438 C 156.3125 741.34375 156.253906 741.648438 156.128906 741.941406 C 156.007812 742.234375 155.835938 742.496094 155.609375 742.722656 C 155.386719 742.945312 155.125 743.117188 154.832031 743.242188 C 154.539062 743.363281 154.230469 743.421875 153.914062 743.421875 C 153.59375 743.421875 153.289062 743.363281 152.996094 743.242188 C 152.703125 743.117188 152.441406 742.945312 152.21875 742.722656 C 151.992188 742.496094 151.820312 742.234375 151.695312 741.941406 C 151.574219 741.648438 151.515625 741.34375 151.515625 741.023438 C 151.515625 740.707031 151.574219 740.398438 151.695312 740.105469 C 151.820312 739.8125 151.992188 739.550781 152.21875 739.328125 C 152.441406 739.101562 152.703125 738.929688 152.996094 738.808594 C 153.289062 738.6875 153.59375 738.625 153.914062 738.625 C 154.230469 738.625 154.539062 738.6875 154.832031 738.808594 C 155.125 738.929688 155.386719 739.101562 155.609375 739.328125 C 155.835938 739.550781 156.007812 739.8125 156.128906 740.105469 C 156.253906 740.398438 156.3125 740.707031 156.3125 741.023438 Z M 156.3125 741.023438 "/></g><path style=" stroke:none;fill-rule:nonzero;fill:#9b18d4;fill-opacity:1;" d="M 100.773438 754.910156 C 100.773438 755.226562 100.710938 755.535156 100.589844 755.828125 C 100.46875 756.121094 100.292969 756.382812 100.070312 756.605469 C 99.84375 756.832031 99.585938 757.003906 99.292969 757.125 C 98.996094 757.246094 98.691406 757.308594 98.375 757.308594 C 98.054688 757.308594 97.75 757.246094 97.453125 757.125 C 97.160156 757.003906 96.902344 756.832031 96.675781 756.605469 C 96.453125 756.382812 96.277344 756.121094 96.15625 755.828125 C 96.035156 755.535156 95.972656 755.226562 95.972656 754.910156 C 95.972656 754.589844 96.035156 754.285156 96.15625 753.992188 C 96.277344 753.695312 96.453125 753.4375 96.675781 753.210938 C 96.902344 752.988281 97.160156 752.8125 97.453125 752.691406 C 97.75 752.570312 98.054688 752.511719 98.375 752.511719 C 98.691406 752.511719 98.996094 752.570312 99.292969 752.691406 C 99.585938 752.8125 99.84375 752.988281 100.070312 753.210938 C 100.292969 753.4375 100.46875 753.695312 100.589844 753.992188 C 100.710938 754.285156 100.773438 754.589844 100.773438 754.910156 Z M 100.773438 754.910156 "/><path style=" stroke:none;fill-rule:nonzero;fill:#9b18d4;fill-opacity:1;" d="M 114.65625 754.910156 C 114.65625 755.226562 114.597656 755.535156 114.476562 755.828125 C 114.351562 756.121094 114.179688 756.382812 113.953125 756.605469 C 113.730469 756.832031 113.46875 757.003906 113.175781 757.125 C 112.882812 757.246094 112.578125 757.308594 112.257812 757.308594 C 111.941406 757.308594 111.632812 757.246094 111.339844 757.125 C 111.046875 757.003906 110.785156 756.832031 110.5625 756.605469 C 110.335938 756.382812 110.164062 756.121094 110.042969 755.828125 C 109.917969 755.535156 109.859375 755.226562 109.859375 754.910156 C 109.859375 754.589844 109.917969 754.285156 110.042969 753.992188 C 110.164062 753.695312 110.335938 753.4375 110.5625 753.210938 C 110.785156 752.988281 111.046875 752.8125 111.339844 752.691406 C 111.632812 752.570312 111.941406 752.511719 112.257812 752.511719 C 112.578125 752.511719 112.882812 752.570312 113.175781 752.691406 C 113.46875 752.8125 113.730469 752.988281 113.953125 753.210938 C 114.179688 753.4375 114.351562 753.695312 114.476562 753.992188 C 114.597656 754.285156 114.65625 754.589844 114.65625 754.910156 Z M 114.65625 754.910156 "/><path style=" stroke:none;fill-rule:nonzero;fill:#9b18d4;fill-opacity:1;" d="M 128.542969 754.910156 C 128.542969 755.226562 128.480469 755.535156 128.359375 755.828125 C 128.238281 756.121094 128.066406 756.382812 127.839844 756.605469 C 127.613281 756.832031 127.355469 757.003906 127.0625 757.125 C 126.769531 757.246094 126.460938 757.308594 126.144531 757.308594 C 125.824219 757.308594 125.519531 757.246094 125.226562 757.125 C 124.929688 757.003906 124.671875 756.832031 124.445312 756.605469 C 124.222656 756.382812 124.046875 756.121094 123.925781 755.828125 C 123.804688 755.535156 123.742188 755.226562 123.746094 754.910156 C 123.742188 754.589844 123.804688 754.285156 123.925781 753.992188 C 124.046875 753.695312 124.222656 753.4375 124.445312 753.210938 C 124.671875 752.988281 124.929688 752.8125 125.226562 752.691406 C 125.519531 752.570312 125.824219 752.511719 126.144531 752.511719 C 126.460938 752.511719 126.769531 752.570312 127.0625 752.691406 C 127.355469 752.8125 127.613281 752.988281 127.839844 753.210938 C 128.066406 753.4375 128.238281 753.695312 128.359375 753.992188 C 128.480469 754.285156 128.542969 754.589844 128.542969 754.910156 Z M 128.542969 754.910156 "/><path style=" stroke:none;fill-rule:nonzero;fill:#9b18d4;fill-opacity:1;" d="M 142.429688 754.910156 C 142.429688 755.226562 142.367188 755.535156 142.246094 755.828125 C 142.125 756.121094 141.949219 756.382812 141.726562 756.605469 C 141.5 756.832031 141.242188 757.003906 140.945312 757.125 C 140.652344 757.246094 140.347656 757.308594 140.027344 757.308594 C 139.710938 757.308594 139.40625 757.246094 139.109375 757.125 C 138.816406 757.003906 138.558594 756.832031 138.332031 756.605469 C 138.105469 756.382812 137.933594 756.121094 137.8125 755.828125 C 137.691406 755.535156 137.628906 755.226562 137.628906 754.910156 C 137.628906 754.589844 137.691406 754.285156 137.8125 753.992188 C 137.933594 753.695312 138.105469 753.4375 138.332031 753.210938 C 138.558594 752.988281 138.816406 752.8125 139.109375 752.691406 C 139.40625 752.570312 139.710938 752.511719 140.027344 752.511719 C 140.347656 752.511719 140.652344 752.570312 140.945312 752.691406 C 141.242188 752.8125 141.5 752.988281 141.726562 753.210938 C 141.949219 753.4375 142.125 753.695312 142.246094 753.992188 C 142.367188 754.285156 142.429688 754.589844 142.429688 754.910156 Z M 142.429688 754.910156 "/><g clip-rule="nonzero" clip-path="url(#109b833065)"><path style=" stroke:none;fill-rule:nonzero;fill:#9b18d4;fill-opacity:1;" d="M 156.3125 754.910156 C 156.3125 755.226562 156.253906 755.535156 156.128906 755.828125 C 156.007812 756.121094 155.835938 756.382812 155.609375 756.605469 C 155.386719 756.832031 155.125 757.003906 154.832031 757.125 C 154.539062 757.246094 154.230469 757.308594 153.914062 757.308594 C 153.59375 757.308594 153.289062 757.246094 152.996094 757.125 C 152.703125 757.003906 152.441406 756.832031 152.21875 756.605469 C 151.992188 756.382812 151.820312 756.121094 151.695312 755.828125 C 151.574219 755.535156 151.515625 755.226562 151.515625 754.910156 C 151.515625 754.589844 151.574219 754.285156 151.695312 753.992188 C 151.820312 753.695312 151.992188 753.4375 152.21875 753.210938 C 152.441406 752.988281 152.703125 752.8125 152.996094 752.691406 C 153.289062 752.570312 153.59375 752.511719 153.914062 752.511719 C 154.230469 752.511719 154.539062 752.570312 154.832031 752.691406 C 155.125 752.8125 155.386719 752.988281 155.609375 753.210938 C 155.835938 753.4375 156.007812 753.695312 156.128906 753.992188 C 156.253906 754.285156 156.3125 754.589844 156.3125 754.910156 Z M 156.3125 754.910156 "/></g><path style=" stroke:none;fill-rule:nonzero;fill:#9b18d4;fill-opacity:1;" d="M 100.773438 768.792969 C 100.773438 769.113281 100.710938 769.417969 100.589844 769.710938 C 100.46875 770.007812 100.292969 770.265625 100.070312 770.492188 C 99.84375 770.714844 99.585938 770.890625 99.292969 771.011719 C 98.996094 771.132812 98.691406 771.195312 98.375 771.195312 C 98.054688 771.195312 97.75 771.132812 97.453125 771.011719 C 97.160156 770.890625 96.902344 770.714844 96.675781 770.492188 C 96.453125 770.265625 96.277344 770.007812 96.15625 769.710938 C 96.035156 769.417969 95.972656 769.113281 95.972656 768.792969 C 95.972656 768.476562 96.035156 768.171875 96.15625 767.875 C 96.277344 767.582031 96.453125 767.324219 96.675781 767.097656 C 96.902344 766.871094 97.160156 766.699219 97.453125 766.578125 C 97.75 766.457031 98.054688 766.394531 98.375 766.394531 C 98.691406 766.394531 98.996094 766.457031 99.292969 766.578125 C 99.585938 766.699219 99.84375 766.871094 100.070312 767.097656 C 100.292969 767.324219 100.46875 767.582031 100.589844 767.875 C 100.710938 768.171875 100.773438 768.476562 100.773438 768.792969 Z M 100.773438 768.792969 "/><path style=" stroke:none;fill-rule:nonzero;fill:#9b18d4;fill-opacity:1;" d="M 114.65625 768.792969 C 114.65625 769.113281 114.597656 769.417969 114.476562 769.710938 C 114.351562 770.007812 114.179688 770.265625 113.953125 770.492188 C 113.730469 770.714844 113.46875 770.890625 113.175781 771.011719 C 112.882812 771.132812 112.578125 771.195312 112.257812 771.195312 C 111.941406 771.195312 111.632812 771.132812 111.339844 771.011719 C 111.046875 770.890625 110.785156 770.714844 110.5625 770.492188 C 110.335938 770.265625 110.164062 770.007812 110.042969 769.710938 C 109.917969 769.417969 109.859375 769.113281 109.859375 768.792969 C 109.859375 768.476562 109.917969 768.171875 110.042969 767.875 C 110.164062 767.582031 110.335938 767.324219 110.5625 767.097656 C 110.785156 766.871094 111.046875 766.699219 111.339844 766.578125 C 111.632812 766.457031 111.941406 766.394531 112.257812 766.394531 C 112.578125 766.394531 112.882812 766.457031 113.175781 766.578125 C 113.46875 766.699219 113.730469 766.871094 113.953125 767.097656 C 114.179688 767.324219 114.351562 767.582031 114.476562 767.875 C 114.597656 768.171875 114.65625 768.476562 114.65625 768.792969 Z M 114.65625 768.792969 "/><path style=" stroke:none;fill-rule:nonzero;fill:#9b18d4;fill-opacity:1;" d="M 128.542969 768.792969 C 128.542969 769.113281 128.480469 769.417969 128.359375 769.710938 C 128.238281 770.007812 128.066406 770.265625 127.839844 770.492188 C 127.613281 770.714844 127.355469 770.890625 127.0625 771.011719 C 126.769531 771.132812 126.460938 771.195312 126.144531 771.195312 C 125.824219 771.195312 125.519531 771.132812 125.226562 771.011719 C 124.929688 770.890625 124.671875 770.714844 124.445312 770.492188 C 124.222656 770.265625 124.046875 770.007812 123.925781 769.710938 C 123.804688 769.417969 123.742188 769.113281 123.746094 768.792969 C 123.742188 768.476562 123.804688 768.171875 123.925781 767.875 C 124.046875 767.582031 124.222656 767.324219 124.445312 767.097656 C 124.671875 766.871094 124.929688 766.699219 125.226562 766.578125 C 125.519531 766.457031 125.824219 766.394531 126.144531 766.394531 C 126.460938 766.394531 126.769531 766.457031 127.0625 766.578125 C 127.355469 766.699219 127.613281 766.871094 127.839844 767.097656 C 128.066406 767.324219 128.238281 767.582031 128.359375 767.875 C 128.480469 768.171875 128.542969 768.476562 128.542969 768.792969 Z M 128.542969 768.792969 "/><path style=" stroke:none;fill-rule:nonzero;fill:#9b18d4;fill-opacity:1;" d="M 142.429688 768.792969 C 142.429688 769.113281 142.367188 769.417969 142.246094 769.710938 C 142.125 770.007812 141.949219 770.265625 141.726562 770.492188 C 141.5 770.714844 141.242188 770.890625 140.945312 771.011719 C 140.652344 771.132812 140.347656 771.195312 140.027344 771.195312 C 139.710938 771.195312 139.40625 771.132812 139.109375 771.011719 C 138.816406 770.890625 138.558594 770.714844 138.332031 770.492188 C 138.105469 770.265625 137.933594 770.007812 137.8125 769.710938 C 137.691406 769.417969 137.628906 769.113281 137.628906 768.792969 C 137.628906 768.476562 137.691406 768.171875 137.8125 767.875 C 137.933594 767.582031 138.105469 767.324219 138.332031 767.097656 C 138.558594 766.871094 138.816406 766.699219 139.109375 766.578125 C 139.40625 766.457031 139.710938 766.394531 140.027344 766.394531 C 140.347656 766.394531 140.652344 766.457031 140.945312 766.578125 C 141.242188 766.699219 141.5 766.871094 141.726562 767.097656 C 141.949219 767.324219 142.125 767.582031 142.246094 767.875 C 142.367188 768.171875 142.429688 768.476562 142.429688 768.792969 Z M 142.429688 768.792969 "/><g clip-rule="nonzero" clip-path="url(#0bf55047f7)"><path style=" stroke:none;fill-rule:nonzero;fill:#9b18d4;fill-opacity:1;" d="M 156.3125 768.792969 C 156.3125 769.113281 156.253906 769.417969 156.128906 769.710938 C 156.007812 770.007812 155.835938 770.265625 155.609375 770.492188 C 155.386719 770.714844 155.125 770.890625 154.832031 771.011719 C 154.539062 771.132812 154.230469 771.195312 153.914062 771.195312 C 153.59375 771.195312 153.289062 771.132812 152.996094 771.011719 C 152.703125 770.890625 152.441406 770.714844 152.21875 770.492188 C 151.992188 770.265625 151.820312 770.007812 151.695312 769.710938 C 151.574219 769.417969 151.515625 769.113281 151.515625 768.792969 C 151.515625 768.476562 151.574219 768.171875 151.695312 767.875 C 151.820312 767.582031 151.992188 767.324219 152.21875 767.097656 C 152.441406 766.871094 152.703125 766.699219 152.996094 766.578125 C 153.289062 766.457031 153.59375 766.394531 153.914062 766.394531 C 154.230469 766.394531 154.539062 766.457031 154.832031 766.578125 C 155.125 766.699219 155.386719 766.871094 155.609375 767.097656 C 155.835938 767.324219 156.007812 767.582031 156.128906 767.875 C 156.253906 768.171875 156.3125 768.476562 156.3125 768.792969 Z M 156.3125 768.792969 "/></g><g clip-rule="nonzero" clip-path="url(#7e09f42dfa)"><path style=" stroke:none;fill-rule:nonzero;fill:#9b18d4;fill-opacity:1;" d="M 100.773438 782.679688 C 100.773438 782.996094 100.710938 783.304688 100.589844 783.597656 C 100.46875 783.890625 100.292969 784.152344 100.070312 784.375 C 99.84375 784.601562 99.585938 784.773438 99.292969 784.894531 C 98.996094 785.019531 98.691406 785.078125 98.375 785.078125 C 98.054688 785.078125 97.75 785.019531 97.453125 784.894531 C 97.160156 784.773438 96.902344 784.601562 96.675781 784.375 C 96.453125 784.152344 96.277344 783.890625 96.15625 783.597656 C 96.035156 783.304688 95.972656 782.996094 95.972656 782.679688 C 95.972656 782.359375 96.035156 782.054688 96.15625 781.761719 C 96.277344 781.46875 96.453125 781.207031 96.675781 780.984375 C 96.902344 780.757812 97.160156 780.585938 97.453125 780.460938 C 97.75 780.339844 98.054688 780.28125 98.375 780.28125 C 98.691406 780.28125 98.996094 780.339844 99.292969 780.460938 C 99.585938 780.585938 99.84375 780.757812 100.070312 780.984375 C 100.292969 781.207031 100.46875 781.46875 100.589844 781.761719 C 100.710938 782.054688 100.773438 782.359375 100.773438 782.679688 Z M 100.773438 782.679688 "/></g><g clip-rule="nonzero" clip-path="url(#c430c1fe7a)"><path style=" stroke:none;fill-rule:nonzero;fill:#9b18d4;fill-opacity:1;" d="M 114.65625 782.679688 C 114.65625 782.996094 114.597656 783.304688 114.476562 783.597656 C 114.351562 783.890625 114.179688 784.152344 113.953125 784.375 C 113.730469 784.601562 113.46875 784.773438 113.175781 784.894531 C 112.882812 785.019531 112.578125 785.078125 112.257812 785.078125 C 111.941406 785.078125 111.632812 785.019531 111.339844 784.894531 C 111.046875 784.773438 110.785156 784.601562 110.5625 784.375 C 110.335938 784.152344 110.164062 783.890625 110.042969 783.597656 C 109.917969 783.304688 109.859375 782.996094 109.859375 782.679688 C 109.859375 782.359375 109.917969 782.054688 110.042969 781.761719 C 110.164062 781.46875 110.335938 781.207031 110.5625 780.984375 C 110.785156 780.757812 111.046875 780.585938 111.339844 780.460938 C 111.632812 780.339844 111.941406 780.28125 112.257812 780.28125 C 112.578125 780.28125 112.882812 780.339844 113.175781 780.460938 C 113.46875 780.585938 113.730469 780.757812 113.953125 780.984375 C 114.179688 781.207031 114.351562 781.46875 114.476562 781.761719 C 114.597656 782.054688 114.65625 782.359375 114.65625 782.679688 Z M 114.65625 782.679688 "/></g><g clip-rule="nonzero" clip-path="url(#857ec73c7c)"><path style=" stroke:none;fill-rule:nonzero;fill:#9b18d4;fill-opacity:1;" d="M 128.542969 782.679688 C 128.542969 782.996094 128.480469 783.304688 128.359375 783.597656 C 128.238281 783.890625 128.066406 784.152344 127.839844 784.375 C 127.613281 784.601562 127.355469 784.773438 127.0625 784.894531 C 126.769531 785.019531 126.460938 785.078125 126.144531 785.078125 C 125.824219 785.078125 125.519531 785.019531 125.226562 784.894531 C 124.929688 784.773438 124.671875 784.601562 124.445312 784.375 C 124.222656 784.152344 124.046875 783.890625 123.925781 783.597656 C 123.804688 783.304688 123.742188 782.996094 123.746094 782.679688 C 123.742188 782.359375 123.804688 782.054688 123.925781 781.761719 C 124.046875 781.46875 124.222656 781.207031 124.445312 780.984375 C 124.671875 780.757812 124.929688 780.585938 125.226562 780.460938 C 125.519531 780.339844 125.824219 780.28125 126.144531 780.28125 C 126.460938 780.28125 126.769531 780.339844 127.0625 780.460938 C 127.355469 780.585938 127.613281 780.757812 127.839844 780.984375 C 128.066406 781.207031 128.238281 781.46875 128.359375 781.761719 C 128.480469 782.054688 128.542969 782.359375 128.542969 782.679688 Z M 128.542969 782.679688 "/></g><g clip-rule="nonzero" clip-path="url(#82a37dca05)"><path style=" stroke:none;fill-rule:nonzero;fill:#9b18d4;fill-opacity:1;" d="M 142.429688 782.679688 C 142.429688 782.996094 142.367188 783.304688 142.246094 783.597656 C 142.125 783.890625 141.949219 784.152344 141.726562 784.375 C 141.5 784.601562 141.242188 784.773438 140.945312 784.894531 C 140.652344 785.019531 140.347656 785.078125 140.027344 785.078125 C 139.710938 785.078125 139.40625 785.019531 139.109375 784.894531 C 138.816406 784.773438 138.558594 784.601562 138.332031 784.375 C 138.105469 784.152344 137.933594 783.890625 137.8125 783.597656 C 137.691406 783.304688 137.628906 782.996094 137.628906 782.679688 C 137.628906 782.359375 137.691406 782.054688 137.8125 781.761719 C 137.933594 781.46875 138.105469 781.207031 138.332031 780.984375 C 138.558594 780.757812 138.816406 780.585938 139.109375 780.460938 C 139.40625 780.339844 139.710938 780.28125 140.027344 780.28125 C 140.347656 780.28125 140.652344 780.339844 140.945312 780.460938 C 141.242188 780.585938 141.5 780.757812 141.726562 780.984375 C 141.949219 781.207031 142.125 781.46875 142.246094 781.761719 C 142.367188 782.054688 142.429688 782.359375 142.429688 782.679688 Z M 142.429688 782.679688 "/></g><g clip-rule="nonzero" clip-path="url(#6076e830d2)"><path style=" stroke:none;fill-rule:nonzero;fill:#9b18d4;fill-opacity:1;" d="M 156.3125 782.679688 C 156.3125 782.996094 156.253906 783.304688 156.128906 783.597656 C 156.007812 783.890625 155.835938 784.152344 155.609375 784.375 C 155.386719 784.601562 155.125 784.773438 154.832031 784.894531 C 154.539062 785.019531 154.230469 785.078125 153.914062 785.078125 C 153.59375 785.078125 153.289062 785.019531 152.996094 784.894531 C 152.703125 784.773438 152.441406 784.601562 152.21875 784.375 C 151.992188 784.152344 151.820312 783.890625 151.695312 783.597656 C 151.574219 783.304688 151.515625 782.996094 151.515625 782.679688 C 151.515625 782.359375 151.574219 782.054688 151.695312 781.761719 C 151.820312 781.46875 151.992188 781.207031 152.21875 780.984375 C 152.441406 780.757812 152.703125 780.585938 152.996094 780.460938 C 153.289062 780.339844 153.59375 780.28125 153.914062 780.28125 C 154.230469 780.28125 154.539062 780.339844 154.832031 780.460938 C 155.125 780.585938 155.386719 780.757812 155.609375 780.984375 C 155.835938 781.207031 156.007812 781.46875 156.128906 781.761719 C 156.253906 782.054688 156.3125 782.359375 156.3125 782.679688 Z M 156.3125 782.679688 "/></g></g></svg>