<svg xmlns="http://www.w3.org/2000/svg" xmlns:xlink="http://www.w3.org/1999/xlink" width="834" zoomAndPan="magnify" viewBox="0 0 625.5 833.999992" height="1112" preserveAspectRatio="xMidYMid meet" version="1.2"><defs><clipPath id="8fdf18601c"><path d="M 35.230469 36.285156 L 48.359375 36.285156 L 48.359375 88.792969 L 35.230469 88.792969 Z M 35.230469 36.285156 "/></clipPath><clipPath id="a5a604028d"><path d="M 35.230469 95.410156 L 48.359375 95.410156 L 48.359375 147.917969 L 35.230469 147.917969 Z M 35.230469 95.410156 "/></clipPath><clipPath id="6f3f9da216"><path d="M 538.5625 708.699219 L 609.800781 708.699219 L 609.800781 726.507812 L 538.5625 726.507812 Z M 538.5625 708.699219 "/></clipPath><clipPath id="62cabfba4c"><path d="M 458.347656 708.699219 L 529.585938 708.699219 L 529.585938 726.507812 L 458.347656 726.507812 Z M 458.347656 708.699219 "/></clipPath><clipPath id="ae1d447999"><path d="M 543 227 L 596 227 L 596 273.582031 L 543 273.582031 Z M 543 227 "/></clipPath><clipPath id="67ed1d065e"><path d="M 544 180 L 596.957031 180 L 596.957031 227 L 544 227 Z M 544 180 "/></clipPath><clipPath id="36512c3f64"><path d="M 544 133 L 596.957031 133 L 596.957031 179 L 544 179 Z M 544 133 "/></clipPath><clipPath id="da87d3f947"><path d="M 528.011719 218 L 586 218 L 586 269 L 528.011719 269 Z M 528.011719 218 "/></clipPath><clipPath id="898ba602cd"><path d="M 529 123.699219 L 587 123.699219 L 587 174 L 529 174 Z M 529 123.699219 "/></clipPath><clipPath id="b53fa73a77"><path d="M 17.847656 726.515625 L 23 726.515625 L 23 731 L 17.847656 731 Z M 17.847656 726.515625 "/></clipPath><clipPath id="0e131c3e51"><path d="M 29 726.515625 L 35 726.515625 L 35 731 L 29 731 Z M 29 726.515625 "/></clipPath><clipPath id="76b099142f"><path d="M 42 726.515625 L 47 726.515625 L 47 731 L 42 731 Z M 42 726.515625 "/></clipPath><clipPath id="817a02c9fa"><path d="M 54 726.515625 L 59 726.515625 L 59 731 L 54 731 Z M 54 726.515625 "/></clipPath><clipPath id="7b9b2528aa"><path d="M 66 726.515625 L 71 726.515625 L 71 731 L 66 731 Z M 66 726.515625 "/></clipPath><clipPath id="1dfa481ada"><path d="M 17.847656 738 L 23 738 L 23 743 L 17.847656 743 Z M 17.847656 738 "/></clipPath><clipPath id="1c84aa758e"><path d="M 17.847656 750 L 23 750 L 23 755 L 17.847656 755 Z M 17.847656 750 "/></clipPath><clipPath id="9e85e98724"><path d="M 17.847656 762 L 23 762 L 23 768 L 17.847656 768 Z M 17.847656 762 "/></clipPath><clipPath id="81797c249e"><path d="M 102 762 L 107.027344 762 L 107.027344 768 L 102 768 Z M 102 762 "/></clipPath><clipPath id="955a7fc6bd"><path d="M 17.847656 775 L 23 775 L 23 780 L 17.847656 780 Z M 17.847656 775 "/></clipPath><clipPath id="382f918fd5"><path d="M 102 775 L 107.027344 775 L 107.027344 780 L 102 780 Z M 102 775 "/></clipPath><clipPath id="b0f761ab2d"><path d="M 102 787 L 107.027344 787 L 107.027344 792 L 102 792 Z M 102 787 "/></clipPath><clipPath id="eddcd0047c"><path d="M 102 799 L 107.027344 799 L 107.027344 804 L 102 804 Z M 102 799 "/></clipPath><clipPath id="01070ca34a"><path d="M 54 811 L 59 811 L 59 815.691406 L 54 815.691406 Z M 54 811 "/></clipPath><clipPath id="bd4076a742"><path d="M 66 811 L 71 811 L 71 815.691406 L 66 815.691406 Z M 66 811 "/></clipPath><clipPath id="e7eb7b9a32"><path d="M 78 811 L 83 811 L 83 815.691406 L 78 815.691406 Z M 78 811 "/></clipPath><clipPath id="367ac82b81"><path d="M 90 811 L 95 811 L 95 815.691406 L 90 815.691406 Z M 90 811 "/></clipPath><clipPath id="d71ccf31c4"><path d="M 102 811 L 107.027344 811 L 107.027344 815.691406 L 102 815.691406 Z M 102 811 "/></clipPath></defs><g id="5064080f7e"><g clip-rule="nonzero" clip-path="url(#8fdf18601c)"><path style=" stroke:none;fill-rule:nonzero;fill:#000000;fill-opacity:1;" d="M 48.359375 42.851562 C 48.359375 39.226562 45.421875 36.289062 41.792969 36.289062 C 38.167969 36.289062 35.230469 39.226562 35.230469 42.851562 C 35.230469 46.476562 38.167969 49.414062 41.792969 49.414062 C 45.421875 49.414062 48.359375 46.476562 48.359375 42.851562 Z M 48.359375 82.226562 C 48.359375 78.601562 45.421875 75.664062 41.792969 75.664062 C 38.167969 75.664062 35.230469 78.601562 35.230469 82.226562 C 35.230469 85.851562 38.167969 88.789062 41.792969 88.789062 C 45.421875 88.789062 48.359375 85.851562 48.359375 82.226562 Z M 48.359375 62.539062 C 48.359375 58.914062 45.421875 55.976562 41.792969 55.976562 C 38.167969 55.976562 35.230469 58.914062 35.230469 62.539062 C 35.230469 66.164062 38.167969 69.101562 41.792969 69.101562 C 45.421875 69.101562 48.359375 66.164062 48.359375 62.539062 Z M 48.359375 62.539062 "/></g><g clip-rule="nonzero" clip-path="url(#a5a604028d)"><path style=" stroke:none;fill-rule:nonzero;fill:#9b18d4;fill-opacity:1;" d="M 48.359375 101.976562 C 48.359375 98.351562 45.421875 95.414062 41.796875 95.414062 C 38.167969 95.414062 35.234375 98.351562 35.234375 101.976562 C 35.234375 105.601562 38.167969 108.539062 41.796875 108.539062 C 45.421875 108.539062 48.359375 105.601562 48.359375 101.976562 Z M 48.359375 141.351562 C 48.359375 137.726562 45.421875 134.789062 41.796875 134.789062 C 38.167969 134.789062 35.234375 137.726562 35.234375 141.351562 C 35.234375 144.976562 38.167969 147.914062 41.796875 147.914062 C 45.421875 147.914062 48.359375 144.976562 48.359375 141.351562 Z M 48.359375 121.664062 C 48.359375 118.039062 45.421875 115.101562 41.796875 115.101562 C 38.167969 115.101562 35.234375 118.039062 35.234375 121.664062 C 35.234375 125.289062 38.167969 128.226562 41.796875 128.226562 C 45.421875 128.226562 48.359375 125.289062 48.359375 121.664062 Z M 48.359375 121.664062 "/></g><g clip-rule="nonzero" clip-path="url(#6f3f9da216)"><path style=" stroke:none;fill-rule:nonzero;fill:#9b18d4;fill-opacity:1;" d="M 600.894531 726.507812 C 605.8125 726.507812 609.796875 722.523438 609.796875 717.605469 C 609.796875 712.683594 605.8125 708.699219 600.894531 708.699219 C 595.972656 708.699219 591.988281 712.683594 591.988281 717.605469 C 591.988281 722.523438 595.972656 726.507812 600.894531 726.507812 Z M 547.472656 726.507812 C 552.390625 726.507812 556.375 722.523438 556.375 717.605469 C 556.375 712.683594 552.390625 708.699219 547.472656 708.699219 C 542.550781 708.699219 538.566406 712.683594 538.566406 717.605469 C 538.566406 722.523438 542.550781 726.507812 547.472656 726.507812 Z M 574.183594 726.507812 C 579.101562 726.507812 583.085938 722.523438 583.085938 717.605469 C 583.085938 712.683594 579.101562 708.699219 574.183594 708.699219 C 569.261719 708.699219 565.277344 712.683594 565.277344 717.605469 C 565.277344 722.523438 569.261719 726.507812 574.183594 726.507812 Z M 574.183594 726.507812 "/></g><g clip-rule="nonzero" clip-path="url(#62cabfba4c)"><path style=" stroke:none;fill-rule:nonzero;fill:#000000;fill-opacity:1;" d="M 520.675781 726.507812 C 525.597656 726.507812 529.582031 722.523438 529.582031 717.601562 C 529.582031 712.683594 525.597656 708.699219 520.675781 708.699219 C 515.757812 708.699219 511.773438 712.683594 511.773438 717.601562 C 511.773438 722.523438 515.757812 726.507812 520.675781 726.507812 Z M 467.253906 726.507812 C 472.175781 726.507812 476.160156 722.523438 476.160156 717.601562 C 476.160156 712.683594 472.175781 708.699219 467.253906 708.699219 C 462.335938 708.699219 458.351562 712.683594 458.351562 717.601562 C 458.351562 722.523438 462.335938 726.507812 467.253906 726.507812 Z M 493.964844 726.507812 C 498.886719 726.507812 502.871094 722.523438 502.871094 717.601562 C 502.871094 712.683594 498.886719 708.699219 493.964844 708.699219 C 489.046875 708.699219 485.0625 712.683594 485.0625 717.601562 C 485.0625 722.523438 489.046875 726.507812 493.964844 726.507812 Z M 493.964844 726.507812 "/></g><g clip-rule="nonzero" clip-path="url(#ae1d447999)"><path style=" stroke:none;fill-rule:nonzero;fill:#9b18d4;fill-opacity:1;" d="M 569.542969 227.957031 L 595.960938 273.582031 L 543.136719 273.582031 Z M 569.542969 227.957031 "/></g><g clip-rule="nonzero" clip-path="url(#67ed1d065e)"><path style=" stroke:none;fill-rule:nonzero;fill:#9b18d4;fill-opacity:1;" d="M 570.519531 180.40625 L 596.929688 226.027344 L 544.101562 226.027344 Z M 570.519531 180.40625 "/></g><g clip-rule="nonzero" clip-path="url(#36512c3f64)"><path style=" stroke:none;fill-rule:nonzero;fill:#9b18d4;fill-opacity:1;" d="M 570.519531 133.355469 L 596.929688 178.976562 L 544.101562 178.976562 Z M 570.519531 133.355469 "/></g><g clip-rule="nonzero" clip-path="url(#da87d3f947)"><path style=" stroke:none;fill-rule:nonzero;fill:#000000;fill-opacity:1;" d="M 585.894531 268.273438 L 528.03125 268.273438 L 556.957031 218.304688 Z M 533.066406 265.375 L 580.859375 265.375 L 556.957031 224.097656 Z M 533.066406 265.375 "/></g><path style=" stroke:none;fill-rule:nonzero;fill:#000000;fill-opacity:1;" d="M 586.863281 220.71875 L 529 220.71875 L 557.925781 170.75 Z M 534.035156 217.820312 L 581.835938 217.820312 L 557.9375 176.542969 Z M 534.035156 217.820312 "/><g clip-rule="nonzero" clip-path="url(#898ba602cd)"><path style=" stroke:none;fill-rule:nonzero;fill:#000000;fill-opacity:1;" d="M 586.863281 173.667969 L 529 173.667969 L 557.925781 123.699219 Z M 534.035156 170.773438 L 581.835938 170.773438 L 557.9375 129.492188 Z M 534.035156 170.773438 "/></g><g clip-rule="nonzero" clip-path="url(#b53fa73a77)"><path style=" stroke:none;fill-rule:nonzero;fill:#9b18d4;fill-opacity:1;" d="M 22.046875 728.613281 C 22.046875 728.890625 21.996094 729.15625 21.886719 729.414062 C 21.78125 729.671875 21.628906 729.898438 21.433594 730.09375 C 21.238281 730.292969 21.011719 730.445312 20.753906 730.550781 C 20.496094 730.65625 20.226562 730.710938 19.949219 730.710938 C 19.671875 730.710938 19.40625 730.65625 19.148438 730.550781 C 18.890625 730.445312 18.664062 730.292969 18.46875 730.09375 C 18.269531 729.898438 18.117188 729.671875 18.011719 729.414062 C 17.90625 729.15625 17.851562 728.890625 17.851562 728.613281 C 17.851562 728.335938 17.90625 728.066406 18.011719 727.808594 C 18.117188 727.550781 18.269531 727.324219 18.46875 727.128906 C 18.664062 726.933594 18.890625 726.78125 19.148438 726.675781 C 19.40625 726.566406 19.671875 726.515625 19.949219 726.515625 C 20.226562 726.515625 20.496094 726.566406 20.753906 726.675781 C 21.011719 726.78125 21.238281 726.933594 21.433594 727.128906 C 21.628906 727.324219 21.78125 727.550781 21.886719 727.808594 C 21.996094 728.066406 22.046875 728.335938 22.046875 728.613281 Z M 22.046875 728.613281 "/></g><g clip-rule="nonzero" clip-path="url(#0e131c3e51)"><path style=" stroke:none;fill-rule:nonzero;fill:#9b18d4;fill-opacity:1;" d="M 34.1875 728.613281 C 34.1875 728.890625 34.132812 729.15625 34.027344 729.414062 C 33.921875 729.671875 33.769531 729.898438 33.574219 730.09375 C 33.375 730.292969 33.148438 730.445312 32.894531 730.550781 C 32.636719 730.65625 32.367188 730.710938 32.089844 730.710938 C 31.8125 730.710938 31.542969 730.65625 31.289062 730.550781 C 31.03125 730.445312 30.804688 730.292969 30.605469 730.09375 C 30.410156 729.898438 30.257812 729.671875 30.152344 729.414062 C 30.046875 729.15625 29.992188 728.890625 29.992188 728.613281 C 29.992188 728.335938 30.046875 728.066406 30.152344 727.808594 C 30.257812 727.550781 30.410156 727.324219 30.605469 727.128906 C 30.804688 726.933594 31.03125 726.78125 31.289062 726.675781 C 31.542969 726.566406 31.8125 726.515625 32.089844 726.515625 C 32.367188 726.515625 32.636719 726.566406 32.894531 726.675781 C 33.148438 726.78125 33.375 726.933594 33.574219 727.128906 C 33.769531 727.324219 33.921875 727.550781 34.027344 727.808594 C 34.132812 728.066406 34.1875 728.335938 34.1875 728.613281 Z M 34.1875 728.613281 "/></g><g clip-rule="nonzero" clip-path="url(#76b099142f)"><path style=" stroke:none;fill-rule:nonzero;fill:#9b18d4;fill-opacity:1;" d="M 46.328125 728.613281 C 46.328125 728.890625 46.273438 729.15625 46.167969 729.414062 C 46.0625 729.671875 45.910156 729.898438 45.714844 730.09375 C 45.515625 730.292969 45.289062 730.445312 45.03125 730.550781 C 44.777344 730.65625 44.507812 730.710938 44.230469 730.710938 C 43.953125 730.710938 43.683594 730.65625 43.425781 730.550781 C 43.171875 730.445312 42.941406 730.292969 42.746094 730.09375 C 42.550781 729.898438 42.398438 729.671875 42.292969 729.414062 C 42.183594 729.15625 42.132812 728.890625 42.132812 728.613281 C 42.132812 728.335938 42.183594 728.066406 42.292969 727.808594 C 42.398438 727.550781 42.550781 727.324219 42.746094 727.128906 C 42.941406 726.933594 43.171875 726.78125 43.425781 726.675781 C 43.683594 726.566406 43.953125 726.515625 44.230469 726.515625 C 44.507812 726.515625 44.777344 726.566406 45.03125 726.675781 C 45.289062 726.78125 45.515625 726.933594 45.714844 727.128906 C 45.910156 727.324219 46.0625 727.550781 46.167969 727.808594 C 46.273438 728.066406 46.328125 728.335938 46.328125 728.613281 Z M 46.328125 728.613281 "/></g><g clip-rule="nonzero" clip-path="url(#817a02c9fa)"><path style=" stroke:none;fill-rule:nonzero;fill:#9b18d4;fill-opacity:1;" d="M 58.46875 728.613281 C 58.46875 728.890625 58.414062 729.15625 58.308594 729.414062 C 58.199219 729.671875 58.050781 729.898438 57.851562 730.09375 C 57.65625 730.292969 57.429688 730.445312 57.171875 730.550781 C 56.914062 730.65625 56.648438 730.710938 56.371094 730.710938 C 56.089844 730.710938 55.824219 730.65625 55.566406 730.550781 C 55.308594 730.445312 55.082031 730.292969 54.886719 730.09375 C 54.691406 729.898438 54.539062 729.671875 54.429688 729.414062 C 54.324219 729.15625 54.273438 728.890625 54.273438 728.613281 C 54.273438 728.335938 54.324219 728.066406 54.429688 727.808594 C 54.539062 727.550781 54.691406 727.324219 54.886719 727.128906 C 55.082031 726.933594 55.308594 726.78125 55.566406 726.675781 C 55.824219 726.566406 56.089844 726.515625 56.371094 726.515625 C 56.648438 726.515625 56.914062 726.566406 57.171875 726.675781 C 57.429688 726.78125 57.65625 726.933594 57.851562 727.128906 C 58.050781 727.324219 58.199219 727.550781 58.308594 727.808594 C 58.414062 728.066406 58.46875 728.335938 58.46875 728.613281 Z M 58.46875 728.613281 "/></g><g clip-rule="nonzero" clip-path="url(#7b9b2528aa)"><path style=" stroke:none;fill-rule:nonzero;fill:#9b18d4;fill-opacity:1;" d="M 70.605469 728.613281 C 70.605469 728.890625 70.554688 729.15625 70.449219 729.414062 C 70.339844 729.671875 70.1875 729.898438 69.992188 730.09375 C 69.796875 730.292969 69.570312 730.445312 69.3125 730.550781 C 69.054688 730.65625 68.789062 730.710938 68.507812 730.710938 C 68.230469 730.710938 67.964844 730.65625 67.707031 730.550781 C 67.449219 730.445312 67.222656 730.292969 67.027344 730.09375 C 66.828125 729.898438 66.675781 729.671875 66.570312 729.414062 C 66.464844 729.15625 66.410156 728.890625 66.410156 728.613281 C 66.410156 728.335938 66.464844 728.066406 66.570312 727.808594 C 66.675781 727.550781 66.828125 727.324219 67.027344 727.128906 C 67.222656 726.933594 67.449219 726.78125 67.707031 726.675781 C 67.964844 726.566406 68.230469 726.515625 68.507812 726.515625 C 68.789062 726.515625 69.054688 726.566406 69.3125 726.675781 C 69.570312 726.78125 69.796875 726.933594 69.992188 727.128906 C 70.1875 727.324219 70.339844 727.550781 70.449219 727.808594 C 70.554688 728.066406 70.605469 728.335938 70.605469 728.613281 Z M 70.605469 728.613281 "/></g><g clip-rule="nonzero" clip-path="url(#1dfa481ada)"><path style=" stroke:none;fill-rule:nonzero;fill:#9b18d4;fill-opacity:1;" d="M 22.046875 740.753906 C 22.046875 741.03125 21.996094 741.296875 21.886719 741.554688 C 21.78125 741.8125 21.628906 742.039062 21.433594 742.234375 C 21.238281 742.433594 21.011719 742.582031 20.753906 742.691406 C 20.496094 742.796875 20.226562 742.851562 19.949219 742.851562 C 19.671875 742.851562 19.40625 742.796875 19.148438 742.691406 C 18.890625 742.582031 18.664062 742.433594 18.46875 742.234375 C 18.269531 742.039062 18.117188 741.8125 18.011719 741.554688 C 17.90625 741.296875 17.851562 741.03125 17.851562 740.753906 C 17.851562 740.472656 17.90625 740.207031 18.011719 739.949219 C 18.117188 739.691406 18.269531 739.464844 18.46875 739.269531 C 18.664062 739.070312 18.890625 738.921875 19.148438 738.8125 C 19.40625 738.707031 19.671875 738.652344 19.949219 738.652344 C 20.226562 738.652344 20.496094 738.707031 20.753906 738.8125 C 21.011719 738.921875 21.238281 739.070312 21.433594 739.269531 C 21.628906 739.464844 21.78125 739.691406 21.886719 739.949219 C 21.996094 740.207031 22.046875 740.472656 22.046875 740.753906 Z M 22.046875 740.753906 "/></g><path style=" stroke:none;fill-rule:nonzero;fill:#9b18d4;fill-opacity:1;" d="M 34.1875 740.753906 C 34.1875 741.03125 34.132812 741.296875 34.027344 741.554688 C 33.921875 741.8125 33.769531 742.039062 33.574219 742.234375 C 33.375 742.433594 33.148438 742.582031 32.894531 742.691406 C 32.636719 742.796875 32.367188 742.851562 32.089844 742.851562 C 31.8125 742.851562 31.542969 742.796875 31.289062 742.691406 C 31.03125 742.582031 30.804688 742.433594 30.605469 742.234375 C 30.410156 742.039062 30.257812 741.8125 30.152344 741.554688 C 30.046875 741.296875 29.992188 741.03125 29.992188 740.753906 C 29.992188 740.472656 30.046875 740.207031 30.152344 739.949219 C 30.257812 739.691406 30.410156 739.464844 30.605469 739.269531 C 30.804688 739.070312 31.03125 738.921875 31.289062 738.8125 C 31.542969 738.707031 31.8125 738.652344 32.089844 738.652344 C 32.367188 738.652344 32.636719 738.707031 32.894531 738.8125 C 33.148438 738.921875 33.375 739.070312 33.574219 739.269531 C 33.769531 739.464844 33.921875 739.691406 34.027344 739.949219 C 34.132812 740.207031 34.1875 740.472656 34.1875 740.753906 Z M 34.1875 740.753906 "/><path style=" stroke:none;fill-rule:nonzero;fill:#9b18d4;fill-opacity:1;" d="M 46.328125 740.753906 C 46.328125 741.03125 46.273438 741.296875 46.167969 741.554688 C 46.0625 741.8125 45.910156 742.039062 45.714844 742.234375 C 45.515625 742.433594 45.289062 742.582031 45.03125 742.691406 C 44.777344 742.796875 44.507812 742.851562 44.230469 742.851562 C 43.953125 742.851562 43.683594 742.796875 43.425781 742.691406 C 43.171875 742.582031 42.941406 742.433594 42.746094 742.234375 C 42.550781 742.039062 42.398438 741.8125 42.292969 741.554688 C 42.183594 741.296875 42.132812 741.03125 42.132812 740.753906 C 42.132812 740.472656 42.183594 740.207031 42.292969 739.949219 C 42.398438 739.691406 42.550781 739.464844 42.746094 739.269531 C 42.941406 739.070312 43.171875 738.921875 43.425781 738.8125 C 43.683594 738.707031 43.953125 738.652344 44.230469 738.652344 C 44.507812 738.652344 44.777344 738.707031 45.03125 738.8125 C 45.289062 738.921875 45.515625 739.070312 45.714844 739.269531 C 45.910156 739.464844 46.0625 739.691406 46.167969 739.949219 C 46.273438 740.207031 46.328125 740.472656 46.328125 740.753906 Z M 46.328125 740.753906 "/><path style=" stroke:none;fill-rule:nonzero;fill:#9b18d4;fill-opacity:1;" d="M 58.46875 740.753906 C 58.46875 741.03125 58.414062 741.296875 58.308594 741.554688 C 58.199219 741.8125 58.050781 742.039062 57.851562 742.234375 C 57.65625 742.433594 57.429688 742.582031 57.171875 742.691406 C 56.914062 742.796875 56.648438 742.851562 56.371094 742.851562 C 56.089844 742.851562 55.824219 742.796875 55.566406 742.691406 C 55.308594 742.582031 55.082031 742.433594 54.886719 742.234375 C 54.691406 742.039062 54.539062 741.8125 54.429688 741.554688 C 54.324219 741.296875 54.273438 741.03125 54.273438 740.753906 C 54.273438 740.472656 54.324219 740.207031 54.429688 739.949219 C 54.539062 739.691406 54.691406 739.464844 54.886719 739.269531 C 55.082031 739.070312 55.308594 738.921875 55.566406 738.8125 C 55.824219 738.707031 56.089844 738.652344 56.371094 738.652344 C 56.648438 738.652344 56.914062 738.707031 57.171875 738.8125 C 57.429688 738.921875 57.65625 739.070312 57.851562 739.269531 C 58.050781 739.464844 58.199219 739.691406 58.308594 739.949219 C 58.414062 740.207031 58.46875 740.472656 58.46875 740.753906 Z M 58.46875 740.753906 "/><path style=" stroke:none;fill-rule:nonzero;fill:#9b18d4;fill-opacity:1;" d="M 70.605469 740.753906 C 70.605469 741.03125 70.554688 741.296875 70.449219 741.554688 C 70.339844 741.8125 70.1875 742.039062 69.992188 742.234375 C 69.796875 742.433594 69.570312 742.582031 69.3125 742.691406 C 69.054688 742.796875 68.789062 742.851562 68.507812 742.851562 C 68.230469 742.851562 67.964844 742.796875 67.707031 742.691406 C 67.449219 742.582031 67.222656 742.433594 67.027344 742.234375 C 66.828125 742.039062 66.675781 741.8125 66.570312 741.554688 C 66.464844 741.296875 66.410156 741.03125 66.410156 740.753906 C 66.410156 740.472656 66.464844 740.207031 66.570312 739.949219 C 66.675781 739.691406 66.828125 739.464844 67.027344 739.269531 C 67.222656 739.070312 67.449219 738.921875 67.707031 738.8125 C 67.964844 738.707031 68.230469 738.652344 68.507812 738.652344 C 68.789062 738.652344 69.054688 738.707031 69.3125 738.8125 C 69.570312 738.921875 69.796875 739.070312 69.992188 739.269531 C 70.1875 739.464844 70.339844 739.691406 70.449219 739.949219 C 70.554688 740.207031 70.605469 740.472656 70.605469 740.753906 Z M 70.605469 740.753906 "/><g clip-rule="nonzero" clip-path="url(#1c84aa758e)"><path style=" stroke:none;fill-rule:nonzero;fill:#9b18d4;fill-opacity:1;" d="M 22.046875 752.890625 C 22.046875 753.167969 21.996094 753.4375 21.886719 753.695312 C 21.78125 753.953125 21.628906 754.179688 21.433594 754.375 C 21.238281 754.570312 21.011719 754.722656 20.753906 754.828125 C 20.496094 754.9375 20.226562 754.988281 19.949219 754.988281 C 19.671875 754.988281 19.40625 754.9375 19.148438 754.828125 C 18.890625 754.722656 18.664062 754.570312 18.46875 754.375 C 18.269531 754.179688 18.117188 753.953125 18.011719 753.695312 C 17.90625 753.4375 17.851562 753.167969 17.851562 752.890625 C 17.851562 752.613281 17.90625 752.347656 18.011719 752.089844 C 18.117188 751.832031 18.269531 751.605469 18.46875 751.410156 C 18.664062 751.210938 18.890625 751.058594 19.148438 750.953125 C 19.40625 750.847656 19.671875 750.792969 19.949219 750.792969 C 20.226562 750.792969 20.496094 750.847656 20.753906 750.953125 C 21.011719 751.058594 21.238281 751.210938 21.433594 751.410156 C 21.628906 751.605469 21.78125 751.832031 21.886719 752.089844 C 21.996094 752.347656 22.046875 752.613281 22.046875 752.890625 Z M 22.046875 752.890625 "/></g><path style=" stroke:none;fill-rule:nonzero;fill:#9b18d4;fill-opacity:1;" d="M 34.1875 752.890625 C 34.1875 753.167969 34.132812 753.4375 34.027344 753.695312 C 33.921875 753.953125 33.769531 754.179688 33.574219 754.375 C 33.375 754.570312 33.148438 754.722656 32.894531 754.828125 C 32.636719 754.9375 32.367188 754.988281 32.089844 754.988281 C 31.8125 754.988281 31.542969 754.9375 31.289062 754.828125 C 31.03125 754.722656 30.804688 754.570312 30.605469 754.375 C 30.410156 754.179688 30.257812 753.953125 30.152344 753.695312 C 30.046875 753.4375 29.992188 753.167969 29.992188 752.890625 C 29.992188 752.613281 30.046875 752.347656 30.152344 752.089844 C 30.257812 751.832031 30.410156 751.605469 30.605469 751.410156 C 30.804688 751.210938 31.03125 751.058594 31.289062 750.953125 C 31.542969 750.847656 31.8125 750.792969 32.089844 750.792969 C 32.367188 750.792969 32.636719 750.847656 32.894531 750.953125 C 33.148438 751.058594 33.375 751.210938 33.574219 751.410156 C 33.769531 751.605469 33.921875 751.832031 34.027344 752.089844 C 34.132812 752.347656 34.1875 752.613281 34.1875 752.890625 Z M 34.1875 752.890625 "/><path style=" stroke:none;fill-rule:nonzero;fill:#9b18d4;fill-opacity:1;" d="M 46.328125 752.890625 C 46.328125 753.167969 46.273438 753.4375 46.167969 753.695312 C 46.0625 753.953125 45.910156 754.179688 45.714844 754.375 C 45.515625 754.570312 45.289062 754.722656 45.03125 754.828125 C 44.777344 754.9375 44.507812 754.988281 44.230469 754.988281 C 43.953125 754.988281 43.683594 754.9375 43.425781 754.828125 C 43.171875 754.722656 42.941406 754.570312 42.746094 754.375 C 42.550781 754.179688 42.398438 753.953125 42.292969 753.695312 C 42.183594 753.4375 42.132812 753.167969 42.132812 752.890625 C 42.132812 752.613281 42.183594 752.347656 42.292969 752.089844 C 42.398438 751.832031 42.550781 751.605469 42.746094 751.410156 C 42.941406 751.210938 43.171875 751.058594 43.425781 750.953125 C 43.683594 750.847656 43.953125 750.792969 44.230469 750.792969 C 44.507812 750.792969 44.777344 750.847656 45.03125 750.953125 C 45.289062 751.058594 45.515625 751.210938 45.714844 751.410156 C 45.910156 751.605469 46.0625 751.832031 46.167969 752.089844 C 46.273438 752.347656 46.328125 752.613281 46.328125 752.890625 Z M 46.328125 752.890625 "/><path style=" stroke:none;fill-rule:nonzero;fill:#9b18d4;fill-opacity:1;" d="M 58.46875 752.890625 C 58.46875 753.167969 58.414062 753.4375 58.308594 753.695312 C 58.199219 753.953125 58.050781 754.179688 57.851562 754.375 C 57.65625 754.570312 57.429688 754.722656 57.171875 754.828125 C 56.914062 754.9375 56.648438 754.988281 56.371094 754.988281 C 56.089844 754.988281 55.824219 754.9375 55.566406 754.828125 C 55.308594 754.722656 55.082031 754.570312 54.886719 754.375 C 54.691406 754.179688 54.539062 753.953125 54.429688 753.695312 C 54.324219 753.4375 54.273438 753.167969 54.273438 752.890625 C 54.273438 752.613281 54.324219 752.347656 54.429688 752.089844 C 54.539062 751.832031 54.691406 751.605469 54.886719 751.410156 C 55.082031 751.210938 55.308594 751.058594 55.566406 750.953125 C 55.824219 750.847656 56.089844 750.792969 56.371094 750.792969 C 56.648438 750.792969 56.914062 750.847656 57.171875 750.953125 C 57.429688 751.058594 57.65625 751.210938 57.851562 751.410156 C 58.050781 751.605469 58.199219 751.832031 58.308594 752.089844 C 58.414062 752.347656 58.46875 752.613281 58.46875 752.890625 Z M 58.46875 752.890625 "/><path style=" stroke:none;fill-rule:nonzero;fill:#9b18d4;fill-opacity:1;" d="M 70.605469 752.890625 C 70.605469 753.167969 70.554688 753.4375 70.449219 753.695312 C 70.339844 753.953125 70.1875 754.179688 69.992188 754.375 C 69.796875 754.570312 69.570312 754.722656 69.3125 754.828125 C 69.054688 754.9375 68.789062 754.988281 68.507812 754.988281 C 68.230469 754.988281 67.964844 754.9375 67.707031 754.828125 C 67.449219 754.722656 67.222656 754.570312 67.027344 754.375 C 66.828125 754.179688 66.675781 753.953125 66.570312 753.695312 C 66.464844 753.4375 66.410156 753.167969 66.410156 752.890625 C 66.410156 752.613281 66.464844 752.347656 66.570312 752.089844 C 66.675781 751.832031 66.828125 751.605469 67.027344 751.410156 C 67.222656 751.210938 67.449219 751.058594 67.707031 750.953125 C 67.964844 750.847656 68.230469 750.792969 68.507812 750.792969 C 68.789062 750.792969 69.054688 750.847656 69.3125 750.953125 C 69.570312 751.058594 69.796875 751.210938 69.992188 751.410156 C 70.1875 751.605469 70.339844 751.832031 70.449219 752.089844 C 70.554688 752.347656 70.605469 752.613281 70.605469 752.890625 Z M 70.605469 752.890625 "/><g clip-rule="nonzero" clip-path="url(#9e85e98724)"><path style=" stroke:none;fill-rule:nonzero;fill:#9b18d4;fill-opacity:1;" d="M 22.046875 765.03125 C 22.046875 765.308594 21.996094 765.578125 21.886719 765.835938 C 21.78125 766.089844 21.628906 766.316406 21.433594 766.515625 C 21.238281 766.710938 21.011719 766.863281 20.753906 766.96875 C 20.496094 767.074219 20.226562 767.128906 19.949219 767.128906 C 19.671875 767.128906 19.40625 767.074219 19.148438 766.96875 C 18.890625 766.863281 18.664062 766.710938 18.46875 766.515625 C 18.269531 766.316406 18.117188 766.089844 18.011719 765.835938 C 17.90625 765.578125 17.851562 765.308594 17.851562 765.03125 C 17.851562 764.753906 17.90625 764.484375 18.011719 764.230469 C 18.117188 763.972656 18.269531 763.746094 18.46875 763.546875 C 18.664062 763.351562 18.890625 763.199219 19.148438 763.09375 C 19.40625 762.988281 19.671875 762.933594 19.949219 762.933594 C 20.226562 762.933594 20.496094 762.988281 20.753906 763.09375 C 21.011719 763.199219 21.238281 763.351562 21.433594 763.546875 C 21.628906 763.746094 21.78125 763.972656 21.886719 764.230469 C 21.996094 764.484375 22.046875 764.753906 22.046875 765.03125 Z M 22.046875 765.03125 "/></g><path style=" stroke:none;fill-rule:nonzero;fill:#9b18d4;fill-opacity:1;" d="M 34.1875 765.03125 C 34.1875 765.308594 34.132812 765.578125 34.027344 765.835938 C 33.921875 766.089844 33.769531 766.316406 33.574219 766.515625 C 33.375 766.710938 33.148438 766.863281 32.894531 766.96875 C 32.636719 767.074219 32.367188 767.128906 32.089844 767.128906 C 31.8125 767.128906 31.542969 767.074219 31.289062 766.96875 C 31.03125 766.863281 30.804688 766.710938 30.605469 766.515625 C 30.410156 766.316406 30.257812 766.089844 30.152344 765.835938 C 30.046875 765.578125 29.992188 765.308594 29.992188 765.03125 C 29.992188 764.753906 30.046875 764.484375 30.152344 764.230469 C 30.257812 763.972656 30.410156 763.746094 30.605469 763.546875 C 30.804688 763.351562 31.03125 763.199219 31.289062 763.09375 C 31.542969 762.988281 31.8125 762.933594 32.089844 762.933594 C 32.367188 762.933594 32.636719 762.988281 32.894531 763.09375 C 33.148438 763.199219 33.375 763.351562 33.574219 763.546875 C 33.769531 763.746094 33.921875 763.972656 34.027344 764.230469 C 34.132812 764.484375 34.1875 764.753906 34.1875 765.03125 Z M 34.1875 765.03125 "/><path style=" stroke:none;fill-rule:nonzero;fill:#9b18d4;fill-opacity:1;" d="M 46.328125 765.03125 C 46.328125 765.308594 46.273438 765.578125 46.167969 765.835938 C 46.0625 766.089844 45.910156 766.316406 45.714844 766.515625 C 45.515625 766.710938 45.289062 766.863281 45.03125 766.96875 C 44.777344 767.074219 44.507812 767.128906 44.230469 767.128906 C 43.953125 767.128906 43.683594 767.074219 43.425781 766.96875 C 43.171875 766.863281 42.941406 766.710938 42.746094 766.515625 C 42.550781 766.316406 42.398438 766.089844 42.292969 765.835938 C 42.183594 765.578125 42.132812 765.308594 42.132812 765.03125 C 42.132812 764.753906 42.183594 764.484375 42.292969 764.230469 C 42.398438 763.972656 42.550781 763.746094 42.746094 763.546875 C 42.941406 763.351562 43.171875 763.199219 43.425781 763.09375 C 43.683594 762.988281 43.953125 762.933594 44.230469 762.933594 C 44.507812 762.933594 44.777344 762.988281 45.03125 763.09375 C 45.289062 763.199219 45.515625 763.351562 45.714844 763.546875 C 45.910156 763.746094 46.0625 763.972656 46.167969 764.230469 C 46.273438 764.484375 46.328125 764.753906 46.328125 765.03125 Z M 46.328125 765.03125 "/><path style=" stroke:none;fill-rule:nonzero;fill:#9b18d4;fill-opacity:1;" d="M 58.46875 765.03125 C 58.46875 765.308594 58.414062 765.578125 58.308594 765.835938 C 58.199219 766.089844 58.050781 766.316406 57.851562 766.515625 C 57.65625 766.710938 57.429688 766.863281 57.171875 766.96875 C 56.914062 767.074219 56.648438 767.128906 56.371094 767.128906 C 56.089844 767.128906 55.824219 767.074219 55.566406 766.96875 C 55.308594 766.863281 55.082031 766.710938 54.886719 766.515625 C 54.691406 766.316406 54.539062 766.089844 54.429688 765.835938 C 54.324219 765.578125 54.273438 765.308594 54.273438 765.03125 C 54.273438 764.753906 54.324219 764.484375 54.429688 764.230469 C 54.539062 763.972656 54.691406 763.746094 54.886719 763.546875 C 55.082031 763.351562 55.308594 763.199219 55.566406 763.09375 C 55.824219 762.988281 56.089844 762.933594 56.371094 762.933594 C 56.648438 762.933594 56.914062 762.988281 57.171875 763.09375 C 57.429688 763.199219 57.65625 763.351562 57.851562 763.546875 C 58.050781 763.746094 58.199219 763.972656 58.308594 764.230469 C 58.414062 764.484375 58.46875 764.753906 58.46875 765.03125 Z M 58.46875 765.03125 "/><path style=" stroke:none;fill-rule:nonzero;fill:#9b18d4;fill-opacity:1;" d="M 70.605469 765.03125 C 70.605469 765.308594 70.554688 765.578125 70.449219 765.835938 C 70.339844 766.089844 70.1875 766.316406 69.992188 766.515625 C 69.796875 766.710938 69.570312 766.863281 69.3125 766.96875 C 69.054688 767.074219 68.789062 767.128906 68.507812 767.128906 C 68.230469 767.128906 67.964844 767.074219 67.707031 766.96875 C 67.449219 766.863281 67.222656 766.710938 67.027344 766.515625 C 66.828125 766.316406 66.675781 766.089844 66.570312 765.835938 C 66.464844 765.578125 66.410156 765.308594 66.410156 765.03125 C 66.410156 764.753906 66.464844 764.484375 66.570312 764.230469 C 66.675781 763.972656 66.828125 763.746094 67.027344 763.546875 C 67.222656 763.351562 67.449219 763.199219 67.707031 763.09375 C 67.964844 762.988281 68.230469 762.933594 68.507812 762.933594 C 68.789062 762.933594 69.054688 762.988281 69.3125 763.09375 C 69.570312 763.199219 69.796875 763.351562 69.992188 763.546875 C 70.1875 763.746094 70.339844 763.972656 70.449219 764.230469 C 70.554688 764.484375 70.605469 764.753906 70.605469 765.03125 Z M 70.605469 765.03125 "/><path style=" stroke:none;fill-rule:nonzero;fill:#9b18d4;fill-opacity:1;" d="M 82.746094 765.03125 C 82.746094 765.308594 82.695312 765.578125 82.585938 765.835938 C 82.480469 766.089844 82.328125 766.316406 82.132812 766.515625 C 81.9375 766.710938 81.707031 766.863281 81.453125 766.96875 C 81.195312 767.074219 80.925781 767.128906 80.648438 767.128906 C 80.371094 767.128906 80.101562 767.074219 79.847656 766.96875 C 79.589844 766.863281 79.363281 766.710938 79.164062 766.515625 C 78.96875 766.316406 78.816406 766.089844 78.710938 765.835938 C 78.605469 765.578125 78.550781 765.308594 78.550781 765.03125 C 78.550781 764.753906 78.605469 764.484375 78.710938 764.230469 C 78.816406 763.972656 78.96875 763.746094 79.164062 763.546875 C 79.363281 763.351562 79.589844 763.199219 79.847656 763.09375 C 80.101562 762.988281 80.371094 762.933594 80.648438 762.933594 C 80.925781 762.933594 81.195312 762.988281 81.453125 763.09375 C 81.707031 763.199219 81.9375 763.351562 82.132812 763.546875 C 82.328125 763.746094 82.480469 763.972656 82.585938 764.230469 C 82.695312 764.484375 82.746094 764.753906 82.746094 765.03125 Z M 82.746094 765.03125 "/><path style=" stroke:none;fill-rule:nonzero;fill:#9b18d4;fill-opacity:1;" d="M 94.886719 765.03125 C 94.886719 765.308594 94.832031 765.578125 94.726562 765.835938 C 94.621094 766.089844 94.46875 766.316406 94.273438 766.515625 C 94.074219 766.710938 93.847656 766.863281 93.589844 766.96875 C 93.335938 767.074219 93.066406 767.128906 92.789062 767.128906 C 92.511719 767.128906 92.242188 767.074219 91.984375 766.96875 C 91.730469 766.863281 91.503906 766.710938 91.304688 766.515625 C 91.109375 766.316406 90.957031 766.089844 90.851562 765.835938 C 90.746094 765.578125 90.691406 765.308594 90.691406 765.03125 C 90.691406 764.753906 90.746094 764.484375 90.851562 764.230469 C 90.957031 763.972656 91.109375 763.746094 91.304688 763.546875 C 91.503906 763.351562 91.730469 763.199219 91.984375 763.09375 C 92.242188 762.988281 92.511719 762.933594 92.789062 762.933594 C 93.066406 762.933594 93.335938 762.988281 93.589844 763.09375 C 93.847656 763.199219 94.074219 763.351562 94.273438 763.546875 C 94.46875 763.746094 94.621094 763.972656 94.726562 764.230469 C 94.832031 764.484375 94.886719 764.753906 94.886719 765.03125 Z M 94.886719 765.03125 "/><g clip-rule="nonzero" clip-path="url(#81797c249e)"><path style=" stroke:none;fill-rule:nonzero;fill:#9b18d4;fill-opacity:1;" d="M 107.027344 765.03125 C 107.027344 765.308594 106.972656 765.578125 106.867188 765.835938 C 106.761719 766.089844 106.609375 766.316406 106.410156 766.515625 C 106.214844 766.710938 105.988281 766.863281 105.730469 766.96875 C 105.472656 767.074219 105.207031 767.128906 104.929688 767.128906 C 104.652344 767.128906 104.382812 767.074219 104.125 766.96875 C 103.867188 766.863281 103.640625 766.710938 103.445312 766.515625 C 103.25 766.316406 103.097656 766.089844 102.992188 765.835938 C 102.882812 765.578125 102.832031 765.308594 102.832031 765.03125 C 102.832031 764.753906 102.882812 764.484375 102.992188 764.230469 C 103.097656 763.972656 103.25 763.746094 103.445312 763.546875 C 103.640625 763.351562 103.867188 763.199219 104.125 763.09375 C 104.382812 762.988281 104.652344 762.933594 104.929688 762.933594 C 105.207031 762.933594 105.472656 762.988281 105.730469 763.09375 C 105.988281 763.199219 106.214844 763.351562 106.410156 763.546875 C 106.609375 763.746094 106.761719 763.972656 106.867188 764.230469 C 106.972656 764.484375 107.027344 764.753906 107.027344 765.03125 Z M 107.027344 765.03125 "/></g><g clip-rule="nonzero" clip-path="url(#955a7fc6bd)"><path style=" stroke:none;fill-rule:nonzero;fill:#9b18d4;fill-opacity:1;" d="M 22.046875 777.171875 C 22.046875 777.449219 21.996094 777.71875 21.886719 777.972656 C 21.78125 778.230469 21.628906 778.457031 21.433594 778.65625 C 21.238281 778.851562 21.011719 779.003906 20.753906 779.109375 C 20.496094 779.214844 20.226562 779.269531 19.949219 779.269531 C 19.671875 779.269531 19.40625 779.214844 19.148438 779.109375 C 18.890625 779.003906 18.664062 778.851562 18.46875 778.65625 C 18.269531 778.457031 18.117188 778.230469 18.011719 777.972656 C 17.90625 777.71875 17.851562 777.449219 17.851562 777.171875 C 17.851562 776.894531 17.90625 776.625 18.011719 776.367188 C 18.117188 776.113281 18.269531 775.882812 18.46875 775.6875 C 18.664062 775.492188 18.890625 775.339844 19.148438 775.234375 C 19.40625 775.125 19.671875 775.074219 19.949219 775.074219 C 20.226562 775.074219 20.496094 775.125 20.753906 775.234375 C 21.011719 775.339844 21.238281 775.492188 21.433594 775.6875 C 21.628906 775.882812 21.78125 776.113281 21.886719 776.367188 C 21.996094 776.625 22.046875 776.894531 22.046875 777.171875 Z M 22.046875 777.171875 "/></g><path style=" stroke:none;fill-rule:nonzero;fill:#9b18d4;fill-opacity:1;" d="M 34.1875 777.171875 C 34.1875 777.449219 34.132812 777.71875 34.027344 777.972656 C 33.921875 778.230469 33.769531 778.457031 33.574219 778.65625 C 33.375 778.851562 33.148438 779.003906 32.894531 779.109375 C 32.636719 779.214844 32.367188 779.269531 32.089844 779.269531 C 31.8125 779.269531 31.542969 779.214844 31.289062 779.109375 C 31.03125 779.003906 30.804688 778.851562 30.605469 778.65625 C 30.410156 778.457031 30.257812 778.230469 30.152344 777.972656 C 30.046875 777.71875 29.992188 777.449219 29.992188 777.171875 C 29.992188 776.894531 30.046875 776.625 30.152344 776.367188 C 30.257812 776.113281 30.410156 775.882812 30.605469 775.6875 C 30.804688 775.492188 31.03125 775.339844 31.289062 775.234375 C 31.542969 775.125 31.8125 775.074219 32.089844 775.074219 C 32.367188 775.074219 32.636719 775.125 32.894531 775.234375 C 33.148438 775.339844 33.375 775.492188 33.574219 775.6875 C 33.769531 775.882812 33.921875 776.113281 34.027344 776.367188 C 34.132812 776.625 34.1875 776.894531 34.1875 777.171875 Z M 34.1875 777.171875 "/><path style=" stroke:none;fill-rule:nonzero;fill:#9b18d4;fill-opacity:1;" d="M 46.328125 777.171875 C 46.328125 777.449219 46.273438 777.71875 46.167969 777.972656 C 46.0625 778.230469 45.910156 778.457031 45.714844 778.65625 C 45.515625 778.851562 45.289062 779.003906 45.03125 779.109375 C 44.777344 779.214844 44.507812 779.269531 44.230469 779.269531 C 43.953125 779.269531 43.683594 779.214844 43.425781 779.109375 C 43.171875 779.003906 42.941406 778.851562 42.746094 778.65625 C 42.550781 778.457031 42.398438 778.230469 42.292969 777.972656 C 42.183594 777.71875 42.132812 777.449219 42.132812 777.171875 C 42.132812 776.894531 42.183594 776.625 42.292969 776.367188 C 42.398438 776.113281 42.550781 775.882812 42.746094 775.6875 C 42.941406 775.492188 43.171875 775.339844 43.425781 775.234375 C 43.683594 775.125 43.953125 775.074219 44.230469 775.074219 C 44.507812 775.074219 44.777344 775.125 45.03125 775.234375 C 45.289062 775.339844 45.515625 775.492188 45.714844 775.6875 C 45.910156 775.882812 46.0625 776.113281 46.167969 776.367188 C 46.273438 776.625 46.328125 776.894531 46.328125 777.171875 Z M 46.328125 777.171875 "/><path style=" stroke:none;fill-rule:nonzero;fill:#9b18d4;fill-opacity:1;" d="M 58.46875 777.171875 C 58.46875 777.449219 58.414062 777.71875 58.308594 777.972656 C 58.199219 778.230469 58.050781 778.457031 57.851562 778.65625 C 57.65625 778.851562 57.429688 779.003906 57.171875 779.109375 C 56.914062 779.214844 56.648438 779.269531 56.371094 779.269531 C 56.089844 779.269531 55.824219 779.214844 55.566406 779.109375 C 55.308594 779.003906 55.082031 778.851562 54.886719 778.65625 C 54.691406 778.457031 54.539062 778.230469 54.429688 777.972656 C 54.324219 777.71875 54.273438 777.449219 54.273438 777.171875 C 54.273438 776.894531 54.324219 776.625 54.429688 776.367188 C 54.539062 776.113281 54.691406 775.882812 54.886719 775.6875 C 55.082031 775.492188 55.308594 775.339844 55.566406 775.234375 C 55.824219 775.125 56.089844 775.074219 56.371094 775.074219 C 56.648438 775.074219 56.914062 775.125 57.171875 775.234375 C 57.429688 775.339844 57.65625 775.492188 57.851562 775.6875 C 58.050781 775.882812 58.199219 776.113281 58.308594 776.367188 C 58.414062 776.625 58.46875 776.894531 58.46875 777.171875 Z M 58.46875 777.171875 "/><path style=" stroke:none;fill-rule:nonzero;fill:#9b18d4;fill-opacity:1;" d="M 70.605469 777.171875 C 70.605469 777.449219 70.554688 777.71875 70.449219 777.972656 C 70.339844 778.230469 70.1875 778.457031 69.992188 778.65625 C 69.796875 778.851562 69.570312 779.003906 69.3125 779.109375 C 69.054688 779.214844 68.789062 779.269531 68.507812 779.269531 C 68.230469 779.269531 67.964844 779.214844 67.707031 779.109375 C 67.449219 779.003906 67.222656 778.851562 67.027344 778.65625 C 66.828125 778.457031 66.675781 778.230469 66.570312 777.972656 C 66.464844 777.71875 66.410156 777.449219 66.410156 777.171875 C 66.410156 776.894531 66.464844 776.625 66.570312 776.367188 C 66.675781 776.113281 66.828125 775.882812 67.027344 775.6875 C 67.222656 775.492188 67.449219 775.339844 67.707031 775.234375 C 67.964844 775.125 68.230469 775.074219 68.507812 775.074219 C 68.789062 775.074219 69.054688 775.125 69.3125 775.234375 C 69.570312 775.339844 69.796875 775.492188 69.992188 775.6875 C 70.1875 775.882812 70.339844 776.113281 70.449219 776.367188 C 70.554688 776.625 70.605469 776.894531 70.605469 777.171875 Z M 70.605469 777.171875 "/><path style=" stroke:none;fill-rule:nonzero;fill:#9b18d4;fill-opacity:1;" d="M 82.746094 777.171875 C 82.746094 777.449219 82.695312 777.71875 82.585938 777.972656 C 82.480469 778.230469 82.328125 778.457031 82.132812 778.65625 C 81.9375 778.851562 81.707031 779.003906 81.453125 779.109375 C 81.195312 779.214844 80.925781 779.269531 80.648438 779.269531 C 80.371094 779.269531 80.101562 779.214844 79.847656 779.109375 C 79.589844 779.003906 79.363281 778.851562 79.164062 778.65625 C 78.96875 778.457031 78.816406 778.230469 78.710938 777.972656 C 78.605469 777.71875 78.550781 777.449219 78.550781 777.171875 C 78.550781 776.894531 78.605469 776.625 78.710938 776.367188 C 78.816406 776.113281 78.96875 775.882812 79.164062 775.6875 C 79.363281 775.492188 79.589844 775.339844 79.847656 775.234375 C 80.101562 775.125 80.371094 775.074219 80.648438 775.074219 C 80.925781 775.074219 81.195312 775.125 81.453125 775.234375 C 81.707031 775.339844 81.9375 775.492188 82.132812 775.6875 C 82.328125 775.882812 82.480469 776.113281 82.585938 776.367188 C 82.695312 776.625 82.746094 776.894531 82.746094 777.171875 Z M 82.746094 777.171875 "/><path style=" stroke:none;fill-rule:nonzero;fill:#9b18d4;fill-opacity:1;" d="M 94.886719 777.171875 C 94.886719 777.449219 94.832031 777.71875 94.726562 777.972656 C 94.621094 778.230469 94.46875 778.457031 94.273438 778.65625 C 94.074219 778.851562 93.847656 779.003906 93.589844 779.109375 C 93.335938 779.214844 93.066406 779.269531 92.789062 779.269531 C 92.511719 779.269531 92.242188 779.214844 91.984375 779.109375 C 91.730469 779.003906 91.503906 778.851562 91.304688 778.65625 C 91.109375 778.457031 90.957031 778.230469 90.851562 777.972656 C 90.746094 777.71875 90.691406 777.449219 90.691406 777.171875 C 90.691406 776.894531 90.746094 776.625 90.851562 776.367188 C 90.957031 776.113281 91.109375 775.882812 91.304688 775.6875 C 91.503906 775.492188 91.730469 775.339844 91.984375 775.234375 C 92.242188 775.125 92.511719 775.074219 92.789062 775.074219 C 93.066406 775.074219 93.335938 775.125 93.589844 775.234375 C 93.847656 775.339844 94.074219 775.492188 94.273438 775.6875 C 94.46875 775.882812 94.621094 776.113281 94.726562 776.367188 C 94.832031 776.625 94.886719 776.894531 94.886719 777.171875 Z M 94.886719 777.171875 "/><g clip-rule="nonzero" clip-path="url(#382f918fd5)"><path style=" stroke:none;fill-rule:nonzero;fill:#9b18d4;fill-opacity:1;" d="M 107.027344 777.171875 C 107.027344 777.449219 106.972656 777.71875 106.867188 777.972656 C 106.761719 778.230469 106.609375 778.457031 106.410156 778.65625 C 106.214844 778.851562 105.988281 779.003906 105.730469 779.109375 C 105.472656 779.214844 105.207031 779.269531 104.929688 779.269531 C 104.652344 779.269531 104.382812 779.214844 104.125 779.109375 C 103.867188 779.003906 103.640625 778.851562 103.445312 778.65625 C 103.25 778.457031 103.097656 778.230469 102.992188 777.972656 C 102.882812 777.71875 102.832031 777.449219 102.832031 777.171875 C 102.832031 776.894531 102.882812 776.625 102.992188 776.367188 C 103.097656 776.113281 103.25 775.882812 103.445312 775.6875 C 103.640625 775.492188 103.867188 775.339844 104.125 775.234375 C 104.382812 775.125 104.652344 775.074219 104.929688 775.074219 C 105.207031 775.074219 105.472656 775.125 105.730469 775.234375 C 105.988281 775.339844 106.214844 775.492188 106.410156 775.6875 C 106.609375 775.882812 106.761719 776.113281 106.867188 776.367188 C 106.972656 776.625 107.027344 776.894531 107.027344 777.171875 Z M 107.027344 777.171875 "/></g><path style=" stroke:none;fill-rule:nonzero;fill:#9b18d4;fill-opacity:1;" d="M 58.46875 789.3125 C 58.46875 789.589844 58.414062 789.855469 58.308594 790.113281 C 58.199219 790.371094 58.050781 790.597656 57.851562 790.792969 C 57.65625 790.992188 57.429688 791.144531 57.171875 791.25 C 56.914062 791.355469 56.648438 791.410156 56.371094 791.410156 C 56.089844 791.410156 55.824219 791.355469 55.566406 791.25 C 55.308594 791.144531 55.082031 790.992188 54.886719 790.792969 C 54.691406 790.597656 54.539062 790.371094 54.429688 790.113281 C 54.324219 789.855469 54.273438 789.589844 54.273438 789.3125 C 54.273438 789.03125 54.324219 788.765625 54.429688 788.507812 C 54.539062 788.25 54.691406 788.023438 54.886719 787.828125 C 55.082031 787.632812 55.308594 787.480469 55.566406 787.371094 C 55.824219 787.265625 56.089844 787.214844 56.371094 787.214844 C 56.648438 787.214844 56.914062 787.265625 57.171875 787.371094 C 57.429688 787.480469 57.65625 787.632812 57.851562 787.828125 C 58.050781 788.023438 58.199219 788.25 58.308594 788.507812 C 58.414062 788.765625 58.46875 789.03125 58.46875 789.3125 Z M 58.46875 789.3125 "/><path style=" stroke:none;fill-rule:nonzero;fill:#9b18d4;fill-opacity:1;" d="M 70.605469 789.3125 C 70.605469 789.589844 70.554688 789.855469 70.449219 790.113281 C 70.339844 790.371094 70.1875 790.597656 69.992188 790.792969 C 69.796875 790.992188 69.570312 791.144531 69.3125 791.25 C 69.054688 791.355469 68.789062 791.410156 68.507812 791.410156 C 68.230469 791.410156 67.964844 791.355469 67.707031 791.25 C 67.449219 791.144531 67.222656 790.992188 67.027344 790.792969 C 66.828125 790.597656 66.675781 790.371094 66.570312 790.113281 C 66.464844 789.855469 66.410156 789.589844 66.410156 789.3125 C 66.410156 789.03125 66.464844 788.765625 66.570312 788.507812 C 66.675781 788.25 66.828125 788.023438 67.027344 787.828125 C 67.222656 787.632812 67.449219 787.480469 67.707031 787.371094 C 67.964844 787.265625 68.230469 787.214844 68.507812 787.214844 C 68.789062 787.214844 69.054688 787.265625 69.3125 787.371094 C 69.570312 787.480469 69.796875 787.632812 69.992188 787.828125 C 70.1875 788.023438 70.339844 788.25 70.449219 788.507812 C 70.554688 788.765625 70.605469 789.03125 70.605469 789.3125 Z M 70.605469 789.3125 "/><path style=" stroke:none;fill-rule:nonzero;fill:#9b18d4;fill-opacity:1;" d="M 82.746094 789.3125 C 82.746094 789.589844 82.695312 789.855469 82.585938 790.113281 C 82.480469 790.371094 82.328125 790.597656 82.132812 790.792969 C 81.9375 790.992188 81.707031 791.144531 81.453125 791.25 C 81.195312 791.355469 80.925781 791.410156 80.648438 791.410156 C 80.371094 791.410156 80.101562 791.355469 79.847656 791.25 C 79.589844 791.144531 79.363281 790.992188 79.164062 790.792969 C 78.96875 790.597656 78.816406 790.371094 78.710938 790.113281 C 78.605469 789.855469 78.550781 789.589844 78.550781 789.3125 C 78.550781 789.03125 78.605469 788.765625 78.710938 788.507812 C 78.816406 788.25 78.96875 788.023438 79.164062 787.828125 C 79.363281 787.632812 79.589844 787.480469 79.847656 787.371094 C 80.101562 787.265625 80.371094 787.214844 80.648438 787.214844 C 80.925781 787.214844 81.195312 787.265625 81.453125 787.371094 C 81.707031 787.480469 81.9375 787.632812 82.132812 787.828125 C 82.328125 788.023438 82.480469 788.25 82.585938 788.507812 C 82.695312 788.765625 82.746094 789.03125 82.746094 789.3125 Z M 82.746094 789.3125 "/><path style=" stroke:none;fill-rule:nonzero;fill:#9b18d4;fill-opacity:1;" d="M 94.886719 789.3125 C 94.886719 789.589844 94.832031 789.855469 94.726562 790.113281 C 94.621094 790.371094 94.46875 790.597656 94.273438 790.792969 C 94.074219 790.992188 93.847656 791.144531 93.589844 791.25 C 93.335938 791.355469 93.066406 791.410156 92.789062 791.410156 C 92.511719 791.410156 92.242188 791.355469 91.984375 791.25 C 91.730469 791.144531 91.503906 790.992188 91.304688 790.792969 C 91.109375 790.597656 90.957031 790.371094 90.851562 790.113281 C 90.746094 789.855469 90.691406 789.589844 90.691406 789.3125 C 90.691406 789.03125 90.746094 788.765625 90.851562 788.507812 C 90.957031 788.25 91.109375 788.023438 91.304688 787.828125 C 91.503906 787.632812 91.730469 787.480469 91.984375 787.371094 C 92.242188 787.265625 92.511719 787.214844 92.789062 787.214844 C 93.066406 787.214844 93.335938 787.265625 93.589844 787.371094 C 93.847656 787.480469 94.074219 787.632812 94.273438 787.828125 C 94.46875 788.023438 94.621094 788.25 94.726562 788.507812 C 94.832031 788.765625 94.886719 789.03125 94.886719 789.3125 Z M 94.886719 789.3125 "/><g clip-rule="nonzero" clip-path="url(#b0f761ab2d)"><path style=" stroke:none;fill-rule:nonzero;fill:#9b18d4;fill-opacity:1;" d="M 107.027344 789.3125 C 107.027344 789.589844 106.972656 789.855469 106.867188 790.113281 C 106.761719 790.371094 106.609375 790.597656 106.410156 790.792969 C 106.214844 790.992188 105.988281 791.144531 105.730469 791.25 C 105.472656 791.355469 105.207031 791.410156 104.929688 791.410156 C 104.652344 791.410156 104.382812 791.355469 104.125 791.25 C 103.867188 791.144531 103.640625 790.992188 103.445312 790.792969 C 103.25 790.597656 103.097656 790.371094 102.992188 790.113281 C 102.882812 789.855469 102.832031 789.589844 102.832031 789.3125 C 102.832031 789.03125 102.882812 788.765625 102.992188 788.507812 C 103.097656 788.25 103.25 788.023438 103.445312 787.828125 C 103.640625 787.632812 103.867188 787.480469 104.125 787.371094 C 104.382812 787.265625 104.652344 787.214844 104.929688 787.214844 C 105.207031 787.214844 105.472656 787.265625 105.730469 787.371094 C 105.988281 787.480469 106.214844 787.632812 106.410156 787.828125 C 106.609375 788.023438 106.761719 788.25 106.867188 788.507812 C 106.972656 788.765625 107.027344 789.03125 107.027344 789.3125 Z M 107.027344 789.3125 "/></g><path style=" stroke:none;fill-rule:nonzero;fill:#9b18d4;fill-opacity:1;" d="M 58.46875 801.449219 C 58.46875 801.730469 58.414062 801.996094 58.308594 802.253906 C 58.199219 802.511719 58.050781 802.738281 57.851562 802.933594 C 57.65625 803.128906 57.429688 803.28125 57.171875 803.390625 C 56.914062 803.496094 56.648438 803.546875 56.371094 803.546875 C 56.089844 803.546875 55.824219 803.496094 55.566406 803.390625 C 55.308594 803.28125 55.082031 803.128906 54.886719 802.933594 C 54.691406 802.738281 54.539062 802.511719 54.429688 802.253906 C 54.324219 801.996094 54.273438 801.730469 54.273438 801.449219 C 54.273438 801.171875 54.324219 800.90625 54.429688 800.648438 C 54.539062 800.390625 54.691406 800.164062 54.886719 799.96875 C 55.082031 799.769531 55.308594 799.621094 55.566406 799.511719 C 55.824219 799.40625 56.089844 799.351562 56.371094 799.351562 C 56.648438 799.351562 56.914062 799.40625 57.171875 799.511719 C 57.429688 799.621094 57.65625 799.769531 57.851562 799.96875 C 58.050781 800.164062 58.199219 800.390625 58.308594 800.648438 C 58.414062 800.90625 58.46875 801.171875 58.46875 801.449219 Z M 58.46875 801.449219 "/><path style=" stroke:none;fill-rule:nonzero;fill:#9b18d4;fill-opacity:1;" d="M 70.605469 801.449219 C 70.605469 801.730469 70.554688 801.996094 70.449219 802.253906 C 70.339844 802.511719 70.1875 802.738281 69.992188 802.933594 C 69.796875 803.128906 69.570312 803.28125 69.3125 803.390625 C 69.054688 803.496094 68.789062 803.546875 68.507812 803.546875 C 68.230469 803.546875 67.964844 803.496094 67.707031 803.390625 C 67.449219 803.28125 67.222656 803.128906 67.027344 802.933594 C 66.828125 802.738281 66.675781 802.511719 66.570312 802.253906 C 66.464844 801.996094 66.410156 801.730469 66.410156 801.449219 C 66.410156 801.171875 66.464844 800.90625 66.570312 800.648438 C 66.675781 800.390625 66.828125 800.164062 67.027344 799.96875 C 67.222656 799.769531 67.449219 799.621094 67.707031 799.511719 C 67.964844 799.40625 68.230469 799.351562 68.507812 799.351562 C 68.789062 799.351562 69.054688 799.40625 69.3125 799.511719 C 69.570312 799.621094 69.796875 799.769531 69.992188 799.96875 C 70.1875 800.164062 70.339844 800.390625 70.449219 800.648438 C 70.554688 800.90625 70.605469 801.171875 70.605469 801.449219 Z M 70.605469 801.449219 "/><path style=" stroke:none;fill-rule:nonzero;fill:#9b18d4;fill-opacity:1;" d="M 82.746094 801.449219 C 82.746094 801.730469 82.695312 801.996094 82.585938 802.253906 C 82.480469 802.511719 82.328125 802.738281 82.132812 802.933594 C 81.9375 803.128906 81.707031 803.28125 81.453125 803.390625 C 81.195312 803.496094 80.925781 803.546875 80.648438 803.546875 C 80.371094 803.546875 80.101562 803.496094 79.847656 803.390625 C 79.589844 803.28125 79.363281 803.128906 79.164062 802.933594 C 78.96875 802.738281 78.816406 802.511719 78.710938 802.253906 C 78.605469 801.996094 78.550781 801.730469 78.550781 801.449219 C 78.550781 801.171875 78.605469 800.90625 78.710938 800.648438 C 78.816406 800.390625 78.96875 800.164062 79.164062 799.96875 C 79.363281 799.769531 79.589844 799.621094 79.847656 799.511719 C 80.101562 799.40625 80.371094 799.351562 80.648438 799.351562 C 80.925781 799.351562 81.195312 799.40625 81.453125 799.511719 C 81.707031 799.621094 81.9375 799.769531 82.132812 799.96875 C 82.328125 800.164062 82.480469 800.390625 82.585938 800.648438 C 82.695312 800.90625 82.746094 801.171875 82.746094 801.449219 Z M 82.746094 801.449219 "/><path style=" stroke:none;fill-rule:nonzero;fill:#9b18d4;fill-opacity:1;" d="M 94.886719 801.449219 C 94.886719 801.730469 94.832031 801.996094 94.726562 802.253906 C 94.621094 802.511719 94.46875 802.738281 94.273438 802.933594 C 94.074219 803.128906 93.847656 803.28125 93.589844 803.390625 C 93.335938 803.496094 93.066406 803.546875 92.789062 803.546875 C 92.511719 803.546875 92.242188 803.496094 91.984375 803.390625 C 91.730469 803.28125 91.503906 803.128906 91.304688 802.933594 C 91.109375 802.738281 90.957031 802.511719 90.851562 802.253906 C 90.746094 801.996094 90.691406 801.730469 90.691406 801.449219 C 90.691406 801.171875 90.746094 800.90625 90.851562 800.648438 C 90.957031 800.390625 91.109375 800.164062 91.304688 799.96875 C 91.503906 799.769531 91.730469 799.621094 91.984375 799.511719 C 92.242188 799.40625 92.511719 799.351562 92.789062 799.351562 C 93.066406 799.351562 93.335938 799.40625 93.589844 799.511719 C 93.847656 799.621094 94.074219 799.769531 94.273438 799.96875 C 94.46875 800.164062 94.621094 800.390625 94.726562 800.648438 C 94.832031 800.90625 94.886719 801.171875 94.886719 801.449219 Z M 94.886719 801.449219 "/><g clip-rule="nonzero" clip-path="url(#eddcd0047c)"><path style=" stroke:none;fill-rule:nonzero;fill:#9b18d4;fill-opacity:1;" d="M 107.027344 801.449219 C 107.027344 801.730469 106.972656 801.996094 106.867188 802.253906 C 106.761719 802.511719 106.609375 802.738281 106.410156 802.933594 C 106.214844 803.128906 105.988281 803.28125 105.730469 803.390625 C 105.472656 803.496094 105.207031 803.546875 104.929688 803.546875 C 104.652344 803.546875 104.382812 803.496094 104.125 803.390625 C 103.867188 803.28125 103.640625 803.128906 103.445312 802.933594 C 103.25 802.738281 103.097656 802.511719 102.992188 802.253906 C 102.882812 801.996094 102.832031 801.730469 102.832031 801.449219 C 102.832031 801.171875 102.882812 800.90625 102.992188 800.648438 C 103.097656 800.390625 103.25 800.164062 103.445312 799.96875 C 103.640625 799.769531 103.867188 799.621094 104.125 799.511719 C 104.382812 799.40625 104.652344 799.351562 104.929688 799.351562 C 105.207031 799.351562 105.472656 799.40625 105.730469 799.511719 C 105.988281 799.621094 106.214844 799.769531 106.410156 799.96875 C 106.609375 800.164062 106.761719 800.390625 106.867188 800.648438 C 106.972656 800.90625 107.027344 801.171875 107.027344 801.449219 Z M 107.027344 801.449219 "/></g><g clip-rule="nonzero" clip-path="url(#01070ca34a)"><path style=" stroke:none;fill-rule:nonzero;fill:#9b18d4;fill-opacity:1;" d="M 58.46875 813.589844 C 58.46875 813.867188 58.414062 814.136719 58.308594 814.394531 C 58.199219 814.648438 58.050781 814.878906 57.851562 815.074219 C 57.65625 815.269531 57.429688 815.421875 57.171875 815.527344 C 56.914062 815.636719 56.648438 815.6875 56.371094 815.6875 C 56.089844 815.6875 55.824219 815.636719 55.566406 815.527344 C 55.308594 815.421875 55.082031 815.269531 54.886719 815.074219 C 54.691406 814.878906 54.539062 814.648438 54.429688 814.394531 C 54.324219 814.136719 54.273438 813.867188 54.273438 813.589844 C 54.273438 813.3125 54.324219 813.042969 54.429688 812.789062 C 54.539062 812.53125 54.691406 812.304688 54.886719 812.105469 C 55.082031 811.910156 55.308594 811.757812 55.566406 811.652344 C 55.824219 811.546875 56.089844 811.492188 56.371094 811.492188 C 56.648438 811.492188 56.914062 811.546875 57.171875 811.652344 C 57.429688 811.757812 57.65625 811.910156 57.851562 812.105469 C 58.050781 812.304688 58.199219 812.53125 58.308594 812.789062 C 58.414062 813.042969 58.46875 813.3125 58.46875 813.589844 Z M 58.46875 813.589844 "/></g><g clip-rule="nonzero" clip-path="url(#bd4076a742)"><path style=" stroke:none;fill-rule:nonzero;fill:#9b18d4;fill-opacity:1;" d="M 70.605469 813.589844 C 70.605469 813.867188 70.554688 814.136719 70.449219 814.394531 C 70.339844 814.648438 70.1875 814.878906 69.992188 815.074219 C 69.796875 815.269531 69.570312 815.421875 69.3125 815.527344 C 69.054688 815.636719 68.789062 815.6875 68.507812 815.6875 C 68.230469 815.6875 67.964844 815.636719 67.707031 815.527344 C 67.449219 815.421875 67.222656 815.269531 67.027344 815.074219 C 66.828125 814.878906 66.675781 814.648438 66.570312 814.394531 C 66.464844 814.136719 66.410156 813.867188 66.410156 813.589844 C 66.410156 813.3125 66.464844 813.042969 66.570312 812.789062 C 66.675781 812.53125 66.828125 812.304688 67.027344 812.105469 C 67.222656 811.910156 67.449219 811.757812 67.707031 811.652344 C 67.964844 811.546875 68.230469 811.492188 68.507812 811.492188 C 68.789062 811.492188 69.054688 811.546875 69.3125 811.652344 C 69.570312 811.757812 69.796875 811.910156 69.992188 812.105469 C 70.1875 812.304688 70.339844 812.53125 70.449219 812.789062 C 70.554688 813.042969 70.605469 813.3125 70.605469 813.589844 Z M 70.605469 813.589844 "/></g><g clip-rule="nonzero" clip-path="url(#e7eb7b9a32)"><path style=" stroke:none;fill-rule:nonzero;fill:#9b18d4;fill-opacity:1;" d="M 82.746094 813.589844 C 82.746094 813.867188 82.695312 814.136719 82.585938 814.394531 C 82.480469 814.648438 82.328125 814.878906 82.132812 815.074219 C 81.9375 815.269531 81.707031 815.421875 81.453125 815.527344 C 81.195312 815.636719 80.925781 815.6875 80.648438 815.6875 C 80.371094 815.6875 80.101562 815.636719 79.847656 815.527344 C 79.589844 815.421875 79.363281 815.269531 79.164062 815.074219 C 78.96875 814.878906 78.816406 814.648438 78.710938 814.394531 C 78.605469 814.136719 78.550781 813.867188 78.550781 813.589844 C 78.550781 813.3125 78.605469 813.042969 78.710938 812.789062 C 78.816406 812.53125 78.96875 812.304688 79.164062 812.105469 C 79.363281 811.910156 79.589844 811.757812 79.847656 811.652344 C 80.101562 811.546875 80.371094 811.492188 80.648438 811.492188 C 80.925781 811.492188 81.195312 811.546875 81.453125 811.652344 C 81.707031 811.757812 81.9375 811.910156 82.132812 812.105469 C 82.328125 812.304688 82.480469 812.53125 82.585938 812.789062 C 82.695312 813.042969 82.746094 813.3125 82.746094 813.589844 Z M 82.746094 813.589844 "/></g><g clip-rule="nonzero" clip-path="url(#367ac82b81)"><path style=" stroke:none;fill-rule:nonzero;fill:#9b18d4;fill-opacity:1;" d="M 94.886719 813.589844 C 94.886719 813.867188 94.832031 814.136719 94.726562 814.394531 C 94.621094 814.648438 94.46875 814.878906 94.273438 815.074219 C 94.074219 815.269531 93.847656 815.421875 93.589844 815.527344 C 93.335938 815.636719 93.066406 815.6875 92.789062 815.6875 C 92.511719 815.6875 92.242188 815.636719 91.984375 815.527344 C 91.730469 815.421875 91.503906 815.269531 91.304688 815.074219 C 91.109375 814.878906 90.957031 814.648438 90.851562 814.394531 C 90.746094 814.136719 90.691406 813.867188 90.691406 813.589844 C 90.691406 813.3125 90.746094 813.042969 90.851562 812.789062 C 90.957031 812.53125 91.109375 812.304688 91.304688 812.105469 C 91.503906 811.910156 91.730469 811.757812 91.984375 811.652344 C 92.242188 811.546875 92.511719 811.492188 92.789062 811.492188 C 93.066406 811.492188 93.335938 811.546875 93.589844 811.652344 C 93.847656 811.757812 94.074219 811.910156 94.273438 812.105469 C 94.46875 812.304688 94.621094 812.53125 94.726562 812.789062 C 94.832031 813.042969 94.886719 813.3125 94.886719 813.589844 Z M 94.886719 813.589844 "/></g><g clip-rule="nonzero" clip-path="url(#d71ccf31c4)"><path style=" stroke:none;fill-rule:nonzero;fill:#9b18d4;fill-opacity:1;" d="M 107.027344 813.589844 C 107.027344 813.867188 106.972656 814.136719 106.867188 814.394531 C 106.761719 814.648438 106.609375 814.878906 106.410156 815.074219 C 106.214844 815.269531 105.988281 815.421875 105.730469 815.527344 C 105.472656 815.636719 105.207031 815.6875 104.929688 815.6875 C 104.652344 815.6875 104.382812 815.636719 104.125 815.527344 C 103.867188 815.421875 103.640625 815.269531 103.445312 815.074219 C 103.25 814.878906 103.097656 814.648438 102.992188 814.394531 C 102.882812 814.136719 102.832031 813.867188 102.832031 813.589844 C 102.832031 813.3125 102.882812 813.042969 102.992188 812.789062 C 103.097656 812.53125 103.25 812.304688 103.445312 812.105469 C 103.640625 811.910156 103.867188 811.757812 104.125 811.652344 C 104.382812 811.546875 104.652344 811.492188 104.929688 811.492188 C 105.207031 811.492188 105.472656 811.546875 105.730469 811.652344 C 105.988281 811.757812 106.214844 811.910156 106.410156 812.105469 C 106.609375 812.304688 106.761719 812.53125 106.867188 812.789062 C 106.972656 813.042969 107.027344 813.3125 107.027344 813.589844 Z M 107.027344 813.589844 "/></g></g></svg>