<svg xmlns="http://www.w3.org/2000/svg" xmlns:xlink="http://www.w3.org/1999/xlink" width="200" zoomAndPan="magnify" viewBox="0 0 150 149.999998" height="200" preserveAspectRatio="xMidYMid meet" version="1.2"><defs><clipPath id="98c7bfb2a3"><path d="M 3.382812 3.382812 L 146.617188 3.382812 L 146.617188 146.617188 L 3.382812 146.617188 Z M 3.382812 3.382812 "/></clipPath><clipPath id="fecc7f2450"><path d="M 75 3.382812 C 35.449219 3.382812 3.382812 35.449219 3.382812 75 C 3.382812 114.550781 35.449219 146.617188 75 146.617188 C 114.550781 146.617188 146.617188 114.550781 146.617188 75 C 146.617188 35.449219 114.550781 3.382812 75 3.382812 Z M 75 3.382812 "/></clipPath></defs><g id="18670b33bc"><g clip-rule="nonzero" clip-path="url(#98c7bfb2a3)"><g clip-rule="nonzero" clip-path="url(#fecc7f2450)"><path style=" stroke:none;fill-rule:nonzero;fill:#5131c4;fill-opacity:1;" d="M 3.382812 3.382812 L 146.617188 3.382812 L 146.617188 146.617188 L 3.382812 146.617188 Z M 3.382812 3.382812 "/></g></g><g style="fill:#ffffff;fill-opacity:1;"><g transform="translate(35.649088, 113.975786)"><path style="stroke:none" d="M 40.421875 0.890625 C 33.847656 0.890625 27.960938 -0.171875 22.765625 -2.296875 C 17.566406 -4.429688 13.410156 -7.585938 10.296875 -11.765625 C 7.179688 -15.941406 5.539062 -20.972656 5.375 -26.859375 L 28.65625 -26.859375 C 28.988281 -23.535156 30.132812 -21 32.09375 -19.25 C 34.0625 -17.5 36.625 -16.625 39.78125 -16.625 C 43.019531 -16.625 45.578125 -17.367188 47.453125 -18.859375 C 49.328125 -20.359375 50.265625 -22.425781 50.265625 -25.0625 C 50.265625 -27.28125 49.519531 -29.113281 48.03125 -30.5625 C 46.539062 -32.019531 44.707031 -33.21875 42.53125 -34.15625 C 40.351562 -35.09375 37.257812 -36.15625 33.25 -37.34375 C 27.457031 -39.132812 22.726562 -40.925781 19.0625 -42.71875 C 15.394531 -44.507812 12.238281 -47.148438 9.59375 -50.640625 C 6.945312 -54.140625 5.625 -58.707031 5.625 -64.34375 C 5.625 -72.695312 8.648438 -79.238281 14.703125 -83.96875 C 20.765625 -88.695312 28.65625 -91.0625 38.375 -91.0625 C 48.257812 -91.0625 56.226562 -88.695312 62.28125 -83.96875 C 68.34375 -79.238281 71.585938 -72.648438 72.015625 -64.203125 L 48.34375 -64.203125 C 48.175781 -67.109375 47.109375 -69.390625 45.140625 -71.046875 C 43.179688 -72.710938 40.671875 -73.546875 37.609375 -73.546875 C 34.960938 -73.546875 32.828125 -72.84375 31.203125 -71.4375 C 29.585938 -70.03125 28.78125 -68.003906 28.78125 -65.359375 C 28.78125 -62.460938 30.144531 -60.203125 32.875 -58.578125 C 35.601562 -56.960938 39.863281 -55.21875 45.65625 -53.34375 C 51.457031 -51.375 56.171875 -49.492188 59.796875 -47.703125 C 63.421875 -45.910156 66.550781 -43.3125 69.1875 -39.90625 C 71.832031 -36.5 73.15625 -32.109375 73.15625 -26.734375 C 73.15625 -21.617188 71.851562 -16.96875 69.25 -12.78125 C 66.65625 -8.601562 62.882812 -5.28125 57.9375 -2.8125 C 52.988281 -0.34375 47.148438 0.890625 40.421875 0.890625 Z M 40.421875 0.890625 "/></g></g></g></svg>