<svg xmlns="http://www.w3.org/2000/svg" xmlns:xlink="http://www.w3.org/1999/xlink" width="400" zoomAndPan="magnify" viewBox="0 0 300 299.999988" height="400" preserveAspectRatio="xMidYMid meet" version="1.2"><defs><clipPath id="d5a21cf26b"><path d="M 7.316406 10.609375 L 293 10.609375 L 293 289.390625 L 7.316406 289.390625 Z M 7.316406 10.609375 "/></clipPath><clipPath id="4aef3ae696"><path d="M 21.566406 10.609375 L 278.433594 10.609375 C 282.210938 10.609375 285.835938 12.109375 288.507812 14.785156 C 291.179688 17.457031 292.683594 21.082031 292.683594 24.859375 L 292.683594 275.140625 C 292.683594 278.917969 291.179688 282.542969 288.507812 285.214844 C 285.835938 287.890625 282.210938 289.390625 278.433594 289.390625 L 21.566406 289.390625 C 17.789062 289.390625 14.164062 287.890625 11.492188 285.214844 C 8.820312 282.542969 7.316406 278.917969 7.316406 275.140625 L 7.316406 24.859375 C 7.316406 21.082031 8.820312 17.457031 11.492188 14.785156 C 14.164062 12.109375 17.789062 10.609375 21.566406 10.609375 Z M 21.566406 10.609375 "/></clipPath></defs><g id="b9ebf7f1a2"><g clip-rule="nonzero" clip-path="url(#d5a21cf26b)"><g clip-rule="nonzero" clip-path="url(#4aef3ae696)"><path style=" stroke:none;fill-rule:nonzero;fill:#9b18d4;fill-opacity:1;" d="M 7.316406 10.609375 L 292.632812 10.609375 L 292.632812 289.390625 L 7.316406 289.390625 Z M 7.316406 10.609375 "/></g></g><g style="fill:#ffffff;fill-opacity:1;"><g transform="translate(77.742904, 167.018339)"><path style="stroke:none" d="M 49.734375 83.875 C 52.523438 83.875 55.644531 82.929688 59.09375 81.046875 C 62.539062 79.171875 65.804688 76.960938 68.890625 74.421875 C 71.972656 71.878906 74.300781 69.519531 75.875 67.34375 C 76.84375 66.132812 77.691406 65.078125 78.421875 64.171875 C 79.148438 63.265625 79.9375 62.207031 80.78125 61 C 81.382812 59.78125 82.050781 58.65625 82.78125 57.625 C 83.507812 56.601562 84.113281 55.488281 84.59375 54.28125 C 86.53125 50.53125 87.800781 47.257812 88.40625 44.46875 C 89.007812 41.6875 89.28125 38.929688 89.21875 36.203125 C 89.15625 33.484375 88.945312 30.429688 88.59375 27.046875 C 87.738281 27.285156 87.066406 27.617188 86.578125 28.046875 C 86.097656 28.472656 85.4375 28.988281 84.59375 29.59375 C 84.113281 30.070312 83.597656 30.492188 83.046875 30.859375 C 82.503906 31.222656 81.929688 31.644531 81.328125 32.125 L 71.515625 40.84375 C 68.253906 43.863281 65.59375 46.3125 63.53125 48.1875 C 61.476562 50.070312 59.515625 52.039062 57.640625 54.09375 C 55.765625 56.15625 53.429688 59.0625 50.640625 62.8125 C 49.796875 63.894531 48.738281 65.40625 47.46875 67.34375 C 46.195312 69.28125 45.078125 71.335938 44.109375 73.515625 C 43.140625 75.691406 42.65625 77.628906 42.65625 79.328125 C 42.65625 81.503906 43.109375 82.804688 44.015625 83.234375 C 44.921875 83.660156 46.46875 83.875 48.65625 83.875 C 48.894531 83.875 49.101562 83.875 49.28125 83.875 C 49.46875 83.875 49.617188 83.875 49.734375 83.875 Z M 0 -21.609375 C 0 -28.140625 1.117188 -34.972656 3.359375 -42.109375 C 5.597656 -49.253906 8.441406 -56.273438 11.890625 -63.171875 C 15.335938 -70.066406 18.816406 -76.238281 22.328125 -81.6875 C 23.898438 -84.59375 25.925781 -87.707031 28.40625 -91.03125 C 30.882812 -94.363281 33.484375 -97.660156 36.203125 -100.921875 C 38.929688 -104.191406 41.445312 -107.039062 43.75 -109.46875 C 47.863281 -113.457031 52.035156 -117.113281 56.265625 -120.4375 C 60.503906 -123.769531 65.070312 -126.460938 69.96875 -128.515625 C 74.875 -130.578125 80.296875 -131.609375 86.234375 -131.609375 C 92.035156 -131.242188 96.78125 -129.035156 100.46875 -124.984375 C 104.164062 -120.929688 106.921875 -115.9375 108.734375 -110 C 110.546875 -104.070312 111.453125 -97.960938 111.453125 -91.671875 C 111.453125 -84.535156 110.726562 -77.273438 109.28125 -69.890625 C 107.832031 -62.503906 106.257812 -55.601562 104.5625 -49.1875 C 103.957031 -46.40625 103.320312 -43.957031 102.65625 -41.84375 C 101.988281 -39.726562 100.628906 -38.671875 98.578125 -38.671875 C 97.117188 -38.671875 96.328125 -39.757812 96.203125 -41.9375 C 96.085938 -44.113281 96.300781 -46.742188 96.84375 -49.828125 C 97.382812 -52.910156 97.988281 -55.785156 98.65625 -58.453125 C 99.320312 -61.117188 99.78125 -62.875 100.03125 -63.71875 C 100.875 -68.914062 101.628906 -74.507812 102.296875 -80.5 C 102.960938 -86.5 103.050781 -92.460938 102.5625 -98.390625 C 102.082031 -104.316406 100.570312 -109.703125 98.03125 -114.546875 C 96.207031 -118.054688 94.023438 -120.503906 91.484375 -121.890625 C 88.941406 -123.285156 86.222656 -123.984375 83.328125 -123.984375 C 80.785156 -123.984375 78.210938 -123.53125 75.609375 -122.625 C 73.003906 -121.71875 70.492188 -120.597656 68.078125 -119.265625 C 66.378906 -118.171875 64.46875 -116.925781 62.34375 -115.53125 C 60.226562 -114.144531 58.445312 -112.726562 57 -111.28125 C 56.15625 -110.4375 55.335938 -109.738281 54.546875 -109.1875 C 53.765625 -108.644531 52.945312 -107.890625 52.09375 -106.921875 L 30.671875 -81.328125 C 28.253906 -77.578125 26.347656 -74.457031 24.953125 -71.96875 C 23.566406 -69.488281 22.023438 -66.675781 20.328125 -63.53125 C 18.640625 -60.875 16.882812 -57.457031 15.0625 -53.28125 C 13.25 -49.101562 11.675781 -44.863281 10.34375 -40.5625 C 9.007812 -36.269531 8.039062 -32.613281 7.4375 -29.59375 C 7.070312 -26.8125 6.828125 -24.085938 6.703125 -21.421875 C 6.585938 -18.753906 6.957031 -16.09375 7.8125 -13.4375 C 9.019531 -10.40625 11.253906 -8.253906 14.515625 -6.984375 C 17.785156 -5.710938 21.414062 -4.957031 25.40625 -4.71875 C 29.40625 -4.476562 33.039062 -4.296875 36.3125 -4.171875 C 40.664062 -3.929688 44.597656 -3.78125 48.109375 -3.71875 C 51.617188 -3.65625 55.128906 -3.441406 58.640625 -3.078125 C 62.148438 -2.722656 66.019531 -1.816406 70.25 -0.359375 C 72.675781 0.359375 75.367188 1.566406 78.328125 3.265625 C 81.296875 4.960938 83.988281 6.957031 86.40625 9.25 C 88.832031 11.550781 90.347656 13.972656 90.953125 16.515625 C 93.609375 14.703125 96.691406 12.375 100.203125 9.53125 C 103.710938 6.6875 107.253906 3.75 110.828125 0.71875 C 114.398438 -2.300781 117.515625 -4.898438 120.171875 -7.078125 L 134.15625 -19.421875 C 135.363281 -20.628906 136.507812 -21.65625 137.59375 -22.5 C 138.6875 -23.351562 139.835938 -24.382812 141.046875 -25.59375 C 143.109375 -27.769531 144.648438 -29.222656 145.671875 -29.953125 C 146.703125 -30.679688 147.582031 -31.046875 148.3125 -31.046875 C 148.789062 -31.046875 149.210938 -30.984375 149.578125 -30.859375 C 149.941406 -30.734375 150.367188 -30.613281 150.859375 -30.5 C 150.859375 -29.289062 150.976562 -28.5625 151.21875 -28.3125 C 151.457031 -28.070312 151.546875 -27.859375 151.484375 -27.671875 C 151.421875 -27.492188 150.992188 -27.070312 150.203125 -26.40625 C 149.421875 -25.75 148.003906 -24.390625 145.953125 -22.328125 C 141.953125 -18.453125 138.285156 -15.0625 134.953125 -12.15625 C 131.628906 -9.257812 128.09375 -5.992188 124.34375 -2.359375 L 112.734375 7.078125 C 111.765625 7.804688 110.34375 8.925781 108.46875 10.4375 C 106.59375 11.945312 104.59375 13.550781 102.46875 15.25 C 100.351562 16.945312 98.476562 18.488281 96.84375 19.875 C 95.207031 21.269531 94.210938 22.269531 93.859375 22.875 C 94.335938 24.8125 94.757812 26.773438 95.125 28.765625 C 95.488281 30.765625 95.671875 32.914062 95.671875 35.21875 C 95.671875 41.632812 94.1875 48.046875 91.21875 54.453125 C 88.25 60.867188 84.4375 66.769531 79.78125 72.15625 C 75.125 77.539062 70.191406 81.835938 64.984375 85.046875 C 59.785156 88.253906 54.945312 89.859375 50.46875 89.859375 C 48.769531 89.859375 46.863281 89.675781 44.75 89.3125 C 42.632812 88.945312 40.785156 88.1875 39.203125 87.03125 C 37.628906 85.882812 36.84375 84.039062 36.84375 81.5 C 36.84375 77.03125 37.597656 73.160156 39.109375 69.890625 C 40.628906 66.617188 42.71875 63.171875 45.375 59.546875 C 49.375 53.972656 53.550781 49.128906 57.90625 45.015625 C 62.257812 40.898438 66.859375 36.726562 71.703125 32.5 L 86.234375 20.515625 C 82.960938 14.335938 78.84375 10.066406 73.875 7.703125 C 68.914062 5.347656 62.867188 3.75 55.734375 2.90625 L 41.03125 1.8125 C 35.34375 1.695312 30.046875 1.578125 25.140625 1.453125 C 20.242188 1.328125 15.738281 0.476562 11.625 -1.09375 C 7.75 -2.539062 4.84375 -5.019531 2.90625 -8.53125 C 0.96875 -12.039062 0 -16.398438 0 -21.609375 Z M 0 -21.609375 "/></g></g></g></svg>