<svg xmlns="http://www.w3.org/2000/svg" xmlns:xlink="http://www.w3.org/1999/xlink" width="240" zoomAndPan="magnify" viewBox="0 0 180 89.999999" height="120" preserveAspectRatio="xMidYMid meet" version="1.2"><defs/><g id="1663559ced"><g style="fill:#000000;fill-opacity:1;"><g transform="translate(15.803921, 51.40311)"><path style="stroke:none" d="M 18.71875 31.546875 C 19.757812 31.546875 20.925781 31.191406 22.21875 30.484375 C 23.519531 29.785156 24.75 28.957031 25.90625 28 C 27.070312 27.039062 27.953125 26.15625 28.546875 25.34375 C 28.910156 24.882812 29.226562 24.484375 29.5 24.140625 C 29.769531 23.796875 30.066406 23.398438 30.390625 22.953125 C 30.617188 22.492188 30.867188 22.070312 31.140625 21.6875 C 31.410156 21.300781 31.640625 20.878906 31.828125 20.421875 C 32.554688 19.003906 33.035156 17.769531 33.265625 16.71875 C 33.492188 15.675781 33.59375 14.644531 33.5625 13.625 C 33.539062 12.601562 33.460938 11.453125 33.328125 10.171875 C 33.003906 10.265625 32.75 10.390625 32.5625 10.546875 C 32.382812 10.710938 32.140625 10.90625 31.828125 11.125 C 31.640625 11.3125 31.441406 11.472656 31.234375 11.609375 C 31.035156 11.742188 30.820312 11.90625 30.59375 12.09375 L 26.90625 15.359375 C 25.675781 16.503906 24.675781 17.425781 23.90625 18.125 C 23.132812 18.832031 22.394531 19.570312 21.6875 20.34375 C 20.976562 21.125 20.101562 22.21875 19.0625 23.625 C 18.738281 24.039062 18.335938 24.613281 17.859375 25.34375 C 17.378906 26.070312 16.957031 26.84375 16.59375 27.65625 C 16.226562 28.476562 16.046875 29.207031 16.046875 29.84375 C 16.046875 30.664062 16.21875 31.15625 16.5625 31.3125 C 16.90625 31.46875 17.484375 31.546875 18.296875 31.546875 C 18.390625 31.546875 18.46875 31.546875 18.53125 31.546875 C 18.601562 31.546875 18.664062 31.546875 18.71875 31.546875 Z M 0 -8.125 C 0 -10.582031 0.421875 -13.15625 1.265625 -15.84375 C 2.109375 -18.53125 3.175781 -21.171875 4.46875 -23.765625 C 5.769531 -26.359375 7.082031 -28.679688 8.40625 -30.734375 C 8.988281 -31.828125 9.75 -33 10.6875 -34.25 C 11.625 -35.5 12.601562 -36.738281 13.625 -37.96875 C 14.644531 -39.195312 15.585938 -40.269531 16.453125 -41.1875 C 18.003906 -42.6875 19.578125 -44.0625 21.171875 -45.3125 C 22.765625 -46.5625 24.484375 -47.570312 26.328125 -48.34375 C 28.171875 -49.125 30.207031 -49.515625 32.4375 -49.515625 C 34.625 -49.378906 36.410156 -48.546875 37.796875 -47.015625 C 39.191406 -45.492188 40.226562 -43.617188 40.90625 -41.390625 C 41.59375 -39.160156 41.9375 -36.859375 41.9375 -34.484375 C 41.9375 -31.796875 41.660156 -29.0625 41.109375 -26.28125 C 40.566406 -23.507812 39.976562 -20.921875 39.34375 -18.515625 C 39.113281 -17.460938 38.875 -16.535156 38.625 -15.734375 C 38.375 -14.941406 37.859375 -14.546875 37.078125 -14.546875 C 36.535156 -14.546875 36.238281 -14.953125 36.1875 -15.765625 C 36.144531 -16.585938 36.226562 -17.578125 36.4375 -18.734375 C 36.644531 -19.898438 36.875 -20.984375 37.125 -21.984375 C 37.375 -22.992188 37.539062 -23.65625 37.625 -23.96875 C 37.945312 -25.925781 38.234375 -28.03125 38.484375 -30.28125 C 38.734375 -32.539062 38.765625 -34.785156 38.578125 -37.015625 C 38.398438 -39.242188 37.832031 -41.269531 36.875 -43.09375 C 36.195312 -44.414062 35.378906 -45.335938 34.421875 -45.859375 C 33.460938 -46.378906 32.4375 -46.640625 31.34375 -46.640625 C 30.382812 -46.640625 29.414062 -46.46875 28.4375 -46.125 C 27.46875 -45.789062 26.523438 -45.375 25.609375 -44.875 C 24.972656 -44.457031 24.253906 -43.988281 23.453125 -43.46875 C 22.660156 -42.945312 21.988281 -42.410156 21.4375 -41.859375 C 21.125 -41.546875 20.816406 -41.285156 20.515625 -41.078125 C 20.222656 -40.867188 19.914062 -40.585938 19.59375 -40.234375 L 11.546875 -30.59375 C 10.628906 -29.1875 9.910156 -28.015625 9.390625 -27.078125 C 8.867188 -26.140625 8.289062 -25.082031 7.65625 -23.90625 C 7.007812 -22.90625 6.34375 -21.617188 5.65625 -20.046875 C 4.976562 -18.472656 4.390625 -16.878906 3.890625 -15.265625 C 3.390625 -13.648438 3.023438 -12.269531 2.796875 -11.125 C 2.660156 -10.082031 2.566406 -9.0625 2.515625 -8.0625 C 2.472656 -7.0625 2.613281 -6.054688 2.9375 -5.046875 C 3.394531 -3.910156 4.238281 -3.101562 5.46875 -2.625 C 6.695312 -2.144531 8.0625 -1.859375 9.5625 -1.765625 C 11.0625 -1.679688 12.425781 -1.617188 13.65625 -1.578125 C 15.300781 -1.484375 16.78125 -1.421875 18.09375 -1.390625 C 19.414062 -1.367188 20.738281 -1.289062 22.0625 -1.15625 C 23.382812 -1.019531 24.84375 -0.679688 26.4375 -0.140625 C 27.34375 0.128906 28.351562 0.582031 29.46875 1.21875 C 30.582031 1.863281 31.59375 2.617188 32.5 3.484375 C 33.414062 4.347656 33.988281 5.257812 34.21875 6.21875 C 35.21875 5.53125 36.378906 4.648438 37.703125 3.578125 C 39.023438 2.515625 40.351562 1.410156 41.6875 0.265625 C 43.03125 -0.867188 44.207031 -1.84375 45.21875 -2.65625 L 50.46875 -7.3125 C 50.925781 -7.757812 51.359375 -8.144531 51.765625 -8.46875 C 52.179688 -8.789062 52.613281 -9.175781 53.0625 -9.625 C 53.84375 -10.445312 54.425781 -10.992188 54.8125 -11.265625 C 55.195312 -11.535156 55.523438 -11.671875 55.796875 -11.671875 C 55.984375 -11.671875 56.144531 -11.648438 56.28125 -11.609375 C 56.414062 -11.566406 56.570312 -11.519531 56.75 -11.46875 C 56.75 -11.019531 56.796875 -10.75 56.890625 -10.65625 C 56.984375 -10.5625 57.015625 -10.476562 56.984375 -10.40625 C 56.960938 -10.34375 56.804688 -10.1875 56.515625 -9.9375 C 56.222656 -9.6875 55.6875 -9.175781 54.90625 -8.40625 C 53.40625 -6.945312 52.03125 -5.671875 50.78125 -4.578125 C 49.53125 -3.484375 48.195312 -2.253906 46.78125 -0.890625 L 42.40625 2.65625 C 42.039062 2.9375 41.503906 3.359375 40.796875 3.921875 C 40.097656 4.492188 39.347656 5.097656 38.546875 5.734375 C 37.753906 6.367188 37.050781 6.945312 36.4375 7.46875 C 35.820312 8 35.445312 8.378906 35.3125 8.609375 C 35.488281 9.335938 35.644531 10.078125 35.78125 10.828125 C 35.925781 11.578125 36 12.382812 36 13.25 C 36 15.664062 35.4375 18.078125 34.3125 20.484375 C 33.195312 22.898438 31.765625 25.117188 30.015625 27.140625 C 28.265625 29.171875 26.410156 30.789062 24.453125 32 C 22.492188 33.207031 20.671875 33.8125 18.984375 33.8125 C 18.347656 33.8125 17.628906 33.738281 16.828125 33.59375 C 16.035156 33.457031 15.34375 33.171875 14.75 32.734375 C 14.15625 32.304688 13.859375 31.617188 13.859375 30.671875 C 13.859375 28.984375 14.144531 27.523438 14.71875 26.296875 C 15.289062 25.066406 16.078125 23.769531 17.078125 22.40625 C 18.578125 20.3125 20.144531 18.488281 21.78125 16.9375 C 23.425781 15.382812 25.160156 13.8125 26.984375 12.21875 L 32.4375 7.71875 C 31.207031 5.394531 29.660156 3.789062 27.796875 2.90625 C 25.929688 2.019531 23.65625 1.414062 20.96875 1.09375 L 15.4375 0.6875 C 13.289062 0.632812 11.296875 0.585938 9.453125 0.546875 C 7.609375 0.503906 5.914062 0.1875 4.375 -0.40625 C 2.914062 -0.957031 1.820312 -1.890625 1.09375 -3.203125 C 0.363281 -4.523438 0 -6.164062 0 -8.125 Z M 0 -8.125 "/></g></g><g style="fill:#000000;fill-opacity:1;"><g transform="translate(70.170714, 51.40311)"><path style="stroke:none" d="M 4.71875 4.234375 C 5.488281 3.828125 6.269531 3.210938 7.0625 2.390625 C 7.863281 1.566406 8.570312 0.703125 9.1875 -0.203125 C 9.800781 -1.117188 10.195312 -1.914062 10.375 -2.59375 L 6.96875 0.34375 C 6.414062 0.84375 6.015625 1.21875 5.765625 1.46875 C 5.515625 1.71875 5.332031 2.023438 5.21875 2.390625 C 5.101562 2.753906 4.9375 3.367188 4.71875 4.234375 Z M 6.421875 -1.78125 C 6.648438 -1.914062 6.785156 -2.015625 6.828125 -2.078125 C 6.867188 -2.148438 6.984375 -2.273438 7.171875 -2.453125 C 7.441406 -2.640625 7.691406 -2.820312 7.921875 -3 C 8.921875 -3.863281 9.679688 -4.5 10.203125 -4.90625 C 10.734375 -5.320312 11.097656 -5.664062 11.296875 -5.9375 C 11.503906 -6.21875 11.617188 -6.535156 11.640625 -6.890625 C 11.660156 -7.253906 11.671875 -7.828125 11.671875 -8.609375 C 11.671875 -9.648438 11.46875 -10.171875 11.0625 -10.171875 C 10.75 -10.171875 10.335938 -9.863281 9.828125 -9.25 C 9.328125 -8.632812 8.828125 -7.859375 8.328125 -6.921875 C 7.828125 -5.992188 7.394531 -5.0625 7.03125 -4.125 C 6.664062 -3.195312 6.460938 -2.414062 6.421875 -1.78125 Z M 0 -0.265625 C 0 -0.816406 0.0390625 -1.878906 0.125 -3.453125 C 0.21875 -5.023438 0.367188 -6.820312 0.578125 -8.84375 C 0.785156 -10.875 1.046875 -12.832031 1.359375 -14.71875 C 1.679688 -16.601562 2.066406 -18.171875 2.515625 -19.421875 C 2.972656 -20.679688 3.5 -21.3125 4.09375 -21.3125 C 4.414062 -21.3125 4.734375 -21.21875 5.046875 -21.03125 C 5.191406 -20.53125 5.265625 -20.164062 5.265625 -19.9375 C 5.265625 -19.707031 5.226562 -19.457031 5.15625 -19.1875 C 5.082031 -18.914062 4.957031 -18.394531 4.78125 -17.625 C 4.144531 -14.382812 3.675781 -11.207031 3.375 -8.09375 C 3.082031 -4.976562 2.9375 -1.710938 2.9375 1.703125 C 3.257812 1.472656 3.585938 0.847656 3.921875 -0.171875 C 4.265625 -1.191406 4.664062 -2.375 5.125 -3.71875 C 5.582031 -5.0625 6.082031 -6.394531 6.625 -7.71875 C 7.164062 -9.039062 7.800781 -10.132812 8.53125 -11 C 9.257812 -11.863281 10.101562 -12.296875 11.0625 -12.296875 C 12.0625 -12.296875 12.800781 -11.828125 13.28125 -10.890625 C 13.757812 -9.960938 14 -9.019531 14 -8.0625 C 14.269531 -8.15625 14.585938 -8.328125 14.953125 -8.578125 C 15.316406 -8.828125 15.632812 -9.039062 15.90625 -9.21875 C 16.363281 -9.539062 16.898438 -9.925781 17.515625 -10.375 C 18.128906 -10.832031 18.734375 -11.242188 19.328125 -11.609375 C 19.921875 -11.972656 20.398438 -12.15625 20.765625 -12.15625 C 21.171875 -12.15625 21.375 -11.882812 21.375 -11.34375 C 21.375 -11.113281 21.03125 -10.722656 20.34375 -10.171875 C 19.664062 -9.628906 18.867188 -9.035156 17.953125 -8.390625 C 17.046875 -7.753906 16.191406 -7.164062 15.390625 -6.625 C 14.597656 -6.082031 14.085938 -5.671875 13.859375 -5.390625 C 13.722656 -5.210938 13.503906 -4.703125 13.203125 -3.859375 C 12.910156 -3.015625 12.503906 -2.007812 11.984375 -0.84375 C 11.460938 0.3125 10.753906 1.46875 9.859375 2.625 C 8.972656 3.789062 7.828125 4.78125 6.421875 5.59375 C 6.148438 5.738281 5.84375 5.878906 5.5 6.015625 C 5.15625 6.148438 4.867188 6.304688 4.640625 6.484375 C 4.328125 6.671875 4.066406 7.21875 3.859375 8.125 C 3.648438 9.039062 3.5 9.972656 3.40625 10.921875 C 3.320312 11.878906 3.28125 12.5625 3.28125 12.96875 C 3.28125 13.789062 3.335938 14.691406 3.453125 15.671875 C 3.566406 16.648438 3.597656 17.476562 3.546875 18.15625 C 3.503906 18.84375 3.234375 19.1875 2.734375 19.1875 C 2.234375 19.1875 1.9375 19.023438 1.84375 18.703125 C 1.75 18.390625 1.660156 17.9375 1.578125 17.34375 C 1.160156 14.476562 0.789062 11.550781 0.46875 8.5625 C 0.15625 5.582031 0 2.640625 0 -0.265625 Z M 0 -0.265625 "/></g></g><g style="fill:#000000;fill-opacity:1;"><g transform="translate(89.294724, 51.40311)"><path style="stroke:none" d="M 3.421875 -1.578125 C 4.097656 -1.753906 4.707031 -2.351562 5.25 -3.375 C 5.800781 -4.40625 6.191406 -5.578125 6.421875 -6.890625 C 6.648438 -8.210938 6.707031 -9.429688 6.59375 -10.546875 C 6.476562 -11.660156 6.125 -12.425781 5.53125 -12.84375 C 5.394531 -12.34375 5.144531 -11.625 4.78125 -10.6875 C 4.414062 -9.75 4.0625 -8.722656 3.71875 -7.609375 C 3.375 -6.492188 3.144531 -5.398438 3.03125 -4.328125 C 2.925781 -3.265625 3.054688 -2.347656 3.421875 -1.578125 Z M 0 -3.890625 C 0 -4.484375 0.125 -5.359375 0.375 -6.515625 C 0.625 -7.679688 0.976562 -8.9375 1.4375 -10.28125 C 1.894531 -11.625 2.40625 -12.894531 2.96875 -14.09375 C 3.539062 -15.300781 4.15625 -16.289062 4.8125 -17.0625 C 5.476562 -17.84375 6.148438 -18.234375 6.828125 -18.234375 C 7.285156 -18.234375 7.601562 -18.023438 7.78125 -17.609375 C 7.96875 -17.203125 8.015625 -16.863281 7.921875 -16.59375 C 7.828125 -16.363281 7.65625 -16.132812 7.40625 -15.90625 C 7.15625 -15.6875 6.941406 -15.4375 6.765625 -15.15625 C 6.847656 -14.84375 7.070312 -14.488281 7.4375 -14.09375 C 7.800781 -13.707031 8.164062 -13.195312 8.53125 -12.5625 C 8.894531 -11.925781 9.132812 -11.0625 9.25 -9.96875 C 9.363281 -8.875 9.238281 -7.441406 8.875 -5.671875 C 8.375 -3.304688 7.578125 -1.53125 6.484375 -0.34375 C 5.390625 0.84375 4.320312 1.4375 3.28125 1.4375 C 2.414062 1.4375 1.648438 0.988281 0.984375 0.09375 C 0.328125 -0.789062 0 -2.117188 0 -3.890625 Z M 0 -3.890625 "/></g></g><g style="fill:#000000;fill-opacity:1;"><g transform="translate(101.315541, 51.40311)"><path style="stroke:none" d="M 3.421875 -1.578125 C 4.097656 -1.753906 4.707031 -2.351562 5.25 -3.375 C 5.800781 -4.40625 6.191406 -5.578125 6.421875 -6.890625 C 6.648438 -8.210938 6.707031 -9.429688 6.59375 -10.546875 C 6.476562 -11.660156 6.125 -12.425781 5.53125 -12.84375 C 5.394531 -12.34375 5.144531 -11.625 4.78125 -10.6875 C 4.414062 -9.75 4.0625 -8.722656 3.71875 -7.609375 C 3.375 -6.492188 3.144531 -5.398438 3.03125 -4.328125 C 2.925781 -3.265625 3.054688 -2.347656 3.421875 -1.578125 Z M 0 -3.890625 C 0 -4.484375 0.125 -5.359375 0.375 -6.515625 C 0.625 -7.679688 0.976562 -8.9375 1.4375 -10.28125 C 1.894531 -11.625 2.40625 -12.894531 2.96875 -14.09375 C 3.539062 -15.300781 4.15625 -16.289062 4.8125 -17.0625 C 5.476562 -17.84375 6.148438 -18.234375 6.828125 -18.234375 C 7.285156 -18.234375 7.601562 -18.023438 7.78125 -17.609375 C 7.96875 -17.203125 8.015625 -16.863281 7.921875 -16.59375 C 7.828125 -16.363281 7.65625 -16.132812 7.40625 -15.90625 C 7.15625 -15.6875 6.941406 -15.4375 6.765625 -15.15625 C 6.847656 -14.84375 7.070312 -14.488281 7.4375 -14.09375 C 7.800781 -13.707031 8.164062 -13.195312 8.53125 -12.5625 C 8.894531 -11.925781 9.132812 -11.0625 9.25 -9.96875 C 9.363281 -8.875 9.238281 -7.441406 8.875 -5.671875 C 8.375 -3.304688 7.578125 -1.53125 6.484375 -0.34375 C 5.390625 0.84375 4.320312 1.4375 3.28125 1.4375 C 2.414062 1.4375 1.648438 0.988281 0.984375 0.09375 C 0.328125 -0.789062 0 -2.117188 0 -3.890625 Z M 0 -3.890625 "/></g></g><g style="fill:#000000;fill-opacity:1;"><g transform="translate(113.336359, 51.40311)"><path style="stroke:none" d="M 0 -5.1875 C 0 -8.46875 0.078125 -11.742188 0.234375 -15.015625 C 0.398438 -18.296875 0.617188 -21.460938 0.890625 -24.515625 C 0.929688 -24.835938 1.019531 -25.585938 1.15625 -26.765625 C 1.289062 -27.953125 1.472656 -29.332031 1.703125 -30.90625 C 1.929688 -32.476562 2.203125 -34.015625 2.515625 -35.515625 C 2.835938 -37.015625 3.203125 -38.265625 3.609375 -39.265625 C 4.023438 -40.265625 4.460938 -40.765625 4.921875 -40.765625 C 5.828125 -40.765625 6.347656 -40.523438 6.484375 -40.046875 C 6.617188 -39.578125 6.570312 -38.929688 6.34375 -38.109375 C 6.125 -37.285156 5.921875 -36.351562 5.734375 -35.3125 C 5.140625 -31.9375 4.601562 -28.289062 4.125 -24.375 C 3.65625 -20.46875 3.289062 -16.578125 3.03125 -12.703125 C 2.78125 -8.828125 2.65625 -5.273438 2.65625 -2.046875 C 2.75 -2.140625 3.023438 -2.628906 3.484375 -3.515625 C 3.941406 -4.398438 4.519531 -5.523438 5.21875 -6.890625 C 5.925781 -8.265625 6.6875 -9.710938 7.5 -11.234375 C 8.320312 -12.753906 9.144531 -14.1875 9.96875 -15.53125 C 10.789062 -16.875 11.53125 -17.96875 12.1875 -18.8125 C 12.851562 -19.65625 13.367188 -20.078125 13.734375 -20.078125 C 14.734375 -20.078125 15.175781 -19.835938 15.0625 -19.359375 C 14.945312 -18.878906 14.566406 -18.226562 13.921875 -17.40625 C 13.285156 -16.59375 12.628906 -15.617188 11.953125 -14.484375 C 11.765625 -14.203125 11.59375 -13.9375 11.4375 -13.6875 C 11.28125 -13.4375 11.109375 -13.175781 10.921875 -12.90625 C 10.515625 -12.226562 10.242188 -11.691406 10.109375 -11.296875 C 9.972656 -10.910156 9.914062 -10.429688 9.9375 -9.859375 C 9.957031 -9.296875 10.035156 -8.351562 10.171875 -7.03125 C 10.265625 -6.070312 10.457031 -4.851562 10.75 -3.375 C 11.050781 -1.894531 11.40625 -0.414062 11.8125 1.0625 C 12.226562 2.539062 12.59375 3.734375 12.90625 4.640625 C 13.269531 5.503906 13.585938 6.140625 13.859375 6.546875 C 14.140625 6.960938 14.320312 7.398438 14.40625 7.859375 C 14.226562 8.035156 14.046875 8.222656 13.859375 8.421875 C 13.679688 8.628906 13.457031 8.734375 13.1875 8.734375 C 13.09375 8.734375 12.910156 8.691406 12.640625 8.609375 C 12.085938 8.335938 11.617188 7.859375 11.234375 7.171875 C 10.847656 6.484375 10.53125 5.753906 10.28125 4.984375 C 10.03125 4.210938 9.8125 3.550781 9.625 3 C 9.125 1.5 8.710938 -0.0351562 8.390625 -1.609375 C 8.078125 -3.179688 7.738281 -4.738281 7.375 -6.28125 L 4.375 0.265625 C 4.050781 1.273438 3.765625 2.3125 3.515625 3.375 C 3.265625 4.445312 2.988281 5.347656 2.6875 6.078125 C 2.394531 6.804688 2.023438 7.171875 1.578125 7.171875 C 0.984375 7.171875 0.601562 6.953125 0.4375 6.515625 C 0.28125 6.085938 0.210938 5.554688 0.234375 4.921875 C 0.253906 4.285156 0.242188 3.691406 0.203125 3.140625 C 0.160156 2.640625 0.113281 2.253906 0.0625 1.984375 C 0.0195312 1.710938 0 1.253906 0 0.609375 Z M 0 -5.1875 "/></g></g><g style="fill:#000000;fill-opacity:1;"><g transform="translate(128.840445, 51.40311)"><path style="stroke:none" d="M 3.140625 -12.359375 C 4.003906 -12.816406 4.957031 -13.441406 6 -14.234375 C 7.050781 -15.035156 7.625 -15.984375 7.71875 -17.078125 C 7.125 -16.984375 6.492188 -16.660156 5.828125 -16.109375 C 5.171875 -15.566406 4.601562 -14.953125 4.125 -14.265625 C 3.65625 -13.585938 3.328125 -12.953125 3.140625 -12.359375 Z M 0.0625 -10.71875 C 0.0625 -11.863281 0.4375 -13.09375 1.1875 -14.40625 C 1.945312 -15.726562 2.882812 -16.851562 4 -17.78125 C 5.113281 -18.71875 6.21875 -19.1875 7.3125 -19.1875 C 8.8125 -19.1875 9.59375 -18.617188 9.65625 -17.484375 C 9.726562 -16.347656 9.242188 -15.117188 8.203125 -13.796875 C 7.648438 -13.203125 6.828125 -12.519531 5.734375 -11.75 C 4.640625 -10.976562 3.570312 -10.546875 2.53125 -10.453125 C 2.53125 -9.722656 2.550781 -9.070312 2.59375 -8.5 C 2.632812 -7.9375 2.953125 -7.359375 3.546875 -6.765625 C 4.140625 -6.171875 4.894531 -5.875 5.8125 -5.875 C 6.988281 -5.875 8.210938 -6.25 9.484375 -7 C 10.765625 -7.75 11.75 -8.375 12.4375 -8.875 C 12.707031 -9.101562 12.921875 -9.285156 13.078125 -9.421875 C 13.234375 -9.554688 13.425781 -9.71875 13.65625 -9.90625 C 14.613281 -10.632812 15.21875 -11.164062 15.46875 -11.5 C 15.71875 -11.84375 15.929688 -12.070312 16.109375 -12.1875 C 16.296875 -12.300781 16.734375 -12.359375 17.421875 -12.359375 C 17.503906 -11.859375 17.535156 -11.515625 17.515625 -11.328125 C 17.492188 -11.148438 17.320312 -10.878906 17 -10.515625 C 16.1875 -9.691406 15.148438 -8.753906 13.890625 -7.703125 C 12.640625 -6.660156 11.296875 -5.753906 9.859375 -4.984375 C 8.429688 -4.210938 7.007812 -3.828125 5.59375 -3.828125 C 4.863281 -3.828125 4.171875 -3.953125 3.515625 -4.203125 C 2.859375 -4.453125 2.234375 -4.875 1.640625 -5.46875 C 0.816406 -6.28125 0.347656 -7.117188 0.234375 -7.984375 C 0.117188 -8.847656 0.0625 -9.757812 0.0625 -10.71875 Z M 0.0625 -10.71875 "/></g><g transform="translate(143.661517, 51.40311)"><path style="stroke:none" d="M 1.90625 -3.546875 C 1.039062 -3.546875 0.484375 -4.066406 0.234375 -5.109375 C -0.015625 -6.160156 -0.0507812 -7.472656 0.125 -9.046875 C 0.3125 -10.617188 0.644531 -12.191406 1.125 -13.765625 C 1.601562 -15.335938 2.140625 -16.644531 2.734375 -17.6875 C 3.328125 -18.738281 3.875 -19.265625 4.375 -19.265625 C 5.144531 -19.265625 5.503906 -18.910156 5.453125 -18.203125 C 5.410156 -17.492188 5.1875 -16.554688 4.78125 -15.390625 C 4.375 -14.234375 3.960938 -12.960938 3.546875 -11.578125 C 3.140625 -10.191406 2.9375 -8.835938 2.9375 -7.515625 L 6.21875 -12.5 C 6.351562 -12.769531 6.644531 -13.242188 7.09375 -13.921875 C 7.550781 -14.609375 8.066406 -15.25 8.640625 -15.84375 C 9.210938 -16.4375 9.769531 -16.734375 10.3125 -16.734375 C 10.851562 -16.734375 11.285156 -16.367188 11.609375 -15.640625 L 12.015625 -11.8125 C 12.015625 -11.40625 12.035156 -10.769531 12.078125 -9.90625 C 12.128906 -9.039062 12.234375 -8.160156 12.390625 -7.265625 C 12.554688 -6.378906 12.820312 -5.617188 13.1875 -4.984375 C 13.550781 -4.347656 14.050781 -4.03125 14.6875 -4.03125 C 15.363281 -4.03125 16.078125 -4.4375 16.828125 -5.25 C 17.585938 -6.070312 18.316406 -7.019531 19.015625 -8.09375 C 19.722656 -9.164062 20.359375 -10.109375 20.921875 -10.921875 C 21.492188 -11.742188 21.941406 -12.15625 22.265625 -12.15625 C 22.953125 -12.15625 23.269531 -11.894531 23.21875 -11.375 C 23.175781 -10.851562 22.945312 -10.25 22.53125 -9.5625 C 22.125 -8.875 21.703125 -8.234375 21.265625 -7.640625 C 20.835938 -7.054688 20.578125 -6.695312 20.484375 -6.5625 C 20.171875 -6.144531 19.738281 -5.617188 19.1875 -4.984375 C 18.644531 -4.347656 18.078125 -3.753906 17.484375 -3.203125 C 16.890625 -2.660156 16.320312 -2.320312 15.78125 -2.1875 C 15.320312 -2.050781 14.890625 -1.984375 14.484375 -1.984375 C 13.429688 -1.984375 12.597656 -2.367188 11.984375 -3.140625 C 11.367188 -3.910156 10.90625 -4.753906 10.59375 -5.671875 C 10.132812 -7.035156 9.878906 -8.25 9.828125 -9.3125 C 9.785156 -10.382812 9.785156 -11.296875 9.828125 -12.046875 C 9.878906 -12.804688 9.789062 -13.390625 9.5625 -13.796875 C 9.007812 -13.429688 8.425781 -12.703125 7.8125 -11.609375 C 7.195312 -10.515625 6.5625 -9.34375 5.90625 -8.09375 C 5.25 -6.84375 4.585938 -5.769531 3.921875 -4.875 C 3.265625 -3.988281 2.59375 -3.546875 1.90625 -3.546875 Z M 1.90625 -3.546875 "/></g></g></g></svg>