<svg xmlns="http://www.w3.org/2000/svg" xmlns:xlink="http://www.w3.org/1999/xlink" width="300" zoomAndPan="magnify" viewBox="0 0 224.87999 112.499997" height="150" preserveAspectRatio="xMidYMid meet" version="1.2"><defs/><g id="a3a48376aa"><g style="fill:#000000;fill-opacity:1;"><g transform="translate(17.588127, 73.323678)"><path style="stroke:none" d="M 29.6875 -10.03125 C 29.8125 -9.894531 29.863281 -9.742188 29.84375 -9.578125 C 29.832031 -9.421875 29.757812 -9.285156 29.625 -9.171875 C 26.632812 -6.554688 23.910156 -4.097656 21.453125 -1.796875 C 21.796875 -0.972656 21.914062 -0.046875 21.8125 0.984375 C 21.644531 2.773438 21.203125 4.472656 20.484375 6.078125 C 19.773438 7.691406 18.90625 9.179688 17.875 10.546875 C 16.851562 11.910156 15.753906 13.097656 14.578125 14.109375 C 13.410156 15.128906 12.28125 15.945312 11.1875 16.5625 C 10.101562 17.1875 9.144531 17.570312 8.3125 17.71875 C 8.1875 17.75 8.070312 17.769531 7.96875 17.78125 C 7.320312 17.84375 6.851562 17.753906 6.5625 17.515625 C 6.28125 17.285156 6.085938 17.0625 5.984375 16.84375 C 5.378906 15.59375 6.285156 13.335938 8.703125 10.078125 C 11.128906 6.816406 14.875 2.78125 19.9375 -2.03125 C 19.132812 -3.1875 17.65625 -4.1875 15.5 -5.03125 C 13.34375 -5.875 10.5 -6.816406 6.96875 -7.859375 C 6.5625 -7.984375 6.140625 -8.109375 5.703125 -8.234375 C 5.273438 -8.367188 4.832031 -8.507812 4.375 -8.65625 C 2.820312 -9.125 1.707031 -9.859375 1.03125 -10.859375 C 0.351562 -11.859375 0.160156 -13.066406 0.453125 -14.484375 C 0.691406 -15.554688 1.175781 -16.679688 1.90625 -17.859375 C 2.632812 -19.046875 3.535156 -20.238281 4.609375 -21.4375 C 5.691406 -22.632812 6.878906 -23.796875 8.171875 -24.921875 C 9.460938 -26.046875 10.789062 -27.078125 12.15625 -28.015625 C 13.53125 -28.960938 14.882812 -29.78125 16.21875 -30.46875 C 17.550781 -31.164062 18.789062 -31.679688 19.9375 -32.015625 C 21.09375 -32.359375 22.082031 -32.476562 22.90625 -32.375 C 23.25 -32.320312 23.632812 -32.195312 24.0625 -32 C 24.488281 -31.8125 24.84375 -31.476562 25.125 -31 C 25.414062 -30.519531 25.550781 -29.828125 25.53125 -28.921875 C 25.507812 -28.742188 25.441406 -28.601562 25.328125 -28.5 C 25.210938 -28.394531 25.066406 -28.34375 24.890625 -28.34375 C 24.722656 -28.351562 24.582031 -28.421875 24.46875 -28.546875 C 24.351562 -28.671875 24.296875 -28.816406 24.296875 -28.984375 C 24.335938 -29.867188 24.1875 -30.441406 23.84375 -30.703125 C 23.507812 -30.972656 23.15625 -31.128906 22.78125 -31.171875 C 21.96875 -31.285156 20.925781 -31.125 19.65625 -30.6875 C 18.394531 -30.25 17 -29.582031 15.46875 -28.6875 C 13.945312 -27.800781 12.40625 -26.742188 10.84375 -25.515625 C 9.164062 -24.210938 7.671875 -22.882812 6.359375 -21.53125 C 5.054688 -20.1875 4 -18.890625 3.1875 -17.640625 C 2.375 -16.390625 1.863281 -15.257812 1.65625 -14.25 C 1.164062 -12.050781 2.191406 -10.554688 4.734375 -9.765625 C 5.191406 -9.640625 5.628906 -9.515625 6.046875 -9.390625 C 6.472656 -9.273438 6.90625 -9.15625 7.34375 -9.03125 C 9.507812 -8.375 11.476562 -7.75 13.25 -7.15625 C 15.03125 -6.5625 16.566406 -5.925781 17.859375 -5.25 C 19.148438 -4.582031 20.144531 -3.789062 20.84375 -2.875 C 23.257812 -5.15625 25.925781 -7.554688 28.84375 -10.078125 C 28.976562 -10.191406 29.125 -10.238281 29.28125 -10.21875 C 29.4375 -10.207031 29.570312 -10.144531 29.6875 -10.03125 Z M 20.625 0.84375 C 20.6875 0.207031 20.640625 -0.367188 20.484375 -0.890625 C 16.410156 2.992188 13.203125 6.375 10.859375 9.25 C 9.503906 10.945312 8.476562 12.4375 7.78125 13.71875 C 7.082031 15.007812 6.835938 15.878906 7.046875 16.328125 C 7.128906 16.484375 7.285156 16.566406 7.515625 16.578125 C 7.742188 16.585938 7.941406 16.570312 8.109375 16.53125 C 8.796875 16.425781 9.632812 16.082031 10.625 15.5 C 11.613281 14.925781 12.648438 14.164062 13.734375 13.21875 C 14.816406 12.28125 15.847656 11.175781 16.828125 9.90625 C 17.804688 8.644531 18.640625 7.242188 19.328125 5.703125 C 20.023438 4.171875 20.457031 2.550781 20.625 0.84375 Z M 20.625 0.84375 "/></g></g><g style="fill:#000000;fill-opacity:1;"><g transform="translate(59.691148, 69.29694)"><path style="stroke:none" d="M 5.546875 -12.1875 C 6.191406 -12.050781 6.65625 -11.59375 6.9375 -10.8125 C 7.226562 -10.03125 7.285156 -9.101562 7.109375 -8.03125 C 6.910156 -6.851562 6.484375 -5.800781 5.828125 -4.875 C 5.171875 -3.957031 4.535156 -3.195312 3.921875 -2.59375 C 3.179688 -1.863281 2.347656 -1.203125 1.421875 -0.609375 C 1.210938 0.734375 1.007812 2.222656 0.8125 3.859375 C 0.613281 5.503906 0.414062 7.1875 0.21875 8.90625 C 0.03125 10.632812 -0.140625 12.3125 -0.296875 13.9375 C -0.453125 15.570312 -0.59375 17.082031 -0.71875 18.46875 C -0.851562 19.851562 -0.953125 21.007812 -1.015625 21.9375 C -1.046875 22.269531 -1.226562 22.453125 -1.5625 22.484375 C -1.601562 22.492188 -1.632812 22.5 -1.65625 22.5 C -1.820312 22.5 -1.957031 22.429688 -2.0625 22.296875 C -2.164062 22.171875 -2.21875 22.023438 -2.21875 21.859375 C -2.164062 20.660156 -2.078125 19.242188 -1.953125 17.609375 C -1.835938 15.972656 -1.707031 14.195312 -1.5625 12.28125 C -1.425781 10.375 -1.28125 8.414062 -1.125 6.40625 C -0.976562 4.40625 -0.816406 2.4375 -0.640625 0.5 C -0.890625 0.601562 -1.132812 0.703125 -1.375 0.796875 C -1.53125 0.867188 -1.679688 0.867188 -1.828125 0.796875 C -1.984375 0.734375 -2.085938 0.617188 -2.140625 0.453125 C -2.203125 0.296875 -2.195312 0.140625 -2.125 -0.015625 C -2.0625 -0.171875 -1.945312 -0.273438 -1.78125 -0.328125 C -1.382812 -0.472656 -0.976562 -0.660156 -0.5625 -0.890625 C -0.507812 -1.453125 -0.457031 -2.007812 -0.40625 -2.5625 C -0.351562 -3.113281 -0.3125 -3.65625 -0.28125 -4.1875 C -0.144531 -5.84375 -0.0195312 -7.375 0.09375 -8.78125 C 0.21875 -10.1875 0.3125 -11.347656 0.375 -12.265625 C 0.445312 -13.179688 0.472656 -13.703125 0.453125 -13.828125 C 0.421875 -14.203125 0.59375 -14.414062 0.96875 -14.46875 C 1.132812 -14.507812 1.285156 -14.476562 1.421875 -14.375 C 1.554688 -14.269531 1.640625 -14.132812 1.671875 -13.96875 C 1.679688 -13.925781 1.679688 -13.78125 1.671875 -13.53125 C 1.660156 -13.28125 1.628906 -12.859375 1.578125 -12.265625 C 1.535156 -11.679688 1.46875 -10.828125 1.375 -9.703125 C 1.28125 -8.585938 1.164062 -7.140625 1.03125 -5.359375 C 1.425781 -7.015625 1.847656 -8.316406 2.296875 -9.265625 C 2.742188 -10.222656 3.175781 -10.914062 3.59375 -11.34375 C 4.007812 -11.78125 4.382812 -12.039062 4.71875 -12.125 C 5.0625 -12.207031 5.335938 -12.226562 5.546875 -12.1875 Z M 5.9375 -8.234375 C 6.0625 -9.054688 6.039062 -9.710938 5.875 -10.203125 C 5.71875 -10.691406 5.53125 -10.957031 5.3125 -11 C 5.289062 -11.007812 5.257812 -11.015625 5.21875 -11.015625 C 5.050781 -11.003906 4.800781 -10.828125 4.46875 -10.484375 C 4.144531 -10.148438 3.773438 -9.550781 3.359375 -8.6875 C 2.953125 -7.820312 2.550781 -6.566406 2.15625 -4.921875 C 2.007812 -4.273438 1.84375 -3.375 1.65625 -2.21875 C 2.71875 -3.019531 3.648438 -3.9375 4.453125 -4.96875 C 5.253906 -6.007812 5.75 -7.097656 5.9375 -8.234375 Z M 5.9375 -8.234375 "/></g></g><g style="fill:#000000;fill-opacity:1;"><g transform="translate(82.020653, 67.161344)"><path style="stroke:none" d="M 10.609375 -7.859375 C 10.765625 -7.765625 10.859375 -7.632812 10.890625 -7.46875 C 10.929688 -7.3125 10.910156 -7.164062 10.828125 -7.03125 C 10.347656 -6.300781 9.773438 -5.628906 9.109375 -5.015625 C 8.453125 -4.410156 7.742188 -3.9375 6.984375 -3.59375 C 6.234375 -3.257812 5.488281 -3.144531 4.75 -3.25 C 4.53125 -2.5 4.171875 -1.898438 3.671875 -1.453125 C 3.179688 -1.003906 2.664062 -0.753906 2.125 -0.703125 C 2.125 -0.703125 2.117188 -0.703125 2.109375 -0.703125 C 2.097656 -0.703125 2.09375 -0.703125 2.09375 -0.703125 C 1.539062 -0.671875 1.03125 -0.816406 0.5625 -1.140625 C 0.101562 -1.460938 -0.238281 -1.9375 -0.46875 -2.5625 C -0.71875 -3.269531 -0.8125 -3.953125 -0.75 -4.609375 C -0.6875 -5.273438 -0.515625 -5.875 -0.234375 -6.40625 C 0.046875 -6.9375 0.382812 -7.359375 0.78125 -7.671875 C 0.90625 -7.785156 1.066406 -7.820312 1.265625 -7.78125 C 1.398438 -8.257812 1.628906 -8.632812 1.953125 -8.90625 C 2.273438 -9.1875 2.625 -9.316406 3 -9.296875 C 3.238281 -9.273438 3.503906 -9.160156 3.796875 -8.953125 C 4.085938 -8.742188 4.34375 -8.335938 4.5625 -7.734375 C 4.78125 -7.140625 4.914062 -6.25 4.96875 -5.0625 C 4.96875 -4.851562 4.957031 -4.644531 4.9375 -4.4375 C 5.507812 -4.382812 6.097656 -4.5 6.703125 -4.78125 C 7.304688 -5.070312 7.875 -5.476562 8.40625 -6 C 8.9375 -6.519531 9.394531 -7.082031 9.78125 -7.6875 C 9.875 -7.820312 10.003906 -7.90625 10.171875 -7.9375 C 10.335938 -7.976562 10.484375 -7.953125 10.609375 -7.859375 Z M 2.015625 -1.90625 C 2.285156 -1.9375 2.570312 -2.09375 2.875 -2.375 C 3.1875 -2.65625 3.421875 -3.054688 3.578125 -3.578125 C 2.796875 -3.921875 2.21875 -4.34375 1.84375 -4.84375 C 1.46875 -5.351562 1.242188 -5.878906 1.171875 -6.421875 C 0.785156 -5.960938 0.550781 -5.40625 0.46875 -4.75 C 0.394531 -4.09375 0.457031 -3.515625 0.65625 -3.015625 C 0.738281 -2.785156 0.890625 -2.535156 1.109375 -2.265625 C 1.328125 -1.992188 1.628906 -1.875 2.015625 -1.90625 Z M 3.765625 -5.015625 C 3.722656 -5.835938 3.644531 -6.472656 3.53125 -6.921875 C 3.414062 -7.378906 3.296875 -7.6875 3.171875 -7.84375 C 3.054688 -8 2.976562 -8.082031 2.9375 -8.09375 C 2.914062 -8.09375 2.90625 -8.09375 2.90625 -8.09375 C 2.84375 -8.09375 2.753906 -8.019531 2.640625 -7.875 C 2.523438 -7.738281 2.4375 -7.546875 2.375 -7.296875 C 2.289062 -6.890625 2.34375 -6.457031 2.53125 -6 C 2.71875 -5.550781 3.132812 -5.160156 3.78125 -4.828125 C 3.769531 -4.890625 3.765625 -4.953125 3.765625 -5.015625 Z M 3.765625 -5.015625 "/></g></g><g style="fill:#000000;fill-opacity:1;"><g transform="translate(104.909779, 64.972225)"><path style="stroke:none" d="M 10.609375 -7.859375 C 10.765625 -7.765625 10.859375 -7.632812 10.890625 -7.46875 C 10.929688 -7.3125 10.910156 -7.164062 10.828125 -7.03125 C 10.347656 -6.300781 9.773438 -5.628906 9.109375 -5.015625 C 8.453125 -4.410156 7.742188 -3.9375 6.984375 -3.59375 C 6.234375 -3.257812 5.488281 -3.144531 4.75 -3.25 C 4.53125 -2.5 4.171875 -1.898438 3.671875 -1.453125 C 3.179688 -1.003906 2.664062 -0.753906 2.125 -0.703125 C 2.125 -0.703125 2.117188 -0.703125 2.109375 -0.703125 C 2.097656 -0.703125 2.09375 -0.703125 2.09375 -0.703125 C 1.539062 -0.671875 1.03125 -0.816406 0.5625 -1.140625 C 0.101562 -1.460938 -0.238281 -1.9375 -0.46875 -2.5625 C -0.71875 -3.269531 -0.8125 -3.953125 -0.75 -4.609375 C -0.6875 -5.273438 -0.515625 -5.875 -0.234375 -6.40625 C 0.046875 -6.9375 0.382812 -7.359375 0.78125 -7.671875 C 0.90625 -7.785156 1.066406 -7.820312 1.265625 -7.78125 C 1.398438 -8.257812 1.628906 -8.632812 1.953125 -8.90625 C 2.273438 -9.1875 2.625 -9.316406 3 -9.296875 C 3.238281 -9.273438 3.503906 -9.160156 3.796875 -8.953125 C 4.085938 -8.742188 4.34375 -8.335938 4.5625 -7.734375 C 4.78125 -7.140625 4.914062 -6.25 4.96875 -5.0625 C 4.96875 -4.851562 4.957031 -4.644531 4.9375 -4.4375 C 5.507812 -4.382812 6.097656 -4.5 6.703125 -4.78125 C 7.304688 -5.070312 7.875 -5.476562 8.40625 -6 C 8.9375 -6.519531 9.394531 -7.082031 9.78125 -7.6875 C 9.875 -7.820312 10.003906 -7.90625 10.171875 -7.9375 C 10.335938 -7.976562 10.484375 -7.953125 10.609375 -7.859375 Z M 2.015625 -1.90625 C 2.285156 -1.9375 2.570312 -2.09375 2.875 -2.375 C 3.1875 -2.65625 3.421875 -3.054688 3.578125 -3.578125 C 2.796875 -3.921875 2.21875 -4.34375 1.84375 -4.84375 C 1.46875 -5.351562 1.242188 -5.878906 1.171875 -6.421875 C 0.785156 -5.960938 0.550781 -5.40625 0.46875 -4.75 C 0.394531 -4.09375 0.457031 -3.515625 0.65625 -3.015625 C 0.738281 -2.785156 0.890625 -2.535156 1.109375 -2.265625 C 1.328125 -1.992188 1.628906 -1.875 2.015625 -1.90625 Z M 3.765625 -5.015625 C 3.722656 -5.835938 3.644531 -6.472656 3.53125 -6.921875 C 3.414062 -7.378906 3.296875 -7.6875 3.171875 -7.84375 C 3.054688 -8 2.976562 -8.082031 2.9375 -8.09375 C 2.914062 -8.09375 2.90625 -8.09375 2.90625 -8.09375 C 2.84375 -8.09375 2.753906 -8.019531 2.640625 -7.875 C 2.523438 -7.738281 2.4375 -7.546875 2.375 -7.296875 C 2.289062 -6.890625 2.34375 -6.457031 2.53125 -6 C 2.71875 -5.550781 3.132812 -5.160156 3.78125 -4.828125 C 3.769531 -4.890625 3.765625 -4.953125 3.765625 -5.015625 Z M 3.765625 -5.015625 "/></g></g><g style="fill:#000000;fill-opacity:1;"><g transform="translate(127.798906, 62.783107)"><path style="stroke:none" d="M 10.609375 -7.859375 C 10.765625 -7.765625 10.859375 -7.632812 10.890625 -7.46875 C 10.929688 -7.3125 10.910156 -7.164062 10.828125 -7.03125 C 10.347656 -6.300781 9.773438 -5.628906 9.109375 -5.015625 C 8.453125 -4.410156 7.742188 -3.9375 6.984375 -3.59375 C 6.234375 -3.257812 5.488281 -3.144531 4.75 -3.25 C 4.53125 -2.5 4.171875 -1.898438 3.671875 -1.453125 C 3.179688 -1.003906 2.664062 -0.753906 2.125 -0.703125 C 2.125 -0.703125 2.117188 -0.703125 2.109375 -0.703125 C 2.097656 -0.703125 2.09375 -0.703125 2.09375 -0.703125 C 1.539062 -0.671875 1.03125 -0.816406 0.5625 -1.140625 C 0.101562 -1.460938 -0.238281 -1.9375 -0.46875 -2.5625 C -0.71875 -3.269531 -0.8125 -3.953125 -0.75 -4.609375 C -0.6875 -5.273438 -0.515625 -5.875 -0.234375 -6.40625 C 0.046875 -6.9375 0.382812 -7.359375 0.78125 -7.671875 C 0.90625 -7.785156 1.066406 -7.820312 1.265625 -7.78125 C 1.398438 -8.257812 1.628906 -8.632812 1.953125 -8.90625 C 2.273438 -9.1875 2.625 -9.316406 3 -9.296875 C 3.238281 -9.273438 3.503906 -9.160156 3.796875 -8.953125 C 4.085938 -8.742188 4.34375 -8.335938 4.5625 -7.734375 C 4.78125 -7.140625 4.914062 -6.25 4.96875 -5.0625 C 4.96875 -4.851562 4.957031 -4.644531 4.9375 -4.4375 C 5.507812 -4.382812 6.097656 -4.5 6.703125 -4.78125 C 7.304688 -5.070312 7.875 -5.476562 8.40625 -6 C 8.9375 -6.519531 9.394531 -7.082031 9.78125 -7.6875 C 9.875 -7.820312 10.003906 -7.90625 10.171875 -7.9375 C 10.335938 -7.976562 10.484375 -7.953125 10.609375 -7.859375 Z M 2.015625 -1.90625 C 2.285156 -1.9375 2.570312 -2.09375 2.875 -2.375 C 3.1875 -2.65625 3.421875 -3.054688 3.578125 -3.578125 C 2.796875 -3.921875 2.21875 -4.34375 1.84375 -4.84375 C 1.46875 -5.351562 1.242188 -5.878906 1.171875 -6.421875 C 0.785156 -5.960938 0.550781 -5.40625 0.46875 -4.75 C 0.394531 -4.09375 0.457031 -3.515625 0.65625 -3.015625 C 0.738281 -2.785156 0.890625 -2.535156 1.109375 -2.265625 C 1.328125 -1.992188 1.628906 -1.875 2.015625 -1.90625 Z M 3.765625 -5.015625 C 3.722656 -5.835938 3.644531 -6.472656 3.53125 -6.921875 C 3.414062 -7.378906 3.296875 -7.6875 3.171875 -7.84375 C 3.054688 -8 2.976562 -8.082031 2.9375 -8.09375 C 2.914062 -8.09375 2.90625 -8.09375 2.90625 -8.09375 C 2.84375 -8.09375 2.753906 -8.019531 2.640625 -7.875 C 2.523438 -7.738281 2.4375 -7.546875 2.375 -7.296875 C 2.289062 -6.890625 2.34375 -6.457031 2.53125 -6 C 2.71875 -5.550781 3.132812 -5.160156 3.78125 -4.828125 C 3.769531 -4.890625 3.765625 -4.953125 3.765625 -5.015625 Z M 3.765625 -5.015625 "/></g></g><g style="fill:#000000;fill-opacity:1;"><g transform="translate(150.688032, 60.593988)"><path style="stroke:none" d="M 12.734375 -8.28125 C 12.867188 -8.207031 12.960938 -8.085938 13.015625 -7.921875 C 13.078125 -7.765625 13.070312 -7.617188 13 -7.484375 C 12.5625 -6.585938 11.976562 -5.628906 11.25 -4.609375 C 10.519531 -3.597656 9.726562 -2.640625 8.875 -1.734375 C 8.019531 -0.828125 7.148438 -0.0703125 6.265625 0.53125 C 5.390625 1.132812 4.578125 1.472656 3.828125 1.546875 C 3.660156 1.554688 3.5 1.5625 3.34375 1.5625 C 3.007812 1.53125 2.640625 1.378906 2.234375 1.109375 C 1.835938 0.847656 1.53125 0.34375 1.3125 -0.40625 C 1.25 -0.613281 1.28125 -0.804688 1.40625 -0.984375 C 1.53125 -1.160156 1.738281 -1.398438 2.03125 -1.703125 C 2.257812 -1.929688 2.507812 -2.203125 2.78125 -2.515625 C 3.0625 -2.835938 3.320312 -3.179688 3.5625 -3.546875 C 3.914062 -4.140625 4.132812 -4.675781 4.21875 -5.15625 C 4.300781 -5.632812 4.3125 -5.960938 4.25 -6.140625 C 4.15625 -6.085938 3.960938 -5.914062 3.671875 -5.625 C 3.378906 -5.332031 3.015625 -4.753906 2.578125 -3.890625 C 2.035156 -2.890625 1.578125 -1.789062 1.203125 -0.59375 C 0.835938 0.601562 0.503906 1.820312 0.203125 3.0625 C -0.0976562 4.300781 -0.363281 5.484375 -0.59375 6.609375 L -0.71875 7.0625 C -0.769531 7.34375 -0.9375 7.5 -1.21875 7.53125 C -1.257812 7.53125 -1.289062 7.53125 -1.3125 7.53125 C -1.675781 7.507812 -1.863281 7.316406 -1.875 6.953125 C -1.882812 6.785156 -1.847656 6.304688 -1.765625 5.515625 C -1.691406 4.734375 -1.582031 3.722656 -1.4375 2.484375 C -1.300781 1.242188 -1.140625 -0.128906 -0.953125 -1.640625 C -0.773438 -3.160156 -0.578125 -4.71875 -0.359375 -6.3125 C -0.148438 -7.914062 0.046875 -9.484375 0.234375 -11.015625 C 0.429688 -12.554688 0.617188 -13.976562 0.796875 -15.28125 C 0.804688 -15.320312 0.8125 -15.375 0.8125 -15.4375 C 1.039062 -17.007812 1.21875 -18.238281 1.34375 -19.125 C 1.632812 -21.09375 1.992188 -22.882812 2.421875 -24.5 C 2.847656 -26.113281 3.300781 -27.421875 3.78125 -28.421875 C 4.269531 -29.421875 4.738281 -29.992188 5.1875 -30.140625 C 5.519531 -30.234375 5.796875 -30.148438 6.015625 -29.890625 C 6.347656 -29.523438 6.40625 -28.671875 6.1875 -27.328125 C 5.976562 -25.984375 5.507812 -24.265625 4.78125 -22.171875 C 4.0625 -20.078125 3.140625 -17.722656 2.015625 -15.109375 C 1.816406 -13.785156 1.613281 -12.347656 1.40625 -10.796875 C 1.195312 -9.242188 0.992188 -7.660156 0.796875 -6.046875 C 0.597656 -4.429688 0.410156 -2.894531 0.234375 -1.4375 C 0.421875 -1.945312 0.617188 -2.457031 0.828125 -2.96875 C 1.046875 -3.488281 1.265625 -3.984375 1.484375 -4.453125 C 2.492188 -6.378906 3.429688 -7.351562 4.296875 -7.375 C 4.722656 -7.375 5.039062 -7.175781 5.25 -6.78125 C 5.5 -6.363281 5.550781 -5.785156 5.40625 -5.046875 C 5.269531 -4.316406 4.988281 -3.59375 4.5625 -2.875 C 4.3125 -2.476562 4.03125 -2.109375 3.71875 -1.765625 C 3.414062 -1.429688 3.140625 -1.132812 2.890625 -0.875 C 2.835938 -0.8125 2.773438 -0.742188 2.703125 -0.671875 C 2.640625 -0.597656 2.585938 -0.539062 2.546875 -0.5 C 2.671875 -0.15625 2.820312 0.0664062 3 0.171875 C 3.175781 0.285156 3.328125 0.347656 3.453125 0.359375 C 3.921875 0.398438 4.515625 0.203125 5.234375 -0.234375 C 5.953125 -0.671875 6.71875 -1.28125 7.53125 -2.0625 C 8.34375 -2.851562 9.140625 -3.757812 9.921875 -4.78125 C 10.710938 -5.8125 11.375 -6.890625 11.90625 -8.015625 C 11.976562 -8.171875 12.09375 -8.269531 12.25 -8.3125 C 12.414062 -8.363281 12.578125 -8.351562 12.734375 -8.28125 Z M 5.109375 -28.375 C 4.804688 -27.820312 4.421875 -26.859375 3.953125 -25.484375 C 3.484375 -24.109375 3.070312 -22.265625 2.71875 -19.953125 C 3.539062 -22.148438 4.132812 -23.941406 4.5 -25.328125 C 4.863281 -26.722656 5.066406 -27.738281 5.109375 -28.375 Z M 5.109375 -28.375 "/></g></g><g style="fill:#000000;fill-opacity:1;"><g transform="translate(175.753495, 58.196724)"><path style="stroke:none" d="M 9.859375 -7.9375 C 10.003906 -7.875 10.09375 -7.757812 10.125 -7.59375 C 10.164062 -7.425781 10.148438 -7.273438 10.078125 -7.140625 C 9.015625 -5.328125 8.023438 -3.816406 7.109375 -2.609375 C 6.203125 -1.398438 5.28125 -0.382812 4.34375 0.4375 C 3.625 1.050781 2.890625 1.394531 2.140625 1.46875 C 1.566406 1.519531 1.046875 1.410156 0.578125 1.140625 C 0.265625 0.960938 -0.0507812 0.617188 -0.375 0.109375 C -0.707031 -0.390625 -0.929688 -1.140625 -1.046875 -2.140625 C -1.171875 -3.148438 -1.050781 -4.492188 -0.6875 -6.171875 C -0.6875 -6.171875 -0.6875 -6.179688 -0.6875 -6.203125 C -0.25 -8.253906 0.332031 -9.84375 1.0625 -10.96875 C 1.800781 -12.101562 2.472656 -12.707031 3.078125 -12.78125 C 3.554688 -12.84375 3.882812 -12.671875 4.0625 -12.265625 C 4.351562 -11.679688 4.164062 -10.796875 3.5 -9.609375 C 2.84375 -8.429688 1.828125 -7.144531 0.453125 -5.75 C 0.140625 -4.257812 0.03125 -3.101562 0.125 -2.28125 C 0.226562 -1.46875 0.398438 -0.890625 0.640625 -0.546875 C 0.878906 -0.203125 1.066406 0.015625 1.203125 0.109375 C 1.867188 0.503906 2.65625 0.300781 3.5625 -0.5 C 4.457031 -1.257812 5.335938 -2.21875 6.203125 -3.375 C 7.078125 -4.539062 8.015625 -5.992188 9.015625 -7.734375 C 9.109375 -7.867188 9.238281 -7.957031 9.40625 -8 C 9.570312 -8.050781 9.722656 -8.03125 9.859375 -7.9375 Z M 2.984375 -11.46875 C 2.773438 -11.300781 2.492188 -10.960938 2.140625 -10.453125 C 1.785156 -9.941406 1.441406 -9.226562 1.109375 -8.3125 C 1.796875 -9.09375 2.269531 -9.753906 2.53125 -10.296875 C 2.789062 -10.835938 2.941406 -11.226562 2.984375 -11.46875 Z M 2.984375 -11.46875 "/></g></g><g style="fill:#000000;fill-opacity:1;"><g transform="translate(197.741002, 56.093836)"><path style="stroke:none" d="M 11.875 -8.140625 C 12.019531 -8.066406 12.117188 -7.953125 12.171875 -7.796875 C 12.234375 -7.648438 12.226562 -7.5 12.15625 -7.34375 C 11.351562 -5.53125 10.601562 -4.125 9.90625 -3.125 C 9.21875 -2.132812 8.46875 -1.648438 7.65625 -1.671875 C 6.601562 -1.703125 5.675781 -2.742188 4.875 -4.796875 C 4.601562 -5.453125 4.375 -5.925781 4.1875 -6.21875 C 4.007812 -6.507812 3.867188 -6.6875 3.765625 -6.75 C 3.671875 -6.8125 3.601562 -6.84375 3.5625 -6.84375 C 3.488281 -6.851562 3.363281 -6.773438 3.1875 -6.609375 C 3.019531 -6.453125 2.78125 -6.109375 2.46875 -5.578125 C 2.164062 -5.046875 1.804688 -4.234375 1.390625 -3.140625 C 0.972656 -2.046875 0.476562 -0.546875 -0.09375 1.359375 C -0.175781 1.609375 -0.34375 1.75 -0.59375 1.78125 C -0.65625 1.78125 -0.707031 1.78125 -0.75 1.78125 C -1.101562 1.726562 -1.28125 1.519531 -1.28125 1.15625 C -1.257812 0.289062 -1.164062 -0.710938 -1 -1.859375 C -0.832031 -3.003906 -0.640625 -4.171875 -0.421875 -5.359375 C -0.210938 -6.546875 -0.0195312 -7.613281 0.15625 -8.5625 C 0.195312 -8.757812 0.234375 -8.945312 0.265625 -9.125 C 0.304688 -9.3125 0.34375 -9.492188 0.375 -9.671875 C 0.414062 -9.835938 0.503906 -9.960938 0.640625 -10.046875 C 0.773438 -10.140625 0.914062 -10.171875 1.0625 -10.140625 C 1.226562 -10.117188 1.359375 -10.035156 1.453125 -9.890625 C 1.554688 -9.753906 1.585938 -9.601562 1.546875 -9.4375 C 1.515625 -9.257812 1.476562 -9.082031 1.4375 -8.90625 C 1.40625 -8.738281 1.367188 -8.546875 1.328125 -8.328125 C 1.234375 -7.773438 1.125 -7.164062 1 -6.5 C 0.882812 -5.832031 0.765625 -5.160156 0.640625 -4.484375 C 1.210938 -5.878906 1.726562 -6.816406 2.1875 -7.296875 C 2.644531 -7.785156 3.082031 -8.039062 3.5 -8.0625 C 4.09375 -8.070312 4.582031 -7.789062 4.96875 -7.21875 C 5.351562 -6.644531 5.695312 -5.976562 6 -5.21875 C 6.414062 -4.164062 6.769531 -3.503906 7.0625 -3.234375 C 7.363281 -2.972656 7.578125 -2.847656 7.703125 -2.859375 C 7.972656 -2.847656 8.269531 -3.03125 8.59375 -3.40625 C 8.925781 -3.789062 9.25 -4.265625 9.5625 -4.828125 C 9.875 -5.390625 10.164062 -5.941406 10.4375 -6.484375 C 10.71875 -7.035156 10.925781 -7.488281 11.0625 -7.84375 C 11.132812 -7.988281 11.25 -8.085938 11.40625 -8.140625 C 11.5625 -8.203125 11.71875 -8.203125 11.875 -8.140625 Z M 11.875 -8.140625 "/></g></g></g></svg>