<svg xmlns="http://www.w3.org/2000/svg" xmlns:xlink="http://www.w3.org/1999/xlink" width="250" zoomAndPan="magnify" viewBox="0 0 187.5 187.499992" height="250" preserveAspectRatio="xMidYMid meet" version="1.2"><defs><clipPath id="1460503832"><path d="M 6.847656 82 L 180.386719 82 L 180.386719 105 L 6.847656 105 Z M 6.847656 82 "/></clipPath><clipPath id="2a3cb62402"><path d="M 6.847656 133 L 180.386719 133 L 180.386719 154.792969 L 6.847656 154.792969 Z M 6.847656 133 "/></clipPath><clipPath id="c95c0d4912"><path d="M 6.847656 32.121094 L 180.386719 32.121094 L 180.386719 54 L 6.847656 54 Z M 6.847656 32.121094 "/></clipPath><clipPath id="e134c7a091"><path d="M 67.53125 86.011719 L 90.316406 86.011719 L 90.316406 100.988281 L 67.53125 100.988281 Z M 67.53125 86.011719 "/></clipPath></defs><g id="d5cbd39f25"><g clip-rule="nonzero" clip-path="url(#1460503832)"><path style=" stroke:none;fill-rule:nonzero;fill:#5932c1;fill-opacity:1;" d="M 169.210938 82.632812 L 17.671875 82.632812 C 11.695312 82.632812 6.851562 87.480469 6.851562 93.457031 C 6.851562 99.4375 11.695312 104.28125 17.671875 104.28125 L 169.210938 104.28125 C 175.1875 104.28125 180.035156 99.4375 180.035156 93.457031 C 180.035156 87.480469 175.1875 82.632812 169.210938 82.632812 Z M 169.210938 82.632812 "/></g><g clip-rule="nonzero" clip-path="url(#2a3cb62402)"><path style=" stroke:none;fill-rule:nonzero;fill:#5932c1;fill-opacity:1;" d="M 169.210938 133.148438 L 17.671875 133.148438 C 11.695312 133.148438 6.851562 137.992188 6.851562 143.96875 C 6.851562 149.949219 11.695312 154.792969 17.671875 154.792969 L 169.210938 154.792969 C 175.1875 154.792969 180.035156 149.949219 180.035156 143.96875 C 180.035156 137.992188 175.1875 133.148438 169.210938 133.148438 Z M 169.210938 133.148438 "/></g><g clip-rule="nonzero" clip-path="url(#c95c0d4912)"><path style=" stroke:none;fill-rule:nonzero;fill:#5932c1;fill-opacity:1;" d="M 17.671875 53.769531 L 169.210938 53.769531 C 175.1875 53.769531 180.035156 48.925781 180.035156 42.945312 C 180.035156 36.96875 175.1875 32.121094 169.210938 32.121094 L 17.671875 32.121094 C 11.695312 32.121094 6.851562 36.96875 6.851562 42.945312 C 6.851562 48.925781 11.695312 53.769531 17.671875 53.769531 Z M 17.671875 53.769531 "/></g><g clip-rule="nonzero" clip-path="url(#e134c7a091)"><path style=" stroke:none;fill-rule:nonzero;fill:#5932c1;fill-opacity:1;" d="M 67.53125 86.011719 L 90.289062 86.011719 L 90.289062 100.988281 L 67.53125 100.988281 Z M 67.53125 86.011719 "/></g></g></svg>